<svg id="Layer_1" data-name="Layer 1" xmlns="http://www.w3.org/2000/svg" viewBox="0 0 400 66.89" width="400" height="250"><defs><style>.cls-1{fill:#233e98;}</style></defs><title>advanced_resources</title><path class="cls-1" d="M390.2,124.62a3.37,3.37,0,0,1,.77-1,9.37,9.37,0,0,1,1.35-.58,5.93,5.93,0,0,1,1.92-.19,11.25,11.25,0,0,1,2.5.38,17.85,17.85,0,0,1,2.5.77v-2.69a9.52,9.52,0,0,0-2.5-.77,14.94,14.94,0,0,0-3.08-.38,13,13,0,0,0-2.69.38,4.58,4.58,0,0,0-2.11,1.15,7.53,7.53,0,0,0-1.54,1.92,5.58,5.58,0,0,0-.58,2.69,5.32,5.32,0,0,0,.58,2.5,5.18,5.18,0,0,0,1.35,1.54,5.76,5.76,0,0,0,1.92.77c0.77,0.19,1.35.38,2.11,0.58,0.58,0.19,1,.19,1.54.38a6.4,6.4,0,0,1,1.15.58,1.92,1.92,0,0,1,.77,1,2.55,2.55,0,0,1,0,2.69,2.32,2.32,0,0,1-1,1,13.24,13.24,0,0,1-1.54.58,6.54,6.54,0,0,1-1.92.19,12.69,12.69,0,0,1-2.69-.19,10.84,10.84,0,0,1-2.31-.77v2.69a2.82,2.82,0,0,0,.77.38c0.38,0.19.77,0.19,1.15,0.38a3.75,3.75,0,0,0,1.54.19c0.58,0,1.15.19,1.92,0.19a16.93,16.93,0,0,0,3.27-.38,6,6,0,0,0,2.5-1.15,4.88,4.88,0,0,0,1.54-1.92A5.32,5.32,0,0,0,400,135a5.58,5.58,0,0,0-.58-2.69,5.18,5.18,0,0,0-1.35-1.54,7.79,7.79,0,0,0-1.73-1c-0.58-.19-1.35-0.38-2.11-0.58-0.58-.19-1-0.19-1.54-0.38a9.37,9.37,0,0,1-1.35-.58,4.19,4.19,0,0,1-1-.77,2.78,2.78,0,0,1-.38-1.35,3.3,3.3,0,0,1,.19-1.54M375.4,137.3a5.24,5.24,0,0,1-2.31-1.15,6,6,0,0,1-1.54-2.11A7.32,7.32,0,0,1,371,131h13.26v-1.15a14.51,14.51,0,0,0-.58-4.42,11.49,11.49,0,0,0-1.54-3.08,7.31,7.31,0,0,0-2.5-1.73,8,8,0,0,0-3.08-.58,9,9,0,0,0-3.27.58,12.55,12.55,0,0,0-2.88,1.92,9.2,9.2,0,0,0-1.92,3.27,14.22,14.22,0,0,0,0,9.23,7.32,7.32,0,0,0,2.11,3.08,9.75,9.75,0,0,0,3.08,1.73,12.39,12.39,0,0,0,3.84.58,9,9,0,0,0,3.27-.38,7.67,7.67,0,0,0,2.5-.77v-2.69a12.43,12.43,0,0,1-2.5.77,12.73,12.73,0,0,1-2.88.19,5.9,5.9,0,0,1-2.5-.19m3.08-14a2.58,2.58,0,0,1,1.35,1.15,7.79,7.79,0,0,1,1,1.73,6.91,6.91,0,0,1,.38,2.11h-9.8a3.87,3.87,0,0,1,.58-2.11,4.54,4.54,0,0,1,1.15-1.73,2.8,2.8,0,0,1,1.73-1.15,6.91,6.91,0,0,1,2.11-.38,2.31,2.31,0,0,1,1.54.38m-19.41-2.88a6.89,6.89,0,0,0-2.11.77A11.67,11.67,0,0,0,355,122.5a7.53,7.53,0,0,0-1.54,1.92c-0.38.77-.77,1.73-1.15,2.69a17.24,17.24,0,0,0-.38,3.46,10.13,10.13,0,0,0,.77,4.42,8.78,8.78,0,0,0,2.11,3.08,9.75,9.75,0,0,0,3.08,1.73,11.19,11.19,0,0,0,3.65.58h1.54c0.58,0,1-.19,1.35-0.19,0.38-.19.77-0.19,1.15-0.38a4.93,4.93,0,0,0,1-.38v-2.69a10.84,10.84,0,0,1-2.31.77,9.36,9.36,0,0,1-2.31.19,6.42,6.42,0,0,1-2.88-.58,5.45,5.45,0,0,1-2.11-1.54,4.38,4.38,0,0,1-1.15-2.31,14.84,14.84,0,0,1-.38-2.88,10.4,10.4,0,0,1,.58-3.65,6.91,6.91,0,0,1,1.54-2.31,7.94,7.94,0,0,1,2.11-1.35,9.65,9.65,0,0,1,2.31-.38,7.21,7.21,0,0,1,2.11.19,10.84,10.84,0,0,1,2.31.77V121a6.89,6.89,0,0,0-2.11-.77,11.34,11.34,0,0,0-2.69-.38,21.43,21.43,0,0,1-2.5.58m-7.5-.19h-0.77a7.21,7.21,0,0,0-2.11.19,5.76,5.76,0,0,0-1.92.77,10.66,10.66,0,0,0-1.54,1.15c-0.38.38-.77,1-1.15,1.35h0l-0.58-3.08H341V140h3.08V126.54a4.49,4.49,0,0,1,1.35-1.35,7.79,7.79,0,0,1,1.73-1,6.81,6.81,0,0,1,2.11-.58,8.62,8.62,0,0,1,2.11-.19h0.19v-3.27Zm-19.61,20a7.11,7.11,0,0,0,2.11-1,5.85,5.85,0,0,0,1.54-1.54,6,6,0,0,0,1-1.92c0.19-.38.19-1,0.38-1.54,0-.58.19-1.15,0.19-1.73V120.58h-3.08V132.5a9.74,9.74,0,0,1-.38,2.5,4.34,4.34,0,0,1-1.54,2.11,4.63,4.63,0,0,1-2.88.77,3.76,3.76,0,0,1-2.69-.77,3.05,3.05,0,0,1-1.54-1.92,10,10,0,0,1-.38-2.69V120.58h-3.08V132.5a5.93,5.93,0,0,0,.19,1.92,3.62,3.62,0,0,0,.38,1.54,5,5,0,0,0,1,1.73,5.18,5.18,0,0,0,1.54,1.35,7.11,7.11,0,0,0,2.11,1,11.34,11.34,0,0,0,2.69.38,11,11,0,0,0,2.5-.19m-14-14a8.86,8.86,0,0,0-1.73-3.27,8,8,0,0,0-2.88-2.11,10,10,0,0,0-7.69,0,8,8,0,0,0-2.88,2.11,13.33,13.33,0,0,0-1.92,3.27,15.79,15.79,0,0,0,0,8.46,8.86,8.86,0,0,0,1.73,3.27,8,8,0,0,0,2.88,2.11,10,10,0,0,0,7.69,0,8,8,0,0,0,2.88-2.11,13.33,13.33,0,0,0,1.92-3.27,14.06,14.06,0,0,0,.58-4.23,7.6,7.6,0,0,0-.58-4.23m-3.08,7.3a12.8,12.8,0,0,1-1.15,2.31,7.53,7.53,0,0,1-1.92,1.54,5.12,5.12,0,0,1-2.31.58,4.57,4.57,0,0,1-2.31-.58,4.88,4.88,0,0,1-1.92-1.54,4.38,4.38,0,0,1-1.15-2.31,8,8,0,0,1-.38-3.08,16.93,16.93,0,0,1,.38-3.27,12.8,12.8,0,0,1,1.15-2.31,7.53,7.53,0,0,1,1.92-1.54,5.12,5.12,0,0,1,2.31-.58,4.57,4.57,0,0,1,2.31.58,4.88,4.88,0,0,1,1.92,1.54,4.38,4.38,0,0,1,1.15,2.31,8.49,8.49,0,0,1,.38,3.27,8,8,0,0,1-.38,3.08m-25.76-8.84a3.37,3.37,0,0,1,.77-1,9.37,9.37,0,0,1,1.35-.58,5.93,5.93,0,0,1,1.92-.19,11.25,11.25,0,0,1,2.5.38,17.85,17.85,0,0,1,2.5.77v-2.69a9.52,9.52,0,0,0-2.5-.77,14.94,14.94,0,0,0-3.08-.38,13,13,0,0,0-2.69.38,4.58,4.58,0,0,0-2.11,1.15,7.53,7.53,0,0,0-1.54,1.92,5.58,5.58,0,0,0-.58,2.69,5.32,5.32,0,0,0,.58,2.5,5.18,5.18,0,0,0,1.35,1.54,5.76,5.76,0,0,0,1.92.77c0.77,0.19,1.35.38,2.11,0.58,0.58,0.19,1,.19,1.54.38a6.4,6.4,0,0,1,1.15.58,1.92,1.92,0,0,1,.77,1,2.55,2.55,0,0,1,0,2.69,2.32,2.32,0,0,1-1,1,13.24,13.24,0,0,1-1.54.58,6.54,6.54,0,0,1-1.92.19,12.69,12.69,0,0,1-2.69-.19,10.84,10.84,0,0,1-2.31-.77v2.69a2.82,2.82,0,0,0,.77.38c0.38,0.19.77,0.19,1.15,0.38a3.75,3.75,0,0,0,1.54.19c0.58,0,1.15.19,1.92,0.19a16.93,16.93,0,0,0,3.27-.38,6,6,0,0,0,2.5-1.15,4.88,4.88,0,0,0,1.54-1.92,5.32,5.32,0,0,0,.58-2.5,5.58,5.58,0,0,0-.58-2.69,5.18,5.18,0,0,0-1.35-1.54,7.79,7.79,0,0,0-1.73-1c-0.58-.19-1.35-0.38-2.11-0.58-0.58-.19-1-0.19-1.54-0.38a9.37,9.37,0,0,1-1.35-.58,4.19,4.19,0,0,1-1-.77,2.78,2.78,0,0,1-.38-1.35,3.3,3.3,0,0,1,.19-1.54m-14.8,12.69a5.24,5.24,0,0,1-2.31-1.15,6,6,0,0,1-1.54-2.11,7.32,7.32,0,0,1-.58-3.08h13.26v-1.15a14.51,14.51,0,0,0-.58-4.42,11.49,11.49,0,0,0-1.54-3.08,7.31,7.31,0,0,0-2.5-1.73,8,8,0,0,0-3.08-.58,9,9,0,0,0-3.27.58,9.46,9.46,0,0,0-2.88,1.92,9.2,9.2,0,0,0-1.92,3.27,14.22,14.22,0,0,0,0,9.23,7.32,7.32,0,0,0,2.11,3.08,9.75,9.75,0,0,0,3.08,1.73,12.39,12.39,0,0,0,3.84.58,9,9,0,0,0,3.27-.38,7.67,7.67,0,0,0,2.5-.77v-2.69a12.43,12.43,0,0,1-2.5.77,12.73,12.73,0,0,1-2.88.19,5.9,5.9,0,0,1-2.5-.19m3.08-14a2.58,2.58,0,0,1,1.35,1.15,7.79,7.79,0,0,1,1,1.73,6.91,6.91,0,0,1,.38,2.11h-9.8a3.87,3.87,0,0,1,.58-2.11,4.54,4.54,0,0,1,1.15-1.73,2.8,2.8,0,0,1,1.73-1.15,6.91,6.91,0,0,1,2.11-.38,2.58,2.58,0,0,1,1.54.38m-23.83-9a9.4,9.4,0,0,1,2.5.19,3.84,3.84,0,0,1,1.73.38,5.52,5.52,0,0,1,2.5,1.54,4.72,4.72,0,0,1,1,2.88,4.89,4.89,0,0,1-1,3.08,5.47,5.47,0,0,1-2.69,1.73,5.69,5.69,0,0,1-1.92.38c-0.77,0-1.54.19-2.69,0.19h-3.27V114.43h3.84v-0.19Zm0.19,13.26L262.18,140h4l-8.84-12.88h0a10.13,10.13,0,0,0,2.88-1,7.07,7.07,0,0,0,3.84-3.84,7.56,7.56,0,0,0-5.38-10.57,9.65,9.65,0,0,0-2.31-.38c-0.77,0-1.92-.19-3.08-0.19h-7.11V140h3.27V127.5h4.23Z" transform="translate(0 -91.55)"/><path class="cls-1" d="M218.55,135a9.38,9.38,0,0,0,1.92,3.08,8.06,8.06,0,0,0,2.69,1.73,8.71,8.71,0,0,0,3.08.58,5.93,5.93,0,0,0,1.92-.19,13.24,13.24,0,0,0,1.54-.58,5.1,5.1,0,0,0,1.15-1,3.37,3.37,0,0,0,.77-1h0l0.58,2.11h2.31V111h-3.08v11.34h0a9,9,0,0,0-2.31-1.73A8,8,0,0,0,226,120a5.32,5.32,0,0,0-1.73.19,8,8,0,0,0-1.92.77,10.56,10.56,0,0,0-1.73,1.35,7.53,7.53,0,0,0-1.54,1.92,11.11,11.11,0,0,0-1,2.69,19.36,19.36,0,0,0-.38,3.65,16.37,16.37,0,0,0,.77,4.42m3.08-8.46a6.65,6.65,0,0,1,1.35-2.31,4,4,0,0,1,1.92-1.15,6.83,6.83,0,0,1,1.92-.38,6.14,6.14,0,0,1,2.69.58,16,16,0,0,1,2.31,1.54V135a2.9,2.9,0,0,1-.77.77,6.1,6.1,0,0,1-1.15,1,11.41,11.41,0,0,1-1.54.77,5.32,5.32,0,0,1-1.73.19,4.1,4.1,0,0,1-2.31-.58,3.39,3.39,0,0,1-1.73-1.54,12.8,12.8,0,0,1-1.15-2.31,14.94,14.94,0,0,1-.38-3.08c0.19-1.35.38-2.69,0.58-3.65m-16,10.57a5.24,5.24,0,0,1-2.31-1.15,6,6,0,0,1-1.54-2.11,7.32,7.32,0,0,1-.58-3.08h13.26v-1.15a14.51,14.51,0,0,0-.58-4.42,11.49,11.49,0,0,0-1.54-3.08,7.31,7.31,0,0,0-2.5-1.73,8,8,0,0,0-3.08-.58,9,9,0,0,0-3.27.58,9.46,9.46,0,0,0-2.88,1.92,9.2,9.2,0,0,0-1.92,3.27,14.22,14.22,0,0,0,0,9.23,7.32,7.32,0,0,0,2.11,3.08,9.75,9.75,0,0,0,3.08,1.73,12.39,12.39,0,0,0,3.84.58,9,9,0,0,0,3.27-.38,7.67,7.67,0,0,0,2.5-.77v-2.69a12.43,12.43,0,0,1-2.5.77,12.73,12.73,0,0,1-2.88.19,3.75,3.75,0,0,1-2.5-.19m3.08-14a2.58,2.58,0,0,1,1.35,1.15,7.79,7.79,0,0,1,1,1.73,6.91,6.91,0,0,1,.38,2.11h-9.8a3.87,3.87,0,0,1,.58-2.11,4.54,4.54,0,0,1,1.15-1.73,2.8,2.8,0,0,1,1.73-1.15,6.91,6.91,0,0,1,2.11-.38,5.94,5.94,0,0,1,1.54.38m-20.57-2.88a8.8,8.8,0,0,0-4,2.11,7.53,7.53,0,0,0-1.54,1.92c-0.38.77-.77,1.73-1.15,2.69a17.24,17.24,0,0,0-.38,3.46,10.13,10.13,0,0,0,.77,4.42,8.78,8.78,0,0,0,2.11,3.08,9.75,9.75,0,0,0,3.08,1.73,11.19,11.19,0,0,0,3.65.58h1.54c0.58,0,1-.19,1.35-0.19,0.38-.19.77-0.19,1.15-0.38a4.93,4.93,0,0,0,1-.38v-2.69a10.84,10.84,0,0,1-2.31.77,9.36,9.36,0,0,1-2.31.19,6.42,6.42,0,0,1-2.88-.58,5.45,5.45,0,0,1-2.11-1.54,4.38,4.38,0,0,1-1.15-2.31,14.84,14.84,0,0,1-.38-2.88,10.4,10.4,0,0,1,.58-3.65,4.9,4.9,0,0,1,1.54-2.31,7.94,7.94,0,0,1,2.11-1.35,9.65,9.65,0,0,1,2.31-.38,7.21,7.21,0,0,1,2.11.19,10.84,10.84,0,0,1,2.31.77v-2.69a6.89,6.89,0,0,0-2.11-.77,11.34,11.34,0,0,0-2.69-.38,15.17,15.17,0,0,1-2.5.58m-24.6.19h-2.5V139.8h3.08V126.15a6.7,6.7,0,0,1,2.69-2.5,6.38,6.38,0,0,1,3.08-1,3.91,3.91,0,0,1,2.88,1.15,5.94,5.94,0,0,1,1,3.65V140h3.08V127.11a8.28,8.28,0,0,0-.58-3.27,5.73,5.73,0,0,0-1.35-2.11,4,4,0,0,0-1.92-1.15,9.74,9.74,0,0,0-2.5-.38,7.88,7.88,0,0,0-2.11.19,6.83,6.83,0,0,0-1.73.77,8.14,8.14,0,0,0-1.35,1,8.36,8.36,0,0,0-1.15,1.35h0ZM153,135.19a2.65,2.65,0,0,1-.77.58c-0.38.19-.77,0.58-1.15,0.77a11.41,11.41,0,0,1-1.54.77,5.69,5.69,0,0,1-1.92.38,4.23,4.23,0,0,1-1.54-.19l-1.15-.58a2.45,2.45,0,0,1-.77-1.15,3.75,3.75,0,0,1-.19-1.54,3.23,3.23,0,0,1,1.15-2.69,4.88,4.88,0,0,1,3.08-.77,11.82,11.82,0,0,1,2.69.19,9.92,9.92,0,0,0,2.11.38v3.84Zm0.38,4.61h2.69V126.92a5.32,5.32,0,0,0-.19-1.73,2.78,2.78,0,0,0-.38-1.35,5.25,5.25,0,0,0-2.69-2.69A8.89,8.89,0,0,0,148,120h-1.54c-0.58,0-1.15.19-1.54,0.19a12.25,12.25,0,0,0-1.35.38,2.73,2.73,0,0,1-1.15.38v2.69a12.43,12.43,0,0,1,2.5-.77,11.82,11.82,0,0,1,2.69-.19,6.74,6.74,0,0,1,3.08.58,4.54,4.54,0,0,1,1.73,1.54,8,8,0,0,1,.38,1.15c0,0.38.19,1,.19,1.35v1.35h0a20,20,0,0,0-2.31-.58,11.82,11.82,0,0,0-2.69-.19,11.63,11.63,0,0,0-2.88.38,8.64,8.64,0,0,0-2.31,1.15,7.53,7.53,0,0,0-1.54,1.92,5.32,5.32,0,0,0-.58,2.5,11.34,11.34,0,0,0,.38,2.69,6.9,6.9,0,0,0,1.35,1.92,4,4,0,0,0,1.92,1.15,11.25,11.25,0,0,0,2.5.38,5.93,5.93,0,0,0,1.92-.19l1.73-.58a8.36,8.36,0,0,0,1.35-.77,4.53,4.53,0,0,0,1-1h0Zm-23.45-3.27c-0.58-1.54-1.15-3.27-1.92-5.38l-3.84-10.76H121.1l7.3,19.41h3.27l7.3-19.41H135.9l-3.84,10.76c-0.77,2.31-1.54,4-2.11,5.38h0ZM101.87,135a9.38,9.38,0,0,0,1.92,3.08,8.06,8.06,0,0,0,2.69,1.73,8.71,8.71,0,0,0,3.08.58,5.93,5.93,0,0,0,1.92-.19,13.24,13.24,0,0,0,1.54-.58,5.1,5.1,0,0,0,1.15-1,3.37,3.37,0,0,0,.77-1h0l0.58,2.11h2.31V111h-3.08v11.34h0a9,9,0,0,0-2.31-1.73,8,8,0,0,0-3.08-.58,5.32,5.32,0,0,0-1.73.19,8,8,0,0,0-1.92.77,10.56,10.56,0,0,0-1.73,1.35,7.53,7.53,0,0,0-1.54,1.92,11.11,11.11,0,0,0-1,2.69,19.36,19.36,0,0,0-.38,3.65,16.37,16.37,0,0,0,.77,4.42m3.08-8.46a6.65,6.65,0,0,1,1.35-2.31,4,4,0,0,1,1.92-1.15,6.83,6.83,0,0,1,1.92-.38,6.14,6.14,0,0,1,2.69.58,16,16,0,0,1,2.31,1.54V135a2.9,2.9,0,0,1-.77.77,6.1,6.1,0,0,1-1.15,1,11.41,11.41,0,0,1-1.54.77,5.32,5.32,0,0,1-1.73.19,4.1,4.1,0,0,1-2.31-.58,3.39,3.39,0,0,1-1.73-1.54,12.8,12.8,0,0,1-1.15-2.31,14.94,14.94,0,0,1-.38-3.08,18.2,18.2,0,0,1,.58-3.65" transform="translate(0 -91.55)"/><polygon class="cls-1" points="88.23 18.07 99.95 48.63 96.3 48.63 88.23 26.91 79.96 48.63 76.12 48.63 88.23 18.07"/><polygon class="cls-1" points="35.17 36.33 48.63 66.89 44.4 66.89 33.25 40.75 35.17 36.33"/><polygon class="cls-1" points="35.17 36.33 21.72 66.89 25.95 66.89 37.1 40.75 35.17 36.33"/><polygon class="cls-1" points="36.91 34.79 70.16 31.52 68.81 35.56 40.56 38.06 36.91 34.79"/><polygon class="cls-1" points="36.91 34.79 61.7 57.09 63.05 53.05 41.71 34.41 36.91 34.79"/><polygon class="cls-1" points="36.52 32.68 43.63 0 47.09 2.5 40.75 30.18 36.52 32.68"/><polygon class="cls-1" points="36.52 32.68 65.35 15.95 62.09 13.46 37.67 28.06 36.52 32.68"/><polygon class="cls-1" points="33.64 32.68 4.8 15.76 8.27 13.26 32.68 27.87 33.64 32.68"/><polygon class="cls-1" points="33.64 32.68 26.72 0 23.26 2.5 29.6 30.18 33.64 32.68"/><polygon class="cls-1" points="33.25 34.98 8.27 57.28 7.11 53.24 28.45 34.41 33.25 34.98"/><polygon class="cls-1" points="1.35 35.56 29.6 38.06 33.25 34.98 0 31.52 1.35 35.56"/></svg>