<svg id="Layer_1" data-name="Layer 1" xmlns="http://www.w3.org/2000/svg" viewBox="0 0 400 216.62" width="400" height="250"><defs></defs><title>advanced.colors-white</title><path class="cls-1" d="M11,174.21H22.8L16.9,159Zm12.68,2H10l-1.47,4.13a22,22,0,0,0-1.57,5,1,1,0,0,0,.3.87,3.32,3.32,0,0,0,1.5.4L11,186.91v1.6q-2.25-.18-5-0.17-3.5-.05-6,0.12v-1.6H0.7a4.78,4.78,0,0,0,2.12-.38,3.7,3.7,0,0,0,1-1.55q1.65-3.7,3.4-7.9l6.42-15.8q2.5-6.27,3.52-9.13h1.58l11.85,29.83a31.5,31.5,0,0,0,1.6,3.65,2.5,2.5,0,0,0,.92.87,7.05,7.05,0,0,0,2.33.38v1.6q-3.05-.17-5.8-0.17t-6.87.17v-1.57l2.2-.15a3.85,3.85,0,0,0,1.48-.28,0.87,0.87,0,0,0,.35-0.7,10.65,10.65,0,0,0-.7-2.5Z" transform="translate(0 -11.69)"/><path class="cls-1" d="M56.37,169.86A12,12,0,0,0,53,167a7.5,7.5,0,0,0-3.65-1,5.93,5.93,0,0,0-5,2.5,11.45,11.45,0,0,0-1.87,7,11.7,11.7,0,0,0,2.15,7.5A6.42,6.42,0,0,0,50,185.76a5.78,5.78,0,0,0,3.45-1.12,6.58,6.58,0,0,0,2.3-2.92,16.28,16.28,0,0,0,.73-5.65v-6.2h-0.1Zm0-4.37v-9.25a3.75,3.75,0,0,0-.32-2,2,2,0,0,0-1.5-.4h-2v-1.45a24,24,0,0,0,7.8-1.85l0.43,0.3q-0.15,2.5-.28,6.23v24.18a22.3,22.3,0,0,0,.23,4.72,2.5,2.5,0,0,0,2,.93l1.68,0.22v1.47q-2.9-.22-5-0.22l-3,.22q0.15-1.73.25-4.87-2,1.68-5,4.68a10.7,10.7,0,0,1-3.5.7,8.28,8.28,0,0,1-6.62-3.23,13.08,13.08,0,0,1-2.67-8.62,14.45,14.45,0,0,1,1-5.75,8.4,8.4,0,0,1,2.5-3.45,38.13,38.13,0,0,1,4.45-2.73,9.15,9.15,0,0,1,4.28-1.25,10.65,10.65,0,0,1,2.75.38,14.38,14.38,0,0,1,2.93,1.18" transform="translate(0 -11.69)"/><path class="cls-1" d="M82.67,165.94v-1.48q2.5,0.18,4.32.17t4.72-.17v1.48H91a2.5,2.5,0,0,0-1,.3,1.78,1.78,0,0,0-.6.45,35,35,0,0,0-1.9,3.45q-2.5,5.9-3.92,9.32T80,188.74H77.5q-3.1-8.33-6.33-16.22a36.05,36.05,0,0,1-1.37-3.78,5.25,5.25,0,0,0-1.15-2.25,2.32,2.32,0,0,0-1.65-.6H66.2v-1.42q3.45,0.18,5.75.17t5.4-.17v1.48h-1a4.4,4.4,0,0,0-2,.33,0.85,0.85,0,0,0-.4.75,7.5,7.5,0,0,0,.43,1.75q0.42,1.32,5.68,15.32l4.2-10.95a47.5,47.5,0,0,0,1.75-5.28,3,3,0,0,0,0-.68,0.83,0.83,0,0,0-.3-0.7,4,4,0,0,0-1.58-.38Z" transform="translate(0 -11.69)"/><path class="cls-1" d="M108.5,174.86a26.33,26.33,0,0,0-8.28,2.85,4.82,4.82,0,0,0-1.75,4.1,4.32,4.32,0,0,0,1,3,3.35,3.35,0,0,0,2.5,1.12,6,6,0,0,0,3.35-1,11.65,11.65,0,0,0,3.05-3.15v-5.6Zm-12.35-4v-3.42l2.5-1.58a13.82,13.82,0,0,1,3-1.48,9.3,9.3,0,0,1,2.78-.4,8.15,8.15,0,0,1,5.2,1.58,6.25,6.25,0,0,1,2.5,4,88.9,88.9,0,0,1,.35,9,57.5,57.5,0,0,0,.28,7.5,1.08,1.08,0,0,0,1.18.7h1.8v1.67q-2.67-.17-3.73-0.17a28.18,28.18,0,0,0-3.52.17V184l-4.85,4a4.25,4.25,0,0,1-1.3.75,5.65,5.65,0,0,1-1.75.22,6.2,6.2,0,0,1-4.62-1.6,5.85,5.85,0,0,1-1.6-4.3,8.55,8.55,0,0,1,1.13-4.48,6.83,6.83,0,0,1,3.23-2.82,60.42,60.42,0,0,1,9.72-2.5,7.83,7.83,0,0,0-1.3-4.83,5.48,5.48,0,0,0-4.55-2,7.22,7.22,0,0,0-2.1.3,6.37,6.37,0,0,0-1.82.9q-0.68,1.83-1.25,3.47Z" transform="translate(0 -11.69)"/><path class="cls-1" d="M125.25,168.74l3.55-3.4a4.2,4.2,0,0,1,1.35-.87,9.1,9.1,0,0,1,3.1-.55,8.27,8.27,0,0,1,4.35,1.1,6.42,6.42,0,0,1,2.62,2.88,14.17,14.17,0,0,1,.8,5.5v8a17.7,17.7,0,0,0,.33,4.75,1.77,1.77,0,0,0,1.72.8h1.67v1.47q-2.5-.18-4.32-0.17t-3.8.17q0.45-5,.45-13.35a14.65,14.65,0,0,0-.55-4.8,4.75,4.75,0,0,0-1.85-2.27,5.57,5.57,0,0,0-3.12-.85,6.08,6.08,0,0,0-3.85,1.25,5.15,5.15,0,0,0-2.12,2.87,32.27,32.27,0,0,0-.23,5v8.62a2.5,2.5,0,0,0,.33,1.5,2.68,2.68,0,0,0,1.93.58h1.67v1.47q-4-.18-6.32-0.17t-5.45.23V187h1.67a1.88,1.88,0,0,0,2-.87,85.2,85.2,0,0,0,.3-10.5q0-4.33,0-6.77a1.62,1.62,0,0,0-.38-1.13,3.32,3.32,0,0,0-1.85-.3H117.5v-1.48a25.75,25.75,0,0,0,3.6-.68,24.77,24.77,0,0,0,3.58-1.32,0.93,0.93,0,0,1,.33-0.2c0.25,0,.38.2,0.38,0.57v1Z" transform="translate(0 -11.69)"/><path class="cls-1" d="M163.7,184.86l0.63,0.6-0.95,1.63a13.72,13.72,0,0,1-3.38,1.4,12.8,12.8,0,0,1-3.45.48,11.32,11.32,0,0,1-5.85-1.42,9.45,9.45,0,0,1-3.7-4.1,14.38,14.38,0,0,1-1.3-6.38,14.73,14.73,0,0,1,1-5.67,8.85,8.85,0,0,1,2.83-3.8,27.5,27.5,0,0,1,4.53-2.67,9.68,9.68,0,0,1,4.27-.92,13.33,13.33,0,0,1,3.1.33,12,12,0,0,1,2.8,1.13,42.73,42.73,0,0,0-.62,6.7h-1.38v-1.3a3.05,3.05,0,0,0-2.37-3.6l-0.13,0a8.52,8.52,0,0,0-3.37-.65,6,6,0,0,0-4.88,2.1,9.68,9.68,0,0,0-1.7,6.22,13.45,13.45,0,0,0,2.5,8.55,7.1,7.1,0,0,0,6,2.8,10.18,10.18,0,0,0,2.77-.38,12.5,12.5,0,0,0,2.7-1.12" transform="translate(0 -11.69)"/><path class="cls-1" d="M171.88,174.29q3.63,0.18,8,.17a32,32,0,0,0,3.4-.17v-1.42a11.05,11.05,0,0,0-.77-4.13,4.47,4.47,0,0,0-1.8-2.08,5.42,5.42,0,0,0-3-.83,5,5,0,0,0-4.2,2.08,11,11,0,0,0-1.63,6.45m0,1.9a11.7,11.7,0,0,0,2.35,7.5,7.5,7.5,0,0,0,5.75,2.47,9.52,9.52,0,0,0,3.25-.58,12.8,12.8,0,0,0,3.2-1.75l0.4,0.38-0.75,2.12a16.28,16.28,0,0,1-4,1.83,15,15,0,0,1-4.25.6,9.8,9.8,0,0,1-7.67-3.25,12.75,12.75,0,0,1-2.92-8.82,15.63,15.63,0,0,1,1.65-7.38,10.32,10.32,0,0,1,4-3.8,11,11,0,0,1,5.65-1.75,8.5,8.5,0,0,1,6.57,2.62,10.47,10.47,0,0,1,2.5,7.37v1.5a18.28,18.28,0,0,1-3,.52q-2.5.2-6.95,0.2h-5.88Z" transform="translate(0 -11.69)"/><path class="cls-1" d="M209,169.86a12,12,0,0,0-3.35-2.83,7.5,7.5,0,0,0-3.65-1,5.92,5.92,0,0,0-5,2.5,11.45,11.45,0,0,0-1.87,7.1,11.7,11.7,0,0,0,2.15,7.5,6.42,6.42,0,0,0,5.25,2.57,5.77,5.77,0,0,0,3.45-1.12,6.58,6.58,0,0,0,2.3-2.92,16.28,16.28,0,0,0,.73-5.65v-6.2Zm0-4.37v-9.25a3.75,3.75,0,0,0-.32-2,2,2,0,0,0-1.5-.4h-2v-1.45a24,24,0,0,0,7.8-1.85l0.42,0.3q-0.15,2.5-.28,6.23v24.18a22.3,22.3,0,0,0,.22,4.72,2.5,2.5,0,0,0,1.95.93l1.67,0.22v1.47q-2.9-.22-5-0.22l-3,.22q0.15-1.73.25-4.87-2,1.68-5,4.68a10.7,10.7,0,0,1-3.5.7,8.28,8.28,0,0,1-6.63-3.23,13.08,13.08,0,0,1-2.67-8.62,14.45,14.45,0,0,1,1-5.75A8.4,8.4,0,0,1,195,168a38.12,38.12,0,0,1,4.45-2.73,9.15,9.15,0,0,1,4.27-1.25,10.65,10.65,0,0,1,2.75.38,14.37,14.37,0,0,1,2.92,1.18" transform="translate(0 -11.69)"/><path class="cls-1" d="M265.77,157.89l-7,15.68q-3.8,8.8-6.3,15.4h-0.95q-0.88-2.25-5-11.6l-8.4-18.8v19.57a29.4,29.4,0,0,0,.5,7.78,3.55,3.55,0,0,0,3.15.93h0.7v1.6q-3.25-.17-5.3-0.17-1.48,0-5.9.17v-1.57h1.53a3.12,3.12,0,0,0,2.18-.48,2.7,2.7,0,0,0,.63-1.75q0.3-3.55.3-7.65V162.64q0-5.2-.2-6.87a1.82,1.82,0,0,0-.73-1.3,4.25,4.25,0,0,0-2.5-.45h-1.25v-1.6l5.13,0.17q1.33,0,3.8-.17,2.85,6.82,6.55,15l6.32,13.82,5.7-12.7q3-6.67,6.85-16,2.92,0.17,4.13.17t5-.17V154H273.2a2.9,2.9,0,0,0-2.5.78,17.5,17.5,0,0,0-.45,5.55v18.42a26.2,26.2,0,0,0,.48,7.1,2.9,2.9,0,0,0,2.7.9h1.35v1.6q-3.25-.18-6.22-0.17t-6.87.17v-1.47h1.55a2.23,2.23,0,0,0,2.25-.87,35.62,35.62,0,0,0,.38-7.5v-20.6h-0.08Z" transform="translate(0 -11.69)"/><path class="cls-1" d="M281.53,174.29q3.62,0.18,8,.17a32,32,0,0,0,3.4-.17v-1.42a11.05,11.05,0,0,0-.83-4.22,4.47,4.47,0,0,0-1.8-2.08,5.42,5.42,0,0,0-3-.83,5,5,0,0,0-4.2,2.08,11,11,0,0,0-1.63,6.45m0,1.9a11.7,11.7,0,0,0,2.35,7.5,7.5,7.5,0,0,0,5.9,2.5,9.52,9.52,0,0,0,3.25-.58,12.8,12.8,0,0,0,3.2-1.75l0.4,0.38-0.75,2.12a16.28,16.28,0,0,1-4,1.83,15,15,0,0,1-4.25.6,9.8,9.8,0,0,1-7.67-3.25,12.75,12.75,0,0,1-2.92-8.82,15.63,15.63,0,0,1,1.65-7.38,10.32,10.32,0,0,1,4-3.8,11,11,0,0,1,5.65-1.75,8.5,8.5,0,0,1,6.57,2.62,10.47,10.47,0,0,1,2.5,7.37v1.5a18.28,18.28,0,0,1-3,.52q-2.5.2-6.95,0.2h-6v0.18Z" transform="translate(0 -11.69)"/><path class="cls-1" d="M318.65,169.86A12,12,0,0,0,315.3,167a7.5,7.5,0,0,0-3.65-1,5.92,5.92,0,0,0-5,2.5,11.45,11.45,0,0,0-1.87,7.1,11.7,11.7,0,0,0,2.15,7.5,6.43,6.43,0,0,0,5.2,2.7,5.77,5.77,0,0,0,3.45-1.12,6.58,6.58,0,0,0,2.3-2.92,16.28,16.28,0,0,0,.73-5.65v-6.33h0Zm0-4.37v-9.25a3.75,3.75,0,0,0-.32-2,2,2,0,0,0-1.5-.4h-2v-1.45a24,24,0,0,0,7.8-1.85l0.42,0.3q-0.15,2.5-.28,6.23v24.18A22.3,22.3,0,0,0,323,186a2.5,2.5,0,0,0,1.95.93l1.67,0.22v1.47q-2.9-.22-5-0.22l-3,.22q0.15-1.73.25-4.87-2,1.68-5,4.68a10.7,10.7,0,0,1-3.5.7,8.28,8.28,0,0,1-6.63-3.23,13.08,13.08,0,0,1-2.67-8.62,14.45,14.45,0,0,1,1-5.75,8.4,8.4,0,0,1,2.5-3.45,38.12,38.12,0,0,1,4.45-2.73,9.15,9.15,0,0,1,4.27-1.25,10.65,10.65,0,0,1,2.75.38,14.37,14.37,0,0,1,2.92,1.18" transform="translate(0 -11.69)"/><path class="cls-1" d="M335,152.64a2.5,2.5,0,0,1,1.85.85,2.92,2.92,0,0,1,.77,2,2.87,2.87,0,0,1-.77,2,2.51,2.51,0,0,1-3.73,0,2.87,2.87,0,0,1-.77-2,2.92,2.92,0,0,1,.77-2,2.5,2.5,0,0,1,1.88-.85m1.85,11.1,0.65,0.5q-0.18,1.9-.22,4.17-0.15,7.5-.18,10.92a53.39,53.39,0,0,0,.2,5.63,2.12,2.12,0,0,0,.45,1.28,3.2,3.2,0,0,0,1.67.52L341,187v1.47q-3.42-.18-6.23-0.17t-5.57.17V187l2-.22a2.08,2.08,0,0,0,1.25-.53,6.3,6.3,0,0,0,.35-2.5v-15a1.58,1.58,0,0,0-.4-1.13,2.65,2.65,0,0,0-1.62-.33h-1.75V166a40.9,40.9,0,0,0,4.2-.83,30.28,30.28,0,0,0,3.47-1.27" transform="translate(0 -11.69)"/><path class="cls-1" d="M360.9,184.86l0.63,0.6-1,1.63a13.72,13.72,0,0,1-3.27,1.4,12.8,12.8,0,0,1-3.45.48,11.32,11.32,0,0,1-5.85-1.42,9.45,9.45,0,0,1-3.7-4.1,14.38,14.38,0,0,1-1.3-6.38,14.73,14.73,0,0,1,1-5.67,8.87,8.87,0,0,1,2.83-3.8,27.75,27.75,0,0,1,4.52-2.67,9.67,9.67,0,0,1,4.28-.92,13.33,13.33,0,0,1,3.1.33,12,12,0,0,1,2.8,1.13,42.5,42.5,0,0,0-.62,6.7h-1.47v-1.3a4.48,4.48,0,0,0-.42-2.3,4.43,4.43,0,0,0-2-1.32,8.53,8.53,0,0,0-3.38-.65,6,6,0,0,0-4.87,2.1,9.68,9.68,0,0,0-1.7,6.23,13.45,13.45,0,0,0,2.5,8.55,7.1,7.1,0,0,0,5.87,2.8,10.17,10.17,0,0,0,2.78-.38,12.5,12.5,0,0,0,2.7-1.12" transform="translate(0 -11.69)"/><path class="cls-1" d="M378.93,174.86a26.3,26.3,0,0,0-8.27,2.85,4.83,4.83,0,0,0-1.75,4.1,4.32,4.32,0,0,0,1,3,3.33,3.33,0,0,0,2.5,1.12,6,6,0,0,0,3.35-1,11.65,11.65,0,0,0,3.05-3.15v-5.6Zm-12.35-4v-3.42l2.5-1.58a13.83,13.83,0,0,1,3-1.48,9.3,9.3,0,0,1,2.78-.4,8.15,8.15,0,0,1,5.2,1.58,6.25,6.25,0,0,1,2.5,4,88.9,88.9,0,0,1,.35,9,57.5,57.5,0,0,0,.28,7.5,1.08,1.08,0,0,0,1.18.7h1.82v1.67q-2.67-.17-3.73-0.17a28.18,28.18,0,0,0-3.53.17V184l-4.85,4a4.27,4.27,0,0,1-1.3.75A5.65,5.65,0,0,1,371,189a6.2,6.2,0,0,1-4.63-1.6,5.85,5.85,0,0,1-1.6-4.3,8.57,8.57,0,0,1,1.12-4.48,6.85,6.85,0,0,1,3.22-2.82,60.42,60.42,0,0,1,9.72-2.5,7.85,7.85,0,0,0-1.3-4.83,5.47,5.47,0,0,0-4.55-2,7.22,7.22,0,0,0-2.1.3,6.38,6.38,0,0,0-1.82.9q-0.68,1.83-1.25,3.47Z" transform="translate(0 -11.69)"/><path class="cls-1" d="M396.55,150.84q-0.4,7.5-.4,13.42v13a61.5,61.5,0,0,0,.3,8.8,1.7,1.7,0,0,0,1.55.67l2,0.23v1.47q-2.5-.18-5-0.17c-1.73,0-4,0-6.78.17V187l2-.17a1.58,1.58,0,0,0,1.53-.73,63.82,63.82,0,0,0,.3-9V155.94a2.7,2.7,0,0,0-.25-1.53,2.17,2.17,0,0,0-1.58-.4h-1.93v-1.5a22,22,0,0,0,7.8-2Z" transform="translate(0 -11.69)"/><path class="cls-1" d="M241.18,79.81l31,54.17H245l-23.4-40.9A314.42,314.42,0,0,1,167,120.91L159.48,134H132.35l2.3-4c-15.28,2.3-26.48.28-30.9-6.75-11.07-17.55,23.75-59.47,78-93.8q6.45-4.1,12.88-7.78l-0.95.6c-47.5,30-78.18,66.9-68.45,82.27S181.38,108,228.9,77.94q5.67-3.6,11-7.3h0l4.15-2.93h0c26-16.78,54.3-47.5,54.3-47.5-7.92,17-28.78,39-57.28,59.75m45-49.83-0.25.23,0.28-.2h0Zm-95,52.62,13.7-24,8.27,14.48c-7.18,3.38-14.52,6.53-21.87,9.3m13.6-70.83-53.07,92.88s47.73-1.8,134.25-74.35a467.9,467.9,0,0,1-52,32.5Z" transform="translate(0 -11.69)"/><path class="cls-1" d="M56.65,209.76l5.45,13.8L66.6,212a1.2,1.2,0,0,0,0-.32,1.5,1.5,0,0,0-.35-1,4.55,4.55,0,0,0-1.25-.95h4.57l5.55,14.13L80,212a1.55,1.55,0,0,0,0-.6,1.3,1.3,0,0,0-.23-0.77,5,5,0,0,0-.95-0.87h5l-7.62,18.5H75.8a10.52,10.52,0,0,1-1.48-.58,5,5,0,0,1-1.35-.87,3,3,0,0,1-.8-1.15l-0.45-1.2-3.63-8.55-5,12.35-1.25-.45a7.5,7.5,0,0,1-.95-0.48,4.28,4.28,0,0,1-1.08-.77,2.83,2.83,0,0,1-.57-0.83l-0.35-.85-5.45-12.72a4.47,4.47,0,0,0-.3-0.58,3.8,3.8,0,0,0-.37-0.52l-0.43-.42-0.85-.73h5.17Z" transform="translate(0 -11.69)"/><path class="cls-1" d="M84.17,226.94a2.33,2.33,0,0,0,.4-0.5,3.2,3.2,0,0,0,.17-0.52,2.5,2.5,0,0,0,0-.58V212a3.65,3.65,0,0,0,0-.6,1.6,1.6,0,0,0-.17-0.5,3.32,3.32,0,0,0-.35-0.5l-0.57-.65H95.37v3.7a3.9,3.9,0,0,0-1.1-1,2.5,2.5,0,0,0-1.23-.3H88.52v4.8h5V220a3.2,3.2,0,0,0-1-.83,5.43,5.43,0,0,0-1.7-.2H88.55v6.08h4a4.17,4.17,0,0,0,.78,0l1.35-.15a8.07,8.07,0,0,0,1.08-.25,6.12,6.12,0,0,0,1-.42l1.22-.53-1.45,3.75h-13l0.73-.58" transform="translate(0 -11.69)"/><path class="cls-1" d="M117.5,212a2.5,2.5,0,0,0,.4-0.62,1.43,1.43,0,0,0,.15-0.58,1,1,0,0,0-.15-0.48,2.82,2.82,0,0,0-.5-0.6h6.23l-7.73,8q0.95,1.23,1.8,2.2l1.6,1.83q0.75,0.83,1.48,1.53l1.45,1.38q0.94,0.83,1.88,1.5l0.6,0.45,0.52,0.3,0.52,0.28,0.63,0.28h-4.6a2.85,2.85,0,0,1-1.15-.28A5.57,5.57,0,0,1,118.9,226a27.2,27.2,0,0,1-2.5-2.5l-3.33-4-1-1.32Zm-10.15,15a2.15,2.15,0,0,0,.42-0.5A1.7,1.7,0,0,0,108,226a2.5,2.5,0,0,0,0-.58V212a3.7,3.7,0,0,0,0-.6,1.63,1.63,0,0,0-.17-0.52,2.88,2.88,0,0,0-.3-0.5l-0.57-.62h6.18l-0.6.65a2.5,2.5,0,0,0-.35.48,2,2,0,0,0-.23.52,2.2,2.2,0,0,0,0,.58v13.33a2,2,0,0,0,0,.58,2.67,2.67,0,0,0,.23.52,2.5,2.5,0,0,0,.4.5,5.47,5.47,0,0,0,.73.58H106.7l0.75-.58" transform="translate(0 -11.69)"/><path class="cls-1" d="M126.25,226.94a1.92,1.92,0,0,0,.65-1.6V212a3.67,3.67,0,0,0,0-.62,2.07,2.07,0,0,0-.17-0.48,2.5,2.5,0,0,0-.33-0.5l-0.65-.65h4.4l11.3,12.5V212a3.17,3.17,0,0,0,0-.58,2,2,0,0,0-.17-0.52,4,4,0,0,0-.33-0.48,6.45,6.45,0,0,0-.62-0.65h5l-0.57.65a2.85,2.85,0,0,0-.35.52,1.63,1.63,0,0,0-.17.5,3.47,3.47,0,0,0,0,.58v16.28h-0.57l-0.45-.13-0.47-.22-0.62-.32a7.73,7.73,0,0,1-.85-0.52l-0.73-.87-0.5-.5-0.68-.73-0.47-.48-0.28-.32-8.87-9.78v10.8a2.17,2.17,0,0,0,.3,1.08,1.52,1.52,0,0,0,.4.48l0.78,0.55h-5.68l0.73-.58" transform="translate(0 -11.69)"/><path class="cls-1" d="M150.85,218.31q0,0.12,0,.25a8.07,8.07,0,0,0,.75,2.92,7.5,7.5,0,0,0,4,3.8,7.73,7.73,0,0,0,2.9.55,6.67,6.67,0,0,0,2.62-.5,6.1,6.1,0,0,0,2.08-1.4,6.3,6.3,0,0,0,1.35-2.15,8,8,0,0,0-1.65-8.2,7.13,7.13,0,0,0-5.2-2.35,7.85,7.85,0,0,0-2.83.48,6.43,6.43,0,0,0-2.17,1.35,5.93,5.93,0,0,0-1.4,2.12,7.5,7.5,0,0,0-.5,2.75,2.3,2.3,0,0,0,0,.25m-3-3.47a8.75,8.75,0,0,1,2.3-2.9,10.87,10.87,0,0,1,3.47-1.9,13.55,13.55,0,0,1,4.4-.7,13.3,13.3,0,0,1,4.32.67,10,10,0,0,1,3.37,1.9,8.53,8.53,0,0,1,2.2,2.92,8.83,8.83,0,0,1,.77,3.75,9.18,9.18,0,0,1-.77,3.82,8.43,8.43,0,0,1-2.22,3,10.28,10.28,0,0,1-3.45,1.9,14.07,14.07,0,0,1-4.48.67,13.07,13.07,0,0,1-4.35-.7,10.22,10.22,0,0,1-3.42-1.8,8.75,8.75,0,0,1-2.22-3,9,9,0,0,1-.8-3.8,8.3,8.3,0,0,1,.83-3.7" transform="translate(0 -11.69)"/><path class="cls-1" d="M172.72,209.76l5.45,13.8,4.5-11.55a1.2,1.2,0,0,0,0-.32,1.5,1.5,0,0,0-.35-1,4.55,4.55,0,0,0-1.2-.93h4.63l5.55,14.13L196,212a1.55,1.55,0,0,0,0-.6,1.3,1.3,0,0,0-.22-0.77,5,5,0,0,0-.75-0.9h5l-7.63,18.5H192a10.52,10.52,0,0,1-1.47-.58,5,5,0,0,1-1.35-.87,3,3,0,0,1-.8-1.15l-0.45-1.2-3.62-8.55-5,12.35-1.25-.45a7.5,7.5,0,0,1-.95-0.48,4.28,4.28,0,0,1-1.08-.77,2.82,2.82,0,0,1-.58-0.83l-0.42-1L169.5,212a4.48,4.48,0,0,0-.3-0.58,3.8,3.8,0,0,0-.38-0.52l-0.42-.42-0.9-.72h5.22Z" transform="translate(0 -11.69)"/><path class="cls-1" d="M207.72,209.76h15.53l-1.28,3.6-0.35-.38-0.22-.2a6.6,6.6,0,0,0-3.37-.67h-1.3v13.15a2.1,2.1,0,0,0,0,.52,2.92,2.92,0,0,0,.22.58,1.73,1.73,0,0,0,.38.5,5.65,5.65,0,0,0,.77.58h-6.5a6.1,6.1,0,0,0,.7-0.58,1.85,1.85,0,0,0,.35-0.5,2,2,0,0,0,.22-0.55,2.3,2.3,0,0,0,0-.58V212.19h-4.2l-0.75.17-0.75.28-0.87.4Z" transform="translate(0 -11.69)"/><path class="cls-1" d="M224.45,226.44a2,2,0,0,0,.32-1.12V212a2.5,2.5,0,0,0-.22-1.15,4.18,4.18,0,0,0-1-1.08h6.15a5,5,0,0,0-.95,1.12,2.3,2.3,0,0,0-.28,1.12v4.78h9.75V212a2.5,2.5,0,0,0-.28-1.12,4.4,4.4,0,0,0-1-1.1h6.2l-0.65.58a2.5,2.5,0,0,0-.4.5,1.8,1.8,0,0,0-.2.52,3.25,3.25,0,0,0,0,.63v13.33a2.08,2.08,0,0,0,.32,1.15,3.72,3.72,0,0,0,1.12,1h-6.52a4.83,4.83,0,0,0,.67-0.52,3.93,3.93,0,0,0,.42-0.52,1.85,1.85,0,0,0,.22-0.5,2.75,2.75,0,0,0,0-.62V219H228.4v6.3a2,2,0,0,0,.32,1.15,4.17,4.17,0,0,0,1.1,1h-6.5a4.33,4.33,0,0,0,1.12-1" transform="translate(0 -11.69)"/><path class="cls-1" d="M245.22,226.94a2.33,2.33,0,0,0,.4-0.5,3.2,3.2,0,0,0,.17-0.52,2.5,2.5,0,0,0,0-.58V212a3.65,3.65,0,0,0,0-.6,1.6,1.6,0,0,0-.17-0.5,3.33,3.33,0,0,0-.35-0.5l-0.58-.65h11.73v3.7a3.9,3.9,0,0,0-1.1-1,2.5,2.5,0,0,0-1.22-.3h-4.52v4.8h5V220a3.2,3.2,0,0,0-1.2-.8,5.43,5.43,0,0,0-1.7-.2h-2.25v6.08h4a4.17,4.17,0,0,0,.77,0l1.35-.15a8.07,8.07,0,0,0,1.08-.25,6.12,6.12,0,0,0,1-.42l1.38-.55-1.5,3.75h-13l0.73-.58" transform="translate(0 -11.69)"/><path class="cls-1" d="M260.87,226.49a2,2,0,0,0,.3-1.12V212a2.77,2.77,0,0,0,0-.55,2.3,2.3,0,0,0-.17-0.55l-0.32-.45a9,9,0,0,0-.62-0.73H267a12.8,12.8,0,0,1,3,.32,7.5,7.5,0,0,1,2.25.9,4.35,4.35,0,0,1,1.45,1.42,3.6,3.6,0,0,1,.5,1.9,3.65,3.65,0,0,1-.32,1.53,3.75,3.75,0,0,1-.95,1.28,6.1,6.1,0,0,1-.7.55,4.4,4.4,0,0,1-.73.4l-0.93.32-1.28.3,1.88,2.2,0.67,0.73,0.95,0.95,1,1.2,1.22,1.08,1,0.87,0.83,0.55,0.87,0.58,1.12,0.6h-4.52a2.82,2.82,0,0,1-1.12-.3,5,5,0,0,1-1.25-.83q-0.67-.62-1.42-1.45L268.82,223l-1-1.25-0.87-1.1-0.85-1.12-1-1.38a9.15,9.15,0,0,0,3.92-1.22,2.75,2.75,0,0,0,1.35-2.37q0-2.75-4.45-2.75H264.8v13.45a2,2,0,0,0,.3,1.15,4.43,4.43,0,0,0,1.12,1H259.8a3.73,3.73,0,0,0,1.1-1" transform="translate(0 -11.69)"/><path class="cls-1" d="M284.25,219.09h5.42L287,212.74ZM277,226.94a4.22,4.22,0,0,0,.63-0.5,2.73,2.73,0,0,0,.45-0.52,5.45,5.45,0,0,0,.35-0.58l6.28-13.27a1.73,1.73,0,0,0,.15-0.48,3.25,3.25,0,0,0,0-.48,1.55,1.55,0,0,0,0-.55,3.48,3.48,0,0,0-.5-0.77h5l7,15.58a2.75,2.75,0,0,0,.32.58,4.45,4.45,0,0,0,.45.52l0.63,0.5,1,0.58h-7.3a3.28,3.28,0,0,0,.8-0.73,1.25,1.25,0,0,0,.2-0.73,2,2,0,0,0-.15-0.73l-1.83-4.13h-7.2l-1.83,4.13a2.13,2.13,0,0,0-.15.77,1.2,1.2,0,0,0,.2.7,3.57,3.57,0,0,0,.75.7H276l1-.55" transform="translate(0 -11.69)"/><path class="cls-1" d="M299.1,226.94a2.5,2.5,0,0,0,.4-0.5,2.32,2.32,0,0,0,.25-1.1V212a5.2,5.2,0,0,0,0-.65,1.52,1.52,0,0,0-.17-0.45,2.5,2.5,0,0,0-.32-0.5l-0.62-.65h6.9a10.9,10.9,0,0,1,5.63,1.2,3.78,3.78,0,0,1,1.95,3.4,3.83,3.83,0,0,1-.6,1.88,4.7,4.7,0,0,1-1.45,1.53,7.5,7.5,0,0,1-2.22,1,10.77,10.77,0,0,1-2.85.35h-1.45L304,219a7.27,7.27,0,0,0,3.85-1.25,3.27,3.27,0,0,0,1.4-2.72,2.77,2.77,0,0,0-1.15-2.33,5,5,0,0,0-3.08-.87h-1.67v13.55a2.08,2.08,0,0,0,.68,1.6,6.18,6.18,0,0,0,.7.58h-6.38l0.67-.58" transform="translate(0 -11.69)"/><path class="cls-1" d="M316.9,209.76l5.17,7.5,4-5.32a1.6,1.6,0,0,0,.35-1,1,1,0,0,0-.18-0.55,4.53,4.53,0,0,0-.62-0.7H331l-7.68,10v5.45a2.07,2.07,0,0,0,.3,1.15,4,4,0,0,0,1.12,1h-6.52a5.28,5.28,0,0,0,.73-0.58,2.5,2.5,0,0,0,.4-0.5v-0.57a2.18,2.18,0,0,0,0-.52v-5.48l-5.83-7.85-0.45-.58a4.2,4.2,0,0,0-.55-0.52l-0.58-.42-1.1-.73h5.67Z" transform="translate(0 -11.69)"/></svg>