<svg id="Layer_1" data-name="Layer 1" xmlns="http://www.w3.org/2000/svg" viewBox="0 0 400 82.05" width="400" height="250"><defs><style>.cls-1{fill:#532e60;}</style></defs><title>bowen</title><polygon class="cls-1" points="313.85 13.08 313.85 2.05 312.56 2.05 271.03 2.05 271.03 79.49 313.85 79.49 313.85 68.46 282.82 68.46 282.82 42.56 312.82 42.56 312.82 31.54 282.82 31.54 282.82 13.08 313.85 13.08"/><path class="cls-1" d="M32.31,121.67A18,18,0,0,0,39,107.82C39,93.21,29.49,86,10.26,86H0v77.44H18.72c13.08,0,27.18-5.9,27.18-22.31a20.52,20.52,0,0,0-13.59-19.49m-19.23-2.31H11.79V97.05h1.28c9,0,14.62,1.79,14.62,11s-5.64,11.28-14.62,11.28m-1.28,10h4.62c8.21,0,17.69,2.05,17.69,11.54,0,7.95-5.64,12.05-16.41,12.05h-5.9V129.36h0Z" transform="translate(0 -83.97)"/><path class="cls-1" d="M183.33,162.69c2.82-7.18,16.92-44.1,19-49,1.79,4.87,16.15,41.79,19,49h4.62L256.41,86H243.59s-17.95,46.15-20,51.54c-1.79-5.13-17.44-45.64-19.74-51.28h-3.08c-2.31,5.9-17.69,46.41-19.74,51.28C179,132.18,161,86,161,86H148.21l30.51,76.67h4.62Z" transform="translate(0 -83.97)"/><path class="cls-1" d="M343.85,162.69V109.62c3.59,3.59,42.05,43.85,50.77,53.08H400V86H388.21v53.59c-3.59-3.85-45.13-47.44-51-53.33h-5.13v76.67h11.79v-0.26Z" transform="translate(0 -83.97)"/><path class="cls-1" d="M67.69,99.36a40.48,40.48,0,0,0-9,25.64,40.92,40.92,0,0,0,20,35.38c15.64-16.92,18.21-32.56,18.21-32.56-6.41-12.05-24.87-25.38-29.23-28.46" transform="translate(0 -83.97)"/><path class="cls-1" d="M110.77,141.15C102.82,151.92,90,159.1,83.33,162.44a41.09,41.09,0,0,0,40-3.59,47.24,47.24,0,0,0-12.56-17.69" transform="translate(0 -83.97)"/><path class="cls-1" d="M135.9,105.26A41.21,41.21,0,0,0,100,84,41.78,41.78,0,0,0,71,95.77a122.53,122.53,0,0,0,24.87,11c13.08,4.1,28.46,6.15,40-1.54m-29-14.1a11.89,11.89,0,0,1,8.72,5.9c2.56,4.62,1,9.49-4.36,9-5.38-.26-9.74-5.38-10-9.74,0-3.33,2.31-5.38,5.64-5.13" transform="translate(0 -83.97)"/><path class="cls-1" d="M141,125a36.84,36.84,0,0,0-3.33-15.9c-4.87,7.95-13.08,19.74-13.08,19.74s2.82,14.1,1.79,27.44A40.89,40.89,0,0,0,141,125" transform="translate(0 -83.97)"/></svg>