<svg id="cdi" xmlns="http://www.w3.org/2000/svg" viewBox="0 0 400 171.1" width="400" height="250"><title>cdi.colors-primary-white-font</title><path class="cls-1" d="M68.08,113.9h-7v22.37h7A11.18,11.18,0,1,0,68.08,113.9Z" transform="translate(0 -39.45)"/><path class="cls-1" d="M0,79.78V210.55l120.65-40.33V39.45ZM41,113.9H34a11.27,11.27,0,0,0,0,22.53h7v13.22H34a24.49,24.49,0,1,1,0-49h7V113.9Zm27.1,35.59H48.33V100.67H68.08A24.41,24.41,0,1,1,68.08,149.49Zm42.12,0H97V100.67H110.2v48.82Z" transform="translate(0 -39.45)"/><path class="cls-1" d="M134.69,68.18H137c1.8,0,3.59.33,3.59,2.45a2.26,2.26,0,0,1-1.8,2.12h0a1.29,1.29,0,0,1,.82,1l1.63,3.59h-1.47l-1.47-3.1a1.24,1.24,0,0,0-1.47-.82H136v4.08h-1.31V68.18ZM136,72.1h1.14q2,0,2-1.47c0-.82-0.65-1.31-1.8-1.31H136V72.1Z" transform="translate(0 -39.45)"/><path class="cls-1" d="M129,72.76a8.16,8.16,0,1,0,8.16-8.16A8.08,8.08,0,0,0,129,72.76Zm1.31,0a7,7,0,1,1,7,7A7.18,7.18,0,0,1,130.29,72.76Z" transform="translate(0 -39.45)"/><path class="cls-1" d="M170.78,148.67a36.2,36.2,0,0,1-7.35,1c-10.29,0-17.47-5.22-17.47-16,0-10.94,6.69-17.14,17.47-17.14a23.08,23.08,0,0,1,7.18,1.31l-0.49,5.39a13.63,13.63,0,0,0-6.86-1.63c-6.53,0-10.78,5.06-10.78,11.59s4.08,11.43,10.78,11.43a17.37,17.37,0,0,0,7-1.31Z" transform="translate(0 -39.45)"/><path class="cls-1" d="M185.63,125c7,0,12.41,4.73,12.41,12.57,0,6.86-4.57,12.24-12.41,12.24s-12.24-5.39-12.24-12.24C173.39,129.73,178.78,125,185.63,125Zm0,19.92c4.73,0,5.88-4.24,5.88-8.16,0-3.59-2-7-5.88-7s-5.88,3.43-5.88,7C179.76,140.67,181.06,144.92,185.63,144.92Z" transform="translate(0 -39.45)"/><path class="cls-1" d="M202.94,125.65h5.39V131h0.16c0.33-2.12,2.78-5.88,6.53-5.88a6.12,6.12,0,0,1,1.8.16v6.2A6,6,0,0,0,214,131c-5.06,0-5.06,6.2-5.06,9.63v8.65h-6.2V125.65h0.16Z" transform="translate(0 -39.45)"/><path class="cls-1" d="M220.73,125.65h5.88v3.27h0.16a8,8,0,0,1,7.35-3.92c7.18,0,10,5.71,10,12.24s-2.61,12.41-10,12.41a7.94,7.94,0,0,1-6.86-3.27H227.1v12.24h-6.2v-33h-0.16Zm6,11.76c0,3.27,1.31,7.67,5.39,7.67s5.22-4.41,5.22-7.67c0-3.1-1.14-7.51-5.06-7.51S226.78,134,226.78,137.41Z" transform="translate(0 -39.45)"/><path class="cls-1" d="M259.43,125c7,0,12.41,4.73,12.41,12.57,0,6.86-4.57,12.24-12.41,12.24s-12.24-5.39-12.24-12.24C247.18,129.73,252.41,125,259.43,125Zm0,19.92c4.73,0,5.88-4.24,5.88-8.16,0-3.59-2-7-5.88-7s-5.88,3.43-5.88,7C253.55,140.67,254.69,144.92,259.43,144.92Z" transform="translate(0 -39.45)"/><path class="cls-1" d="M276.73,125.65h5.39V131h0.16c0.33-2.12,2.78-5.88,6.53-5.88a8,8,0,0,1,2,.16v6.2A6,6,0,0,0,288,131c-5.06,0-5.06,6.2-5.06,9.63v8.65h-6.2V125.65Z" transform="translate(0 -39.45)"/><path class="cls-1" d="M295.51,126.8a20.44,20.44,0,0,1,8.16-1.8c7.18,0,10.12,2.94,10.12,10v3.1c0,2.45,0,4.24.16,5.88,0,1.8.16,3.43,0.33,5.22H308.9c-0.16-1.31-.16-2.78-0.33-3.59h-0.16a8.42,8.42,0,0,1-7.35,4.08c-4.24,0-8.16-2.45-8.16-7,0-3.59,1.63-5.55,4.08-6.69,2.29-1.14,5.39-1.31,8-1.31h3.43c0-3.76-1.63-5.06-5.39-5.06a12.22,12.22,0,0,0-7.35,2.61Zm7.18,18.45a5.18,5.18,0,0,0,4.24-2.12,8.18,8.18,0,0,0,1.31-4.9h-2.61c-2.78,0-6.86.49-6.86,4.08C298.78,144.43,300.41,145.24,302.69,145.24Z" transform="translate(0 -39.45)"/><path class="cls-1" d="M321.8,130.06h-4.57v-4.41h4.57v-4.73l6.2-2v6.69h5.39v4.41H328V141c0,2,.49,3.92,2.94,3.92a4.67,4.67,0,0,0,2.78-.65l0.16,4.9a18.67,18.67,0,0,1-4.57.49c-4.73,0-7.51-2.94-7.51-7.67V130.06Z" transform="translate(0 -39.45)"/><path class="cls-1" d="M337.8,115.37H344v5.88h-6.2v-5.88Zm0,10.29H344v23.51h-6.2V125.65Z" transform="translate(0 -39.45)"/><path class="cls-1" d="M361.14,125c7,0,12.41,4.73,12.41,12.57,0,6.86-4.57,12.24-12.41,12.24s-12.24-5.39-12.24-12.24C348.9,129.73,354.29,125,361.14,125Zm0,19.92c4.73,0,5.88-4.24,5.88-8.16,0-3.59-2-7-5.88-7s-5.88,3.43-5.88,7C355.27,140.67,356.57,144.92,361.14,144.92Z" transform="translate(0 -39.45)"/><path class="cls-1" d="M378.29,125.65h5.88v3.27h0.16a8.68,8.68,0,0,1,7.67-3.76c5.55,0,8,3.92,8,9.31v14.86h-6.2V136.76c0-2.94,0-6.86-3.92-6.86-4.41,0-5.39,4.73-5.39,7.84v11.59h-6.2V125.65Z" transform="translate(0 -39.45)"/></svg>