<svg id="Layer_1" data-name="Layer 1" xmlns="http://www.w3.org/2000/svg" viewBox="0 0 400 159.89" width="400" height="250"><title>cell_staff.colors-white-font-primary</title><path class="cls-1" d="M32.34,45.05H0V77.21C8.75,68.64,20.9,56.31,32.34,45.05Z" transform="translate(0 -45.05)"/><path class="cls-1" d="M94.69,200.84c26.8-26.62,58.6-58.42,58.6-58.42q5.36-5.36,6.43-11.26v-6.07a16.73,16.73,0,0,0-.71-2.86c-2.32-7.5-7.32-15-15-22.69l-2.5-2.68C133.63,89,126.13,84,118.8,81.86c-7.32-2.32-14.11-.18-20.37,5.9L94.69,91.5,48.59,137.59A11,11,0,0,1,40,141.17a12.42,12.42,0,0,1-8.4-4.29l-0.54-.54a14.14,14.14,0,0,1-4.29-8.4,11.27,11.27,0,0,1,3.39-8.58S79.86,69.71,80,69.35c13-13,27.15-18.94,42.52-17.69,13.22,1.07,25.37,6.43,36.8,16.08V45.05H68.78L65,48.81,6.43,107.4Q1.07,112.76,0,118.66v6.07a16.73,16.73,0,0,0,.71,2.86c2.32,7.5,7.32,15,14.83,22.69l2.5,2.5c7.86,7.86,15.36,12.86,22.69,15,7.32,2.32,14.11.18,20.37-5.9l3.75-3.75L110.94,112a11,11,0,0,1,8.58-3.57,12.42,12.42,0,0,1,8.4,4.29l0.54,0.54a14.14,14.14,0,0,1,4.29,8.4,11.27,11.27,0,0,1-3.39,8.58l-50,50c-13,13-27.15,18.94-42.52,17.69C23.58,196.91,11.43,191.55,0,181.9v23H90.93A53.88,53.88,0,0,1,94.69,200.84Z" transform="translate(0 -45.05)"/><path class="cls-1" d="M127.38,204.59h32.34V172.43C151,181.19,138.63,193.33,127.38,204.59Z" transform="translate(0 -45.05)"/><path class="cls-1" d="M205.45,132.24c-4.29,0-7.5,1.43-9.83,4.11s-3.57,6.43-3.57,11.08a17.33,17.33,0,0,0,3.57,11.26,12.35,12.35,0,0,0,9.83,4.29c5.36,0,9.29-2.68,12-7.86l4.29,2.14a17.05,17.05,0,0,1-16.44,10,20.19,20.19,0,0,1-10-2.32,15.72,15.72,0,0,1-6.43-6.79,24.13,24.13,0,0,1-2.14-10.54c0-6.07,1.61-10.9,5-14.29,3.22-3.39,7.86-5.18,13.58-5.18,4.11,0,7.5.71,10.18,2.32a15.48,15.48,0,0,1,6.07,7L216.7,139a9.85,9.85,0,0,0-4.29-5A12.66,12.66,0,0,0,205.45,132.24Z" transform="translate(0 -45.05)"/><path class="cls-1" d="M231.53,153c0,3.39.71,5.9,2.14,7.68a7.25,7.25,0,0,0,6.07,2.68,8.31,8.31,0,0,0,5-1.25,6.14,6.14,0,0,0,2.5-3.22l4.29,1.25c-1.79,4.64-5.72,7-12,7-4.29,0-7.68-1.25-9.83-3.93-2.32-2.5-3.39-6.43-3.39-11.43,0-4.82,1.07-8.58,3.39-11.08a12.63,12.63,0,0,1,9.65-3.93q12.86,0,12.86,15.54V153H231.53Zm15.9-3.57c-0.36-3-1.07-5.36-2.32-6.79a7.13,7.13,0,0,0-5.54-2.14,6.68,6.68,0,0,0-5.54,2.32,9.32,9.32,0,0,0-2.14,6.43h15.54v0.18Z" transform="translate(0 -45.05)"/><path class="cls-1" d="M258.51,166.54v-40h4.82v40h-4.82Z" transform="translate(0 -45.05)"/><path class="cls-1" d="M270.84,166.54v-40h4.82v40h-4.82Z" transform="translate(0 -45.05)"/><path class="cls-1" d="M321.57,156.17a9.61,9.61,0,0,1-4.11,8.22c-2.68,2-6.61,2.86-11.61,2.86q-13.93,0-16.08-9.65l5-1.07a7.24,7.24,0,0,0,3.75,5,15.36,15.36,0,0,0,7.68,1.61c3.39,0,5.9-.54,7.68-1.79a5.55,5.55,0,0,0,2.68-5,5.11,5.11,0,0,0-.89-3,8.46,8.46,0,0,0-2.32-2,18.46,18.46,0,0,0-3.75-1.25c-1.43-.36-3-0.71-4.64-1.07a36.33,36.33,0,0,1-6.79-2,17.42,17.42,0,0,1-3.75-2.14,10.9,10.9,0,0,1-2.14-2.86,8.29,8.29,0,0,1-.71-3.75,8.69,8.69,0,0,1,3.75-7.5q3.75-2.68,10.72-2.68c4.29,0,7.68.71,9.83,2,2.32,1.25,3.93,3.57,4.82,6.79l-5,.89a7.51,7.51,0,0,0-3.22-4.47,13.19,13.19,0,0,0-6.43-1.43,14.49,14.49,0,0,0-7,1.43,4.94,4.94,0,0,0-2.32,4.47,4.55,4.55,0,0,0,.89,2.86,6.53,6.53,0,0,0,2.68,2,40.65,40.65,0,0,0,7,2c1.25,0.36,2.32.54,3.57,0.89a18.87,18.87,0,0,1,3.39,1.07,15.84,15.84,0,0,1,3,1.43,13.49,13.49,0,0,1,2.5,2,6.73,6.73,0,0,1,1.61,2.68C321.39,153.49,321.57,154.75,321.57,156.17Z" transform="translate(0 -45.05)"/><path class="cls-1" d="M339.08,166.36a22.52,22.52,0,0,1-5,.71c-3.93,0-5.9-2.14-5.9-6.61V141h-3.39v-3.57h3.57l1.43-6.61H333v6.61h5.36V141H333v18.4a4.78,4.78,0,0,0,.71,3,3.09,3.09,0,0,0,2.32.89,24.47,24.47,0,0,0,2.86-.36v3.39h0.18Z" transform="translate(0 -45.05)"/><path class="cls-1" d="M350.69,167.07c-2.86,0-5.18-.71-6.61-2.32a9.32,9.32,0,0,1-2.14-6.43,8.54,8.54,0,0,1,3-7q2.95-2.41,9.65-2.68l6.61-.18v-1.61a8.15,8.15,0,0,0-1.43-5.18A6.55,6.55,0,0,0,355,140.1a8.77,8.77,0,0,0-4.82,1.07,4.64,4.64,0,0,0-1.79,3.57l-5-.54c0.89-5.18,4.82-7.86,11.79-7.86,3.75,0,6.43.89,8.22,2.5a9.53,9.53,0,0,1,2.86,7.32v12.51a7.46,7.46,0,0,0,.54,3.22,2.16,2.16,0,0,0,2.14,1.07,5,5,0,0,0,1.61-.18v3.75a13.38,13.38,0,0,1-3.75.36,5.26,5.26,0,0,1-3.93-1.43c-0.89-.89-1.25-2.5-1.43-4.47h-0.54a14.3,14.3,0,0,1-4.29,4.82A12,12,0,0,1,350.69,167.07Zm1.07-3.57a8.85,8.85,0,0,0,4.82-1.25,8.38,8.38,0,0,0,3.22-3.39,9.81,9.81,0,0,0,1.25-4.29v-2.32l-5.36.18a17,17,0,0,0-5.18.71,4.45,4.45,0,0,0-2.68,2,5.62,5.62,0,0,0-.89,3.57A4.17,4.17,0,0,0,351.76,163.5Z" transform="translate(0 -45.05)"/><path class="cls-1" d="M380,141v25.55h-4.82V141h-4.11v-3.57h4.11V134.2c0-2.68.54-4.64,1.79-5.72a7.22,7.22,0,0,1,5.36-1.79,16.44,16.44,0,0,1,3.39.36v3.75a10.25,10.25,0,0,0-2.14-.18,3.7,3.7,0,0,0-2.68.89,5.52,5.52,0,0,0-.89,3.39v2.68h5.72v3.57H380V141Z" transform="translate(0 -45.05)"/><path class="cls-1" d="M394.28,141v25.55h-4.82V141h-4.11v-3.57h4.11V134.2c0-2.68.54-4.64,1.79-5.72a7.22,7.22,0,0,1,5.36-1.79,16.44,16.44,0,0,1,3.39.36v3.75a10.25,10.25,0,0,0-2.14-.18,3.7,3.7,0,0,0-2.68.89,5.52,5.52,0,0,0-.89,3.39v2.68H400v3.57h-5.72V141Z" transform="translate(0 -45.05)"/></svg>