<svg id="Horizontal_Logo_Green_Blue" data-name="Horizontal Logo Green Blue" xmlns="http://www.w3.org/2000/svg" xmlns:xlink="http://www.w3.org/1999/xlink" viewBox="0 0 400 79.1" width="400" height="77"><defs><style>.cls-1{fill:none;}.cls-2{fill:#fff;}.cls-3{clip-path:url(#clip-path);}.cls-4{fill:#95d7e3;}.cls-5{fill:#92d6e3;}.cls-6{fill:#8fd6e4;}.cls-7{fill:#8cd5e4;}.cls-8{fill:#89d4e4;}.cls-9{fill:#86d3e4;}.cls-10{fill:#83d2e4;}.cls-11{fill:#80d1e4;}.cls-12{fill:#7cd1e5;}.cls-13{fill:#79d0e5;}.cls-14{fill:#76cfe5;}.cls-15{fill:#72cee5;}.cls-16{fill:#6fcde5;}.cls-17{fill:#6bcde5;}.cls-18{fill:#68cce5;}.cls-19{fill:#64cbe6;}.cls-20{fill:#60cae6;}.cls-21{fill:#5cc9e6;}.cls-22{fill:#58c9e6;}.cls-23{fill:#54c8e6;}.cls-24{fill:#4fc7e6;}.cls-25{fill:#4ac6e6;}.cls-26{fill:#45c6e7;}.cls-27{fill:#3fc5e7;}.cls-28{fill:#39c4e7;}.cls-29{fill:#32c4e7;}.cls-30{fill:#2ac3e7;}.cls-31{fill:#20c2e7;}.cls-32{fill:#12c1e8;}.cls-33{fill:#00c1e8;}.cls-34{fill:#00c0e8;}.cls-35{fill:#00bfe8;}.cls-36{fill:#00bee8;}.cls-37{fill:#00bde9;}.cls-38{fill:#00bce9;}.cls-39{fill:#00bbe9;}.cls-40{fill:#00bae9;}.cls-41{fill:#00b9ea;}.cls-42{fill:#00b8ea;}.cls-43{fill:#00b7ea;}.cls-44{fill:#00b6ea;}.cls-45{fill:#00b5eb;}.cls-46{fill:#00b4eb;}.cls-47{fill:#00b3ec;}.cls-48{fill:#00b2ec;}.cls-49{fill:#00b1ec;}.cls-50{fill:#00b1ed;}.cls-51{fill:#00b0ed;}.cls-52{fill:#00afee;}.cls-53{fill:#00aeef;}.cls-54{opacity:0.75;}.cls-55{clip-path:url(#clip-path-61);}.cls-56{fill:#cbdb2a;}.cls-57{fill:#c8da2b;}.cls-58{fill:#c6d92d;}.cls-59{fill:#c3d82e;}.cls-60{fill:#c1d82f;}.cls-61{fill:#bed730;}.cls-62{fill:#bcd631;}.cls-63{fill:#bad532;}.cls-64{fill:#b7d433;}.cls-65{fill:#b5d334;}.cls-66{fill:#b2d235;}.cls-67{fill:#afd136;}.cls-68{fill:#add136;}.cls-69{fill:#aad037;}.cls-70{fill:#a8cf38;}.cls-71{fill:#a5ce39;}.cls-72{fill:#a3cd3a;}.cls-73{fill:#a0cc3a;}.cls-74{fill:#9ecc3b;}.cls-75{fill:#9bcb3c;}.cls-76{fill:#99ca3c;}.cls-77{fill:#96c93d;}.cls-78{fill:#93c83e;}.cls-79{fill:#91c83e;}.cls-80{fill:#8ec73f;}.cls-81{fill:#8bc63f;}.cls-82{fill:#89c540;}.cls-83{fill:#86c440;}.cls-84{fill:#83c441;}.cls-85{fill:#81c341;}.cls-86{fill:#7ec242;}.cls-87{fill:#7bc142;}.cls-88{fill:#78c143;}.cls-89{fill:#76c043;}.cls-90{fill:#72bf44;}.cls-91{fill:#6fbe44;}.cls-92{fill:#6cbe45;}.cls-93{fill:#69bd45;}.cls-94{fill:#66bc46;}.cls-95{fill:#63bc46;}.cls-96{fill:#5fbb46;}.cls-97{fill:#5cba47;}.cls-98{fill:#58b947;}.cls-99{fill:#54b948;}.cls-100{fill:#51b848;}.cls-101{fill:#4db748;}.cls-102{fill:#48b749;}.cls-103{fill:#43b649;}.cls-104{fill:#3eb549;}.cls-105{opacity:0.95;}.cls-106{clip-path:url(#clip-path-112);}.cls-107{fill:#d7df23;}.cls-108{fill:#d4de25;}.cls-109{fill:#d1dd26;}.cls-110{fill:#cedb27;}.cls-111{fill:#cbda29;}.cls-112{fill:#c8d92a;}.cls-113{fill:#c6d82b;}.cls-114{fill:#c3d62c;}.cls-115{fill:#c0d52d;}.cls-116{fill:#bdd42e;}.cls-117{fill:#bbd32f;}.cls-118{fill:#b8d230;}.cls-119{fill:#b5d131;}.cls-120{fill:#b3cf32;}.cls-121{fill:#b0ce33;}.cls-122{fill:#adcd34;}.cls-123{fill:#abcc34;}.cls-124{fill:#a8cb35;}.cls-125{fill:#a5ca36;}.cls-126{fill:#a3c936;}.cls-127{fill:#a0c837;}.cls-128{fill:#9dc738;}.cls-129{fill:#9bc638;}.cls-130{fill:#98c539;}.cls-131{fill:#95c43a;}.cls-132{fill:#93c33a;}.cls-133{fill:#90c23b;}.cls-134{fill:#8dc13b;}.cls-135{fill:#8bc03c;}.cls-136{fill:#88bf3c;}.cls-137{fill:#85be3d;}.cls-138{fill:#83bd3d;}.cls-139{fill:#80bc3e;}.cls-140{fill:#7dbb3e;}.cls-141{fill:#7abb3f;}.cls-142{fill:#78ba3f;}.cls-143{fill:#75b93f;}.cls-144{fill:#72b840;}.cls-145{fill:#6fb740;}.cls-146{fill:#6cb641;}.cls-147{fill:#69b541;}.cls-148{fill:#66b441;}.cls-149{fill:#63b442;}</style><clipPath id="clip-path" transform="translate(0 0.13)"><path class="cls-1" d="M49.7,50.16H31.17c-1.76,0-2.65-.88-2.65-2.35V31.93l-7.06-.59C19.41,31,19.7,29.87,20,28.69l1.18-3.82L25.88,8.4H15C4.71,8.4,1.47,12.22.29,21.34,0,23.69,0,29,0,31.63c0,2.06,0,7.94.29,10C.88,51.92,3.82,56.92,15,56.92h7.35V73.68c0,5.29,3.53,3.23,7.35-1.18L43.82,56.63H56.17Z"/></clipPath><clipPath id="clip-path-61" transform="translate(0 0.13)"><path class="cls-1" d="M86.75,13.11C85.87,4,82.34.17,72,.17H30c-1.47,0-2.06,1.18-2.35,2.65L25.88,8.11H62c1.47,0,2.06,1.18,2.35,2.65l6.47,20.58L72,35.16c.29,1.18.59,2.35-1.47,2.65l-7.06.59V54.28c0,1.47-.88,2.35-2.65,2.35H55.58l7.94,8.82c3.53,4.12,7.35,6.47,7.35,1.18V49.86H72c11.17,0,14.11-5,14.7-15.29,0-2.06.29-7.65.29-10S87,15.46,86.75,13.11Z"/></clipPath><clipPath id="clip-path-112" transform="translate(0 0.13)"><path class="cls-1" d="M63.52,54.57V38.69l7.06-.59c2.06-.29,1.76-1.47,1.47-2.65l-1.18-3.82L64.4,11C63.81,9.58,63.52,8.4,62,8.4H25.88L21.17,24.57,20,28.4c-.29,1.18-.59,2.35,1.47,2.65l7.06.59V47.51c0,1.47.88,2.35,2.65,2.35H49.7l6.18,6.76h5.29C62.64,56.63,63.52,56,63.52,54.57Z"/></clipPath></defs><title>clinicient</title><path class="cls-2" d="M86.75,13.11C85.87,4,82.34.17,72,.17H30c-1.47,0-2.06,1.18-2.35,2.65L25.88,8.11H15C4.71,8.11,1.47,11.93.29,21,0,23.69,0,29,0,31.63c0,2.06,0,7.94.29,10C.88,51.92,3.82,56.92,15,56.92h7.35V73.68c0,5.29,3.53,3.23,7.35-1.18L43.82,56.63H56.17l7.94,8.82c3.53,4.12,7.35,6.47,7.35,1.18V49.86h1.18c11.17,0,14.11-5,14.7-15.29,0-2.06.29-7.65.29-10C87,22.22,87,15.46,86.75,13.11Z" transform="translate(0 0.13)"/><g class="cls-3"><path class="cls-4" d="M0,34.57,26.17,79H0Z" transform="translate(0 0.13)"/></g><g class="cls-3"><path class="cls-4" d="M0,33.4,26.76,79h-.59L0,34.57Z" transform="translate(0 0.13)"/></g><g class="cls-3"><path class="cls-5" d="M0,31.93,27.35,78.68l-.59.29L0,33.4Z" transform="translate(0 0.13)"/></g><g class="cls-3"><path class="cls-6" d="M0,30.75,27.94,78.39l-.59.29L0,31.93Z" transform="translate(0 0.13)"/></g><g class="cls-3"><path class="cls-7" d="M0,29.57,28.52,78.09l-.59.29L0,30.75Z" transform="translate(0 0.13)"/></g><g class="cls-3"><path class="cls-8" d="M0,28.4,28.82,77.51l-.29.59L0,29.57Z" transform="translate(0 0.13)"/></g><g class="cls-3"><path class="cls-9" d="M0,27.22l29.41,50-.59.29L0,28.4Z" transform="translate(0 0.13)"/></g><g class="cls-3"><path class="cls-10" d="M0,26,30,76.92l-.59.29L0,27.22Z" transform="translate(0 0.13)"/></g><g class="cls-3"><path class="cls-11" d="M0,24.87,30.58,76.62l-.59.29L0,26Z" transform="translate(0 0.13)"/></g><g class="cls-3"><path class="cls-12" d="M0,23.4,31.17,76.33l-.59.29L0,24.87Z" transform="translate(0 0.13)"/></g><g class="cls-3"><path class="cls-13" d="M0,22.22,31.46,76l-.29.29L0,23.4Z" transform="translate(0 0.13)"/></g><g class="cls-3"><path class="cls-14" d="M0,21l32.05,54.7-.59.29L0,22.22Z" transform="translate(0 0.13)"/></g><g class="cls-3"><path class="cls-15" d="M0,19.87,32.64,75.45l-.59.29L0,21Z" transform="translate(0 0.13)"/></g><g class="cls-3"><path class="cls-16" d="M0,18.69,33.23,75.15l-.59.29L0,19.87Z" transform="translate(0 0.13)"/></g><g class="cls-3"><path class="cls-17" d="M0,17.52,33.82,74.86l-.59.29L0,18.69Z" transform="translate(0 0.13)"/></g><g class="cls-3"><path class="cls-18" d="M0,16.34,34.11,74.57l-.29.29L0,17.52Z" transform="translate(0 0.13)"/></g><g class="cls-3"><path class="cls-19" d="M0,14.87l34.7,59.4-.59.29L0,16.34Z" transform="translate(0 0.13)"/></g><g class="cls-3"><path class="cls-20" d="M0,13.69,35.29,74l-.59.29L0,14.87Z" transform="translate(0 0.13)"/></g><g class="cls-3"><path class="cls-21" d="M0,12.52,35.88,73.68l-.59.29L0,13.69Z" transform="translate(0 0.13)"/></g><g class="cls-3"><path class="cls-22" d="M0,11.34l36.46,62-.59.29L0,12.52Z" transform="translate(0 0.13)"/></g><g class="cls-3"><path class="cls-23" d="M0,10.17,37.05,72.8l-.59.59L0,11.34Z" transform="translate(0 0.13)"/></g><g class="cls-3"><path class="cls-24" d="M0,9,37.35,72.51l-.29.29L0,10.17Z" transform="translate(0 0.13)"/></g><g class="cls-3"><path class="cls-25" d="M0,8.4l.29-.29L37.93,72.21l-.59.29L0,9Z" transform="translate(0 0.13)"/></g><g class="cls-3"><path class="cls-26" d="M.29,8.11H.88L38.52,71.92l-.59.29Z" transform="translate(0 0.13)"/></g><g class="cls-3"><path class="cls-27" d="M1.76,8.11,39.11,71.62l-.59.29L.88,8.11Z" transform="translate(0 0.13)"/></g><g class="cls-3"><path class="cls-28" d="M2.35,8.11,39.7,71.33l-.59.29L1.76,8.11Z" transform="translate(0 0.13)"/></g><g class="cls-3"><path class="cls-29" d="M3.23,8.11,40,71l-.29.29L2.35,8.11Z" transform="translate(0 0.13)"/></g><g class="cls-3"><path class="cls-30" d="M3.82,8.11,40.58,70.74,40,71,3.23,8.11Z" transform="translate(0 0.13)"/></g><g class="cls-3"><path class="cls-31" d="M4.71,8.11,41.17,70.45l-.59.29L3.82,8.11Z" transform="translate(0 0.13)"/></g><g class="cls-3"><path class="cls-32" d="M5.29,8.11l36.46,62-.59.29L4.71,8.11Z" transform="translate(0 0.13)"/></g><g class="cls-3"><path class="cls-33" d="M5.88,8.11,42.35,69.86l-.59.29L5.29,8.11Z" transform="translate(0 0.13)"/></g><g class="cls-3"><path class="cls-34" d="M6.76,8.11,42.64,69.57l-.29.29L5.88,8.11Z" transform="translate(0 0.13)"/></g><g class="cls-3"><path class="cls-35" d="M7.35,8.11,43.23,69.27l-.59.29L6.76,8.11Z" transform="translate(0 0.13)"/></g><g class="cls-3"><path class="cls-36" d="M8.23,8.11,43.82,69l-.59.29L7.35,8.11Z" transform="translate(0 0.13)"/></g><g class="cls-3"><path class="cls-36" d="M8.82,8.11,44.4,68.68l-.59.29L8.23,8.11Z" transform="translate(0 0.13)"/></g><g class="cls-3"><path class="cls-37" d="M9.7,8.11,45,68.39l-.59.29L8.82,8.11Z" transform="translate(0 0.13)"/></g><g class="cls-3"><path class="cls-38" d="M10.29,8.11,45.58,67.8l-.59.59L9.7,8.11Zm.88,0,34.7,59.4-.29.29L10.29,8.11Z" transform="translate(0 0.13)"/></g><g class="cls-3"><path class="cls-39" d="M11.76,8.11l34.7,59.11-.59.29L11.17,8.11Z" transform="translate(0 0.13)"/></g><g class="cls-3"><path class="cls-40" d="M12.35,8.11l34.7,58.81-.59.29L11.76,8.11Z" transform="translate(0 0.13)"/></g><g class="cls-3"><path class="cls-40" d="M13.23,8.11,47.64,66.63l-.59.29L12.35,8.11Z" transform="translate(0 0.13)"/></g><g class="cls-3"><path class="cls-41" d="M13.82,8.11,48.23,66.33l-.59.29L13.23,8.11Z" transform="translate(0 0.13)"/></g><g class="cls-3"><path class="cls-42" d="M14.7,8.11,48.52,66l-.29.29L13.82,8.11Z" transform="translate(0 0.13)"/></g><g class="cls-3"><path class="cls-42" d="M15.29,8.11,49.11,65.74l-.59.29L14.7,8.11Z" transform="translate(0 0.13)"/></g><g class="cls-3"><path class="cls-43" d="M16.17,8.11,49.7,65.45l-.59.29L15.29,8.11Zm.59,0,33.52,57-.59.29L16.17,8.11Z" transform="translate(0 0.13)"/></g><g class="cls-3"><path class="cls-44" d="M17.35,8.11,50.87,64.86l-.59.29-33.52-57Z" transform="translate(0 0.13)"/></g><g class="cls-3"><path class="cls-45" d="M18.23,8.11,51.17,64.57l-.29.29L17.35,8.11Zm.59,0L51.76,64.27l-.59.29L18.23,8.11Z" transform="translate(0 0.13)"/></g><g class="cls-3"><path class="cls-46" d="M19.7,8.11,52.34,64l-.59.29L18.82,8.11Z" transform="translate(0 0.13)"/></g><g class="cls-3"><path class="cls-46" d="M20.29,8.11,52.93,63.69l-.59.29L19.7,8.11Z" transform="translate(0 0.13)"/></g><g class="cls-3"><path class="cls-47" d="M21.17,8.11l32.35,55-.59.59L20.29,8.11Z" transform="translate(0 0.13)"/></g><g class="cls-3"><path class="cls-48" d="M21.76,8.11,54.11,62.8l-.59.29-32.35-55Z" transform="translate(0 0.13)"/></g><g class="cls-3"><path class="cls-48" d="M22.64,8.11,54.4,62.51l-.29.29L21.76,8.11Z" transform="translate(0 0.13)"/></g><g class="cls-3"><path class="cls-49" d="M23.23,8.11,55,62.21l-.59.29L22.64,8.11Z" transform="translate(0 0.13)"/></g><g class="cls-3"><path class="cls-50" d="M23.82,8.11,55.58,61.92l-.59.29L23.23,8.11Z" transform="translate(0 0.13)"/></g><g class="cls-3"><path class="cls-51" d="M24.7,8.11,55.58,61v.88L23.82,8.11Z" transform="translate(0 0.13)"/></g><g class="cls-3"><path class="cls-51" d="M25.29,8.11,55.58,59.86V61L24.7,8.11Z" transform="translate(0 0.13)"/></g><g class="cls-3"><path class="cls-52" d="M26.17,8.11,55.58,58.39v1.47L25.29,8.11Z" transform="translate(0 0.13)"/></g><g class="cls-3"><path class="cls-52" d="M26.76,8.11,55.58,57.22v1.18L26.17,8.11Z" transform="translate(0 0.13)"/></g><g class="cls-3"><path class="cls-53" d="M27.64,8.11,55.58,56v1.18L26.76,8.11Z" transform="translate(0 0.13)"/></g><g class="cls-3"><path class="cls-53" d="M28.23,8.11,55.58,54.86V56L27.64,8.11Z" transform="translate(0 0.13)"/></g><g class="cls-3"><path class="cls-53" d="M55.58,54.86,28.23,8.11H55.58Z" transform="translate(0 0.13)"/></g><g class="cls-54"><g class="cls-55"><path class="cls-56" d="M35.29-.13,76.46,71.62l-1.18.59H25.88V-.13Z" transform="translate(0 0.13)"/></g><g class="cls-55"><path class="cls-56" d="M36.17-.13,77.34,71.33l-.88.29L35.29-.13Z" transform="translate(0 0.13)"/></g><g class="cls-55"><path class="cls-57" d="M37.05-.13,77.93,70.74l-.59.59L36.17-.13Z" transform="translate(0 0.13)"/></g><g class="cls-55"><path class="cls-58" d="M37.93-.13,78.51,70.45l-.59.29L37.05-.13Z" transform="translate(0 0.13)"/></g><g class="cls-55"><path class="cls-59" d="M38.82-.13,79.4,70.15l-.88.29L37.93-.13Z" transform="translate(0 0.13)"/></g><g class="cls-55"><path class="cls-60" d="M39.7-.13,80,69.57l-.59.59L38.82-.13Z" transform="translate(0 0.13)"/></g><g class="cls-55"><path class="cls-61" d="M40.58-.13l40,69.4-.59.29L39.7-.13Z" transform="translate(0 0.13)"/></g><g class="cls-55"><path class="cls-62" d="M41.46-.13,81.16,69l-.59.29-40-69.4Z" transform="translate(0 0.13)"/></g><g class="cls-55"><path class="cls-63" d="M42.35-.13,82,68.39l-.88.59L41.46-.13Z" transform="translate(0 0.13)"/></g><g class="cls-55"><path class="cls-64" d="M43.23-.13,82.63,68.1l-.59.29L42.35-.13Z" transform="translate(0 0.13)"/></g><g class="cls-55"><path class="cls-65" d="M44.11-.13,83.22,67.8l-.59.29L43.23-.13Z" transform="translate(0 0.13)"/></g><g class="cls-55"><path class="cls-66" d="M45-.13,84.1,67.21l-.88.59L44.11-.13Z" transform="translate(0 0.13)"/></g><g class="cls-55"><path class="cls-67" d="M45.87-.13l38.82,67-.59.29L45-.13Z" transform="translate(0 0.13)"/></g><g class="cls-55"><path class="cls-68" d="M46.76-.13,85.28,66.63l-.59.29L45.87-.13Z" transform="translate(0 0.13)"/></g><g class="cls-55"><path class="cls-69" d="M47.93-.13,86.16,66l-.88.59L46.76-.13Z" transform="translate(0 0.13)"/></g><g class="cls-55"><path class="cls-70" d="M48.81-.13,86.75,65.74l-.59.29L47.93-.13Z" transform="translate(0 0.13)"/></g><g class="cls-55"><path class="cls-71" d="M49.7-.13,87,64.86v.59l-.29.29L48.81-.13Z" transform="translate(0 0.13)"/></g><g class="cls-55"><path class="cls-72" d="M50.58-.13,87,63.39v1.47L49.7-.13Z" transform="translate(0 0.13)"/></g><g class="cls-55"><path class="cls-73" d="M51.46-.13,87,61.63v1.76L50.58-.13Z" transform="translate(0 0.13)"/></g><g class="cls-55"><path class="cls-74" d="M52.34-.13,87,60.16v1.47L51.46-.13Z" transform="translate(0 0.13)"/></g><g class="cls-55"><path class="cls-75" d="M53.23-.13,87,58.69v1.47L52.34-.13Z" transform="translate(0 0.13)"/></g><g class="cls-55"><path class="cls-76" d="M54.11-.13,87,56.92v1.76L53.23-.13Z" transform="translate(0 0.13)"/></g><g class="cls-55"><path class="cls-77" d="M55-.13,87,55.45v1.47L54.11-.13Z" transform="translate(0 0.13)"/></g><g class="cls-55"><path class="cls-78" d="M55.87-.13,87,54v1.47L55-.13Z" transform="translate(0 0.13)"/></g><g class="cls-55"><path class="cls-79" d="M56.75-.13,87,52.22V54L55.87-.13Z" transform="translate(0 0.13)"/></g><g class="cls-55"><path class="cls-80" d="M57.64-.13,87,50.75v1.47L56.75-.13Z" transform="translate(0 0.13)"/></g><g class="cls-55"><path class="cls-81" d="M58.52-.13,87,49.28v1.47L57.64-.13Z" transform="translate(0 0.13)"/></g><g class="cls-55"><path class="cls-82" d="M59.4-.13,87,47.51v1.76L58.52-.13Z" transform="translate(0 0.13)"/></g><g class="cls-55"><path class="cls-83" d="M60.58-.13,87,46v1.47L59.4-.13Z" transform="translate(0 0.13)"/></g><g class="cls-55"><path class="cls-84" d="M61.46-.13,87,44.57V46L60.58-.13Z" transform="translate(0 0.13)"/></g><g class="cls-55"><path class="cls-85" d="M62.34-.13,87,42.81v1.76L61.46-.13Z" transform="translate(0 0.13)"/></g><g class="cls-55"><path class="cls-86" d="M63.22-.13,87,41.34v1.47L62.34-.13Z" transform="translate(0 0.13)"/></g><g class="cls-55"><path class="cls-87" d="M64.11-.13,87,39.87v1.47L63.22-.13Z" transform="translate(0 0.13)"/></g><g class="cls-55"><path class="cls-88" d="M65-.13,87,38.1v1.76L64.11-.13Z" transform="translate(0 0.13)"/></g><g class="cls-55"><path class="cls-89" d="M65.87-.13,87,36.63V38.1L65-.13Z" transform="translate(0 0.13)"/></g><g class="cls-55"><path class="cls-90" d="M66.75-.13,87,35.16v1.47L65.87-.13Z" transform="translate(0 0.13)"/></g><g class="cls-55"><path class="cls-91" d="M67.63-.13,87,33.4v1.76L66.75-.13Z" transform="translate(0 0.13)"/></g><g class="cls-55"><path class="cls-92" d="M68.52-.13,87,31.93V33.4L67.63-.13Z" transform="translate(0 0.13)"/></g><g class="cls-55"><path class="cls-93" d="M69.4-.13,87,30.46v1.47L68.52-.13Z" transform="translate(0 0.13)"/></g><g class="cls-55"><path class="cls-94" d="M70.28-.13,87,28.69v1.76L69.4-.13Z" transform="translate(0 0.13)"/></g><g class="cls-55"><path class="cls-95" d="M71.16-.13,87,27.22v1.47L70.28-.13Z" transform="translate(0 0.13)"/></g><g class="cls-55"><path class="cls-96" d="M72.34-.13,87,25.75v1.47L71.16-.13Z" transform="translate(0 0.13)"/></g><g class="cls-55"><path class="cls-97" d="M73.22-.13,87,24.28v1.47L72.34-.13Z" transform="translate(0 0.13)"/></g><g class="cls-55"><path class="cls-98" d="M74.1-.13,87,22.52v1.76L73.22-.13Z" transform="translate(0 0.13)"/></g><g class="cls-55"><path class="cls-99" d="M75-.13,87,21v1.47L74.1-.13Z" transform="translate(0 0.13)"/></g><g class="cls-55"><path class="cls-100" d="M75.87-.13,87,19.58V21L75-.13Z" transform="translate(0 0.13)"/></g><g class="cls-55"><path class="cls-101" d="M76.75-.13,87,17.81v1.76L75.87-.13Z" transform="translate(0 0.13)"/></g><g class="cls-55"><path class="cls-102" d="M77.63-.13,87,16.34v1.47L76.75-.13Z" transform="translate(0 0.13)"/></g><g class="cls-55"><path class="cls-103" d="M78.51-.13l8.53,15v1.47L77.63-.13Z" transform="translate(0 0.13)"/></g><g class="cls-55"><path class="cls-104" d="M79.4-.13,87,13.11v1.76l-8.53-15Z" transform="translate(0 0.13)"/></g><g class="cls-55"><path class="cls-104" d="M87,13.11,79.4-.13H87Z" transform="translate(0 0.13)"/></g></g><g class="cls-105"><g class="cls-106"><path class="cls-107" d="M19.11,8.11H30V56.92H19.11ZM30,8.11h.88V56.92H30Z" transform="translate(0 0.13)"/></g><g class="cls-106"><path class="cls-108" d="M30.88,8.11h.88V56.92h-.88Z" transform="translate(0 0.13)"/></g><g class="cls-106"><path class="cls-109" d="M31.76,8.11h.88V56.92h-.88Z" transform="translate(0 0.13)"/></g><g class="cls-106"><path class="cls-110" d="M32.64,8.11h.88V56.92h-.88Z" transform="translate(0 0.13)"/></g><g class="cls-106"><path class="cls-111" d="M33.52,8.11h.88V56.92h-.88Z" transform="translate(0 0.13)"/></g><g class="cls-106"><path class="cls-112" d="M34.41,8.11h.88V56.92h-.88Z" transform="translate(0 0.13)"/></g><g class="cls-106"><path class="cls-113" d="M35.29,8.11h.88V56.92h-.88Z" transform="translate(0 0.13)"/></g><g class="cls-106"><path class="cls-114" d="M36.17,8.11h.88V56.92h-.88Z" transform="translate(0 0.13)"/></g><g class="cls-106"><path class="cls-115" d="M37.05,8.11h.88V56.92h-.88Z" transform="translate(0 0.13)"/></g><g class="cls-106"><path class="cls-116" d="M37.93,8.11h.88V56.92h-.88Z" transform="translate(0 0.13)"/></g><g class="cls-106"><path class="cls-117" d="M38.82,8.11h.88V56.92h-.88Z" transform="translate(0 0.13)"/></g><g class="cls-106"><path class="cls-118" d="M40,8.11h.88V56.92H40Z" transform="translate(0 0.13)"/></g><g class="cls-106"><path class="cls-119" d="M40.87,8.11h.88V56.92h-.88Z" transform="translate(0 0.13)"/></g><g class="cls-106"><path class="cls-120" d="M41.76,8.11h.88V56.92h-.88Z" transform="translate(0 0.13)"/></g><g class="cls-106"><path class="cls-121" d="M42.64,8.11h.88V56.92h-.88Z" transform="translate(0 0.13)"/></g><g class="cls-106"><path class="cls-122" d="M43.52,8.11h.88V56.92h-.88Z" transform="translate(0 0.13)"/></g><g class="cls-106"><path class="cls-123" d="M44.4,8.11h.88V56.92H44.4Z" transform="translate(0 0.13)"/></g><g class="cls-106"><path class="cls-124" d="M45.29,8.11h.88V56.92h-.88Z" transform="translate(0 0.13)"/></g><g class="cls-106"><path class="cls-125" d="M46.17,8.11h.88V56.92h-.88Z" transform="translate(0 0.13)"/></g><g class="cls-106"><path class="cls-126" d="M47.05,8.11h.88V56.92h-.88Z" transform="translate(0 0.13)"/></g><g class="cls-106"><path class="cls-127" d="M47.93,8.11h.88V56.92h-.88Z" transform="translate(0 0.13)"/></g><g class="cls-106"><path class="cls-128" d="M48.81,8.11h.88V56.92h-.88Z" transform="translate(0 0.13)"/></g><g class="cls-106"><path class="cls-129" d="M49.7,8.11h.88V56.92H49.7Z" transform="translate(0 0.13)"/></g><g class="cls-106"><path class="cls-130" d="M50.58,8.11h.88V56.92h-.88Z" transform="translate(0 0.13)"/></g><g class="cls-106"><path class="cls-131" d="M51.46,8.11h.88V56.92h-.88Z" transform="translate(0 0.13)"/></g><g class="cls-106"><path class="cls-132" d="M52.64,8.11h.88V56.92h-.88Z" transform="translate(0 0.13)"/></g><g class="cls-106"><path class="cls-133" d="M53.52,8.11h.88V56.92h-.88Z" transform="translate(0 0.13)"/></g><g class="cls-106"><path class="cls-134" d="M54.4,8.11h.88V56.92H54.4Z" transform="translate(0 0.13)"/></g><g class="cls-106"><path class="cls-135" d="M55.28,8.11h.88V56.92h-.88Z" transform="translate(0 0.13)"/></g><g class="cls-106"><path class="cls-136" d="M56.17,8.11H57V56.92h-.88Z" transform="translate(0 0.13)"/></g><g class="cls-106"><path class="cls-137" d="M57,8.11h.88V56.92H57Z" transform="translate(0 0.13)"/></g><g class="cls-106"><path class="cls-138" d="M57.93,8.11h.88V56.92h-.88Z" transform="translate(0 0.13)"/></g><g class="cls-106"><path class="cls-139" d="M58.81,8.11h.88V56.92h-.88Z" transform="translate(0 0.13)"/></g><g class="cls-106"><path class="cls-140" d="M59.69,8.11h.88V56.92h-.88Z" transform="translate(0 0.13)"/></g><g class="cls-106"><path class="cls-141" d="M60.58,8.11h.88V56.92h-.88Z" transform="translate(0 0.13)"/></g><g class="cls-106"><path class="cls-142" d="M61.46,8.11h.88V56.92h-.88Z" transform="translate(0 0.13)"/></g><g class="cls-106"><path class="cls-143" d="M62.34,8.11h.88V56.92h-.88Z" transform="translate(0 0.13)"/></g><g class="cls-106"><path class="cls-144" d="M63.22,8.11h.88V56.92h-.88Z" transform="translate(0 0.13)"/></g><g class="cls-106"><path class="cls-145" d="M64.4,8.11h.88V56.92H64.4Z" transform="translate(0 0.13)"/></g><g class="cls-106"><path class="cls-146" d="M65.28,8.11h.88V56.92h-.88Z" transform="translate(0 0.13)"/></g><g class="cls-106"><path class="cls-147" d="M66.16,8.11H67V56.92h-.88Z" transform="translate(0 0.13)"/></g><g class="cls-106"><path class="cls-148" d="M67,8.11h.88V56.92H67Z" transform="translate(0 0.13)"/></g><g class="cls-106"><path class="cls-149" d="M67.93,8.11h.88V56.92h-.88Z" transform="translate(0 0.13)"/></g><g class="cls-106"><path class="cls-149" d="M68.81,8.11h4.12V56.92H68.81Z" transform="translate(0 0.13)"/></g></g><path class="cls-2" d="M116.74,69.27a21.93,21.93,0,0,1-7.65-1.18A20.54,20.54,0,0,1,102,64.27a22,22,0,0,1-5.29-7.65,35.5,35.5,0,0,1-2.06-12.06V38.4c0-6.47,1.18-11.47,3.23-15.29a16,16,0,0,1,7.94-7.94,25.2,25.2,0,0,1,10.59-2.06,39.85,39.85,0,0,1,5.88.59,17.75,17.75,0,0,1,4.7,1.47,12.15,12.15,0,0,1,2.65,1.18,2.8,2.8,0,0,1,1.76,2.06V24c0,1.18-.59,1.76-2.06,1.18-.88-.29-2.06-.59-3.53-1.18l-4.41-.88a20.83,20.83,0,0,0-4.12-.29,14,14,0,0,0-6.47,1.47A8.84,8.84,0,0,0,107,29a26.37,26.37,0,0,0-1.18,9.12v6.18c0,3.82.29,6.76,1.18,8.82a7.87,7.87,0,0,0,3.82,4.71,14,14,0,0,0,6.47,1.47,26.22,26.22,0,0,0,6.47-.88c2.06-.59,4.12-1.18,5.88-1.76,1.18-.59,2.06,0,2.06,1.18v5.59c0,.88-.59,1.47-1.76,2.35-1.18.59-2.94,1.18-5.29,2.06A25.21,25.21,0,0,1,116.74,69.27Z" transform="translate(0 0.13)"/><path class="cls-2" d="M149.38,66.92c0,.59,0,.88-.29,1.18a1.53,1.53,0,0,1-1.18.59h-7.35a1.53,1.53,0,0,1-1.18-.59,2.23,2.23,0,0,1-.59-1.18V8.4a2.23,2.23,0,0,1,.59-1.18,1.53,1.53,0,0,1,1.18-.59h7.35a2.23,2.23,0,0,1,1.18.59,1.53,1.53,0,0,1,.59,1.18V66.92Z" transform="translate(0 0.13)"/><path class="cls-2" d="M168.5,66.92c0,.59,0,.88-.59,1.18a1.53,1.53,0,0,1-1.18.59h-7.35a1.53,1.53,0,0,1-1.18-.59,2.23,2.23,0,0,1-.59-1.18V24.28a1.53,1.53,0,0,1,.59-1.18,1.53,1.53,0,0,1,1.18-.59h7.35a1.53,1.53,0,0,1,1.18.59c.29.29.29.59.29,1.18V66.92Z" transform="translate(0 0.13)"/><path class="cls-2" d="M213.49,66.92a2.23,2.23,0,0,1-.59,1.18,1.53,1.53,0,0,1-1.18.59h-7.35a2.08,2.08,0,0,1-1.76-1.76V39.87a11.72,11.72,0,0,0-.88-5,5.19,5.19,0,0,0-2.35-2.65,10.31,10.31,0,0,0-4.7-.88,40.89,40.89,0,0,0-7.94.88v34.7A2.08,2.08,0,0,1,185,68.68h-7.35a1.53,1.53,0,0,1-1.18-.59,2.23,2.23,0,0,1-.59-1.18V26a1.86,1.86,0,0,1,1.47-1.76,39.89,39.89,0,0,1,8.53-1.76c2.94-.29,5.88-.59,8.53-.59,6.18,0,10.88,1.47,13.82,4.12,2.94,2.94,4.41,7.35,4.41,13.53V66.92Z" transform="translate(0 0.13)"/><path class="cls-2" d="M232,66.92c0,.59,0,.88-.29,1.18a1.53,1.53,0,0,1-1.18.59h-7.35A1.53,1.53,0,0,1,222,68.1a2.23,2.23,0,0,1-.59-1.18V24.28A1.53,1.53,0,0,1,222,23.1a1.53,1.53,0,0,1,1.18-.59h7.35a1.53,1.53,0,0,1,1.18.59c.29.29.29.59.29,1.18Z" transform="translate(0 0.13)"/><path class="cls-2" d="M256.13,60.16a36,36,0,0,0,10.29-1.76c1.18-.29,1.76,0,1.76,1.18v5.29c0,.59,0,.88-.29,1.18a4.06,4.06,0,0,1-1.18.88,21.3,21.3,0,0,1-10.29,2.35A19.31,19.31,0,0,1,247,67.21a15.26,15.26,0,0,1-6.47-6.47,25.15,25.15,0,0,1-2.35-11.17V41.92a25.15,25.15,0,0,1,2.35-11.17A15.26,15.26,0,0,1,247,24.28a19.31,19.31,0,0,1,9.41-2.06,21.3,21.3,0,0,1,10.29,2.35l.88.88c.29.29.29.59.29,1.18v5.29c0,1.18-.59,1.76-1.76,1.18a41.88,41.88,0,0,0-4.7-1.47,25.9,25.9,0,0,0-5-.59q-7.94,0-7.94,10.59v7.65c0,3.82.59,6.47,2.06,8.23A6.83,6.83,0,0,0,256.13,60.16Z" transform="translate(0 0.13)"/><path class="cls-2" d="M285.53,66.92c0,.59,0,.88-.59,1.18a1.53,1.53,0,0,1-1.18.59h-7.35a1.53,1.53,0,0,1-1.18-.59,2.23,2.23,0,0,1-.59-1.18V24.28a1.53,1.53,0,0,1,.59-1.18,1.53,1.53,0,0,1,1.18-.59h7.35a1.53,1.53,0,0,1,1.18.59c.29.29.29.59.29,1.18V66.92Z" transform="translate(0 0.13)"/><path class="cls-2" d="M372,66.92a2.23,2.23,0,0,1-.59,1.18,1.53,1.53,0,0,1-1.18.59h-7.35a2.08,2.08,0,0,1-1.76-1.76V39.87a11.72,11.72,0,0,0-.88-5,5.19,5.19,0,0,0-2.35-2.65,10.31,10.31,0,0,0-4.7-.88,40.89,40.89,0,0,0-7.94.88v34.7a2.08,2.08,0,0,1-1.76,1.76h-7.35a1.53,1.53,0,0,1-1.18-.59,2.23,2.23,0,0,1-.59-1.18V26a1.86,1.86,0,0,1,1.47-1.76,39.89,39.89,0,0,1,8.53-1.76c2.94-.29,5.88-.59,8.53-.59,6.18,0,10.88,1.47,13.82,4.12,2.94,2.94,4.41,7.35,4.41,13.53V66.92Z" transform="translate(0 0.13)"/><path class="cls-2" d="M168.2,14.28c0,.29,0,.88-.29.88a1.08,1.08,0,0,1-.88.29h-7.35a2.22,2.22,0,0,1-1.18-.29c-.29-.29-.59-.59-.59-.88V8.11c0-.29.29-.59.59-.88s.59-.29,1.18-.29H167a1,1,0,0,1,1.18,1.18Z" transform="translate(0 0.13)"/><path class="cls-2" d="M232,14.28c0,.29,0,.88-.29.88a1.08,1.08,0,0,1-.88.29h-7.35a2.22,2.22,0,0,1-1.18-.29c-.29-.29-.59-.59-.59-.88V8.11c0-.29.29-.59.59-.88s.59-.29,1.18-.29h7.35A1,1,0,0,1,232,8.11Z" transform="translate(0 0.13)"/><path class="cls-2" d="M285.53,14.28c0,.29,0,.88-.29.88a1.08,1.08,0,0,1-.88.29H277a2.22,2.22,0,0,1-1.18-.29c-.29-.29-.59-.59-.59-.88V8.11c0-.29.29-.59.59-.88s.59-.29,1.18-.29h7.35a1,1,0,0,1,1.18,1.18Z" transform="translate(0 0.13)"/><path class="cls-2" d="M329.35,43.1a27.06,27.06,0,0,0-2.06-11.17,15.79,15.79,0,0,0-6.47-7.35,17.78,17.78,0,0,0-9.7-2.65,22.16,22.16,0,0,0-10.29,2.35,16.61,16.61,0,0,0-6.47,7.06A25.71,25.71,0,0,0,292,42.22V48.1c0,5,.88,9.12,2.94,12.06a17.78,17.78,0,0,0,7.65,6.47,25.9,25.9,0,0,0,9.7,1.76,36.5,36.5,0,0,0,7.94-.88,27.27,27.27,0,0,0,6.47-2.35,4.06,4.06,0,0,0,1.18-.88c.29-.29.29-.59.29-1.18V58.39c0-1.18-.59-1.47-1.76-1.18-1.76.59-3.82.88-6.47,1.47a32.28,32.28,0,0,1-7.35.59c-4.12,0-6.76-.88-8.23-2.94A11.58,11.58,0,0,1,302,49s13.82.29,17.06,0a66.39,66.39,0,0,0,8.53-1.18c1.18-.29,1.47-.88,1.47-1.76ZM302.3,41.34a10.51,10.51,0,0,1,1.18-5.59,6.37,6.37,0,0,1,2.94-3.23,9.74,9.74,0,0,1,4.41-1.18A6.46,6.46,0,0,1,316.41,34c1.47,1.47,2.06,4.41,2.35,7.35C314.94,41.63,302.3,41.34,302.3,41.34Z" transform="translate(0 0.13)"/><path class="cls-2" d="M399.63,67.21c0,.88-.59,1.18-1.47,1.47a53.87,53.87,0,0,1-6.18.59,23.74,23.74,0,0,1-7.35-.88,5.55,5.55,0,0,1-3.82-3.82c-.88-1.76-1.18-4.71-1.18-8.23V16a1.86,1.86,0,0,1,1.47-1.76l7.35-1.18h.29c.88,0,1.18.29,1.18,1.18V56a9.09,9.09,0,0,0,.59,3.82q.44.88,2.65.88h5c1.18,0,1.76.29,1.76,1.18v5.29Z" transform="translate(0 0.13)"/><path class="cls-2" d="M382,33.1a37.48,37.48,0,0,0,8.23.59A35.43,35.43,0,0,0,397,32.51c.59-.29,1.18-.29,1.47-.59a1.53,1.53,0,0,0,.59-1.18l.88-5.59c.29-1.18-.29-1.76-1.47-1.47A41.52,41.52,0,0,1,392,24a57.29,57.29,0,0,1-7.35-.59" transform="translate(0 0.13)"/></svg>