<svg id="Horizontal_Logo_Green_Blue" data-name="Horizontal Logo Green Blue" xmlns="http://www.w3.org/2000/svg" viewBox="0 0 399.7 76.62" width="400" height="250"><defs></defs><title>clinicient-alt2.colors-white-font-primary</title><path class="cls-1" d="M87.77,24.6c0,2.35-.29,7.94-.29,10C86.89,44.89,84,49.89,72.78,49.89H71.6V66.65c0,5.29-3.82,2.94-7.35-1.18l-7.94-8.82H56l-6.17-6.76H31.31c-1.76,0-2.64-.88-2.64-2.35V31.66l-7.06-.59c-2.06-.29-1.77-1.47-1.47-2.65l1.18-3.82L26,8.43h.19L26,8.13l1.76-5.29c.3-1.47.89-2.65,2.36-2.65h42C82.48.19,86,4,86.89,13.13,87.19,15.48,87.19,22.25,87.77,24.6Z" transform="translate(-0.15 -0.19)"/><path class="cls-1" d="M49.85,49.84,56,56.6H44L29.85,72.48C26,76.89,22.5,79,22.5,73.66V56.9H15.15C4,56.9,1,51.9.45,41.61c-.3-2.06-.3-7.94-.3-10,0-2.65,0-7.94.3-10.59C1.62,11.91,4.86,8.08,15.15,8.08H26l.19.3H26l-4.7,16.17-1.18,3.82c-.3,1.18-.59,2.36,1.47,2.65l7.06.59V47.49c0,1.47.88,2.35,2.64,2.35Z" transform="translate(-0.15 -0.19)"/><g class="cls-2"><path class="cls-1" d="M63.37,54.57V38.69l7.06-.59c2.06-.29,1.76-1.47,1.47-2.65l-1.18-3.82L64.25,11c-.59-1.47-.88-2.65-2.35-2.65H25.73L21,24.57,19.84,28.4c-.29,1.18-.59,2.35,1.47,2.65l7.06.59V47.51c0,1.47.88,2.35,2.65,2.35H49.54l6.18,6.76H61C62.48,56.63,63.37,56,63.37,54.57Z" transform="translate(-0.15 -0.19)"/></g><path class="cls-1" d="M116.59,69.27a21.93,21.93,0,0,1-7.65-1.18,20.54,20.54,0,0,1-7.06-3.82,22,22,0,0,1-5.29-7.65,35.5,35.5,0,0,1-2.06-12.06V38.4c0-6.47,1.18-11.47,3.23-15.29a16,16,0,0,1,7.94-7.94,25.2,25.2,0,0,1,10.59-2.06,39.85,39.85,0,0,1,5.88.59,17.75,17.75,0,0,1,4.7,1.47,12.15,12.15,0,0,1,2.65,1.18,2.8,2.8,0,0,1,1.76,2.06V24c0,1.18-.59,1.76-2.06,1.18-.88-.29-2.06-.59-3.53-1.18l-4.41-.88a20.83,20.83,0,0,0-4.12-.29,14,14,0,0,0-6.47,1.47A8.84,8.84,0,0,0,106.89,29a26.37,26.37,0,0,0-1.18,9.12v6.18c0,3.82.29,6.76,1.18,8.82a7.87,7.87,0,0,0,3.82,4.71,14,14,0,0,0,6.47,1.47,26.22,26.22,0,0,0,6.47-.88c2.06-.59,4.12-1.18,5.88-1.76,1.18-.59,2.06,0,2.06,1.18v5.59c0,.88-.59,1.47-1.76,2.35-1.18.59-2.94,1.18-5.29,2.06A25.21,25.21,0,0,1,116.59,69.27Z" transform="translate(-0.15 -0.19)"/><path class="cls-1" d="M149.23,66.92c0,.59,0,.88-.29,1.18a1.53,1.53,0,0,1-1.18.59h-7.35a1.53,1.53,0,0,1-1.18-.59,2.23,2.23,0,0,1-.59-1.18V8.4a2.23,2.23,0,0,1,.59-1.18,1.53,1.53,0,0,1,1.18-.59h7.35a2.23,2.23,0,0,1,1.18.59,1.53,1.53,0,0,1,.59,1.18V66.92Z" transform="translate(-0.15 -0.19)"/><path class="cls-1" d="M168.35,66.92c0,.59,0,.88-.59,1.18a1.53,1.53,0,0,1-1.18.59h-7.35a1.53,1.53,0,0,1-1.18-.59,2.23,2.23,0,0,1-.59-1.18V24.28a1.53,1.53,0,0,1,.59-1.18,1.53,1.53,0,0,1,1.18-.59h7.35a1.53,1.53,0,0,1,1.18.59c.29.29.29.59.29,1.18V66.92Z" transform="translate(-0.15 -0.19)"/><path class="cls-1" d="M213.34,66.92a2.23,2.23,0,0,1-.59,1.18,1.53,1.53,0,0,1-1.18.59h-7.35a2.08,2.08,0,0,1-1.76-1.76V39.87a11.72,11.72,0,0,0-.88-5,5.19,5.19,0,0,0-2.35-2.65,10.31,10.31,0,0,0-4.7-.88,40.89,40.89,0,0,0-7.94.88v34.7a2.08,2.08,0,0,1-1.76,1.76h-7.35a1.53,1.53,0,0,1-1.18-.59,2.23,2.23,0,0,1-.59-1.18V26a1.86,1.86,0,0,1,1.47-1.76,39.89,39.89,0,0,1,8.53-1.76c2.94-.29,5.88-.59,8.53-.59,6.18,0,10.88,1.47,13.82,4.12,2.94,2.94,4.41,7.35,4.41,13.53V66.92Z" transform="translate(-0.15 -0.19)"/><path class="cls-1" d="M231.86,66.92c0,.59,0,.88-.29,1.18a1.53,1.53,0,0,1-1.18.59H223a1.53,1.53,0,0,1-1.18-.59,2.23,2.23,0,0,1-.59-1.18V24.28a1.53,1.53,0,0,1,.59-1.18,1.53,1.53,0,0,1,1.18-.59h7.35a1.53,1.53,0,0,1,1.18.59c.29.29.29.59.29,1.18Z" transform="translate(-0.15 -0.19)"/><path class="cls-1" d="M256,60.16a36,36,0,0,0,10.29-1.76c1.18-.29,1.76,0,1.76,1.18v5.29c0,.59,0,.88-.29,1.18a4.06,4.06,0,0,1-1.18.88,21.3,21.3,0,0,1-10.29,2.35,19.31,19.31,0,0,1-9.41-2.06,15.26,15.26,0,0,1-6.47-6.47A25.15,25.15,0,0,1,238,49.57V41.92a25.15,25.15,0,0,1,2.35-11.17,15.26,15.26,0,0,1,6.47-6.47,19.31,19.31,0,0,1,9.41-2.06,21.3,21.3,0,0,1,10.29,2.35l.88.88c.29.29.29.59.29,1.18v5.29c0,1.18-.59,1.76-1.76,1.18a41.88,41.88,0,0,0-4.7-1.47,25.9,25.9,0,0,0-5-.59q-7.94,0-7.94,10.59v7.65c0,3.82.59,6.47,2.06,8.23A6.83,6.83,0,0,0,256,60.16Z" transform="translate(-0.15 -0.19)"/><path class="cls-1" d="M285.38,66.92c0,.59,0,.88-.59,1.18a1.53,1.53,0,0,1-1.18.59h-7.35a1.53,1.53,0,0,1-1.18-.59,2.23,2.23,0,0,1-.59-1.18V24.28a1.53,1.53,0,0,1,.59-1.18,1.53,1.53,0,0,1,1.18-.59h7.35a1.53,1.53,0,0,1,1.18.59c.29.29.29.59.29,1.18V66.92Z" transform="translate(-0.15 -0.19)"/><path class="cls-1" d="M371.84,66.92a2.23,2.23,0,0,1-.59,1.18,1.53,1.53,0,0,1-1.18.59h-7.35A2.08,2.08,0,0,1,361,66.92V39.87a11.72,11.72,0,0,0-.88-5,5.19,5.19,0,0,0-2.35-2.65,10.31,10.31,0,0,0-4.7-.88,40.89,40.89,0,0,0-7.94.88v34.7a2.08,2.08,0,0,1-1.76,1.76H336a1.53,1.53,0,0,1-1.18-.59,2.23,2.23,0,0,1-.59-1.18V26a1.86,1.86,0,0,1,1.47-1.76,39.89,39.89,0,0,1,8.53-1.76c2.94-.29,5.88-.59,8.53-.59,6.18,0,10.88,1.47,13.82,4.12C369.48,29,371,33.4,371,39.57V66.92Z" transform="translate(-0.15 -0.19)"/><path class="cls-1" d="M168.05,14.28c0,.29,0,.88-.29.88a1.08,1.08,0,0,1-.88.29h-7.35a2.22,2.22,0,0,1-1.18-.29c-.29-.29-.59-.59-.59-.88V8.11c0-.29.29-.59.59-.88s.59-.29,1.18-.29h7.35a1,1,0,0,1,1.18,1.18Z" transform="translate(-0.15 -0.19)"/><path class="cls-1" d="M231.86,14.28c0,.29,0,.88-.29.88a1.08,1.08,0,0,1-.88.29h-7.35a2.22,2.22,0,0,1-1.18-.29c-.29-.29-.59-.59-.59-.88V8.11c0-.29.29-.59.59-.88s.59-.29,1.18-.29h7.35a1,1,0,0,1,1.18,1.18Z" transform="translate(-0.15 -0.19)"/><path class="cls-1" d="M285.38,14.28c0,.29,0,.88-.29.88a1.08,1.08,0,0,1-.88.29h-7.35a2.22,2.22,0,0,1-1.18-.29c-.29-.29-.59-.59-.59-.88V8.11c0-.29.29-.59.59-.88s.59-.29,1.18-.29h7.35a1,1,0,0,1,1.18,1.18Z" transform="translate(-0.15 -0.19)"/><path class="cls-1" d="M329.2,43.1a27.06,27.06,0,0,0-2.06-11.17,15.79,15.79,0,0,0-6.47-7.35,17.78,17.78,0,0,0-9.7-2.65,22.16,22.16,0,0,0-10.29,2.35,16.61,16.61,0,0,0-6.47,7.06,25.71,25.71,0,0,0-2.35,10.88V48.1c0,5,.88,9.12,2.94,12.06a17.78,17.78,0,0,0,7.65,6.47,25.9,25.9,0,0,0,9.7,1.76,36.5,36.5,0,0,0,7.94-.88,27.27,27.27,0,0,0,6.47-2.35,4.06,4.06,0,0,0,1.18-.88c.29-.29.29-.59.29-1.18V58.39c0-1.18-.59-1.47-1.76-1.18-1.76.59-3.82.88-6.47,1.47a32.28,32.28,0,0,1-7.35.59c-4.12,0-6.76-.88-8.23-2.94A11.58,11.58,0,0,1,301.85,49s13.82.29,17.06,0a66.39,66.39,0,0,0,8.53-1.18c1.18-.29,1.47-.88,1.47-1.76Zm-27.05-1.76a10.51,10.51,0,0,1,1.18-5.59,6.37,6.37,0,0,1,2.94-3.23,9.74,9.74,0,0,1,4.41-1.18A6.46,6.46,0,0,1,316.26,34c1.47,1.47,2.06,4.41,2.35,7.35C314.79,41.63,302.14,41.34,302.14,41.34Z" transform="translate(-0.15 -0.19)"/><path class="cls-1" d="M389.78,33.69V56a9,9,0,0,0,.59,3.83c.29.59,1.17.88,2.64.88h5c1.18,0,1.77.29,1.77,1.18v5.29h-.3c0,.88-.58,1.18-1.47,1.47a54.8,54.8,0,0,1-6.17.59,24,24,0,0,1-7.35-.88,5.57,5.57,0,0,1-3.83-3.83c-.88-1.76-1.17-4.7-1.17-8.23V16A1.86,1.86,0,0,1,381,14.28l7.35-1.18h.29c.89,0,1.18.3,1.18,1.18v9.64c.67,0,1.35.06,2.06.06a42.18,42.18,0,0,0,6.47-.29c1.17-.3,1.76.29,1.47,1.47l-.88,5.59a1.54,1.54,0,0,1-.59,1.17c-.3.3-.88.3-1.47.59a35.83,35.83,0,0,1-6.77,1.18Z" transform="translate(-0.15 -0.19)"/></svg>