<svg id="Capa_1" data-name="Capa 1" xmlns="http://www.w3.org/2000/svg" viewBox="0 0 438.53 438.54" width="24" height="24"><title>font-linkedin-sign.colors-font-primary</title><path class="primary" d="M414.41,24.12Q390.29,0,356.32,0H82.23q-34,0-58.1,24.12T0,82.22V356.31q0,34,24.12,58.1t58.1,24.13H356.31q34,0,58.1-24.13t24.13-58.1V82.22Q438.53,48.25,414.41,24.12Zm-280.79,343h-66V169h66V367.16h0Zm-6-234.83q-10.28,9.85-27.12,9.85h-0.29q-16.27,0-26.41-9.85a32.66,32.66,0,0,1-10.14-24.41q0-14.85,10.42-24.56t27-9.71q16.56,0,26.55,9.71t10.28,24.56A32.47,32.47,0,0,1,127.63,132.33ZM370.87,367.16h-66V261.24q0-44.82-33.12-44.82-12.56,0-21.13,7a43.94,43.94,0,0,0-12.85,17q-2,5.13-2,16V367.16h-66q0.86-179.29,0-198.14h66v28q20.8-32.52,59.1-32.54,34.26,0,55.1,22.55t20.84,66.52V367.16h0Z" transform="translate(0)"/></svg>