<svg id="Capa_1" data-name="Capa 1" xmlns="http://www.w3.org/2000/svg" viewBox="0 0 475.08 475.08" width="24" height="24"><title>font-search.colors-font-primary</title><path class="primary" d="M464.52,412.85l-97.93-97.92Q402,263.82,402,201a197.44,197.44,0,0,0-15.85-78.09q-15.84-37.26-42.83-64.24T279.09,15.85a200.32,200.32,0,0,0-156.18,0Q85.65,31.69,58.67,58.68T15.85,122.92a200.31,200.31,0,0,0,0,156.17q15.84,37.26,42.83,64.23t64.24,42.83A197.52,197.52,0,0,0,201,402q62.82,0,113.92-35.4l97.93,97.64q10.28,10.85,25.69,10.85A36.54,36.54,0,0,0,464.52,412.85ZM291.36,291.36Q253.82,328.91,201,328.91t-90.36-37.55Q73.09,253.81,73.09,201t37.55-90.36Q148.18,73.09,201,73.09t90.36,37.55q37.55,37.54,37.55,90.36T291.36,291.36Z" transform="translate(0 0)"/></svg>