<svg id="Layer_1" data-name="Layer 1" xmlns="http://www.w3.org/2000/svg" viewBox="0 0 250 250" height="250" width="400"><defs></defs><title>logo_large</title><path class="cls-1" d="M272.68,228.68c1.69,4.48,3.07,9.78,3,13a5.23,5.23,0,0,1-.8,2.53c-1.67,1.57-10,5.19-30.5-2.5C229.5,236.15,208.49,224,180,199.16c-1.22-1.06-4.07-4-4.17-8.07-0.09-3.47,1.84-7.13,5.73-10.9a7,7,0,0,0,.88-1l2-1.83,4.77-4.33c16.85-15.32,26.05-23.68,48.37-40.56,3.4,8.75,11.91,30.83,20.23,53.58-5.11.41-10.68,0.73-16.73,1a32.59,32.59,0,0,1-7.15-1.61A7,7,0,0,0,228.16,198c4.19,1.92,10.67,2.7,11.91,2.84a8.62,8.62,0,0,0,1,0q11.62-.41,21.69-1.32c3.7,10.38,7.13,20.37,9.79,28.71A2.36,2.36,0,0,0,272.68,228.68Z" transform="translate(-75)"/><path class="cls-1" d="M249.22,123.75L253,121q19.75,18.22,55.76,38.9c3.73,2.13,5.28,3.2,6.26,4.3a5.45,5.45,0,0,1-.47,4.48c-1.59,3-9,11.41-42.36,15.83C261.72,155.82,250.61,127.33,249.22,123.75Z" transform="translate(-75)"/><path class="cls-1" d="M169.32,172.84c-6.28,7.22-7.54,14-7.43,18.6a25.38,25.38,0,0,0,8.94,18.23c16.17,14.15,30.33,24.51,42.62,32a121.25,121.25,0,0,0,15,8.29H75V0H209.22c0,0.18,0,.36.08,0.55,0.34,1.95,7.34,48.79,7.34,48.92h0c4,19.89,8.53,45.52,15.77,69.07-25.45,19.08-34.65,27.64-52.77,44.11L175,167c-1.79,1.63-2.85,2.65-3.52,3.28-0.41.39-.67,0.65-0.83,0.83A7.75,7.75,0,0,0,169.32,172.84Z" transform="translate(-75)"/><path class="cls-1" d="M321.93,54.12c-29.38,21-51,36.48-67.57,48.55-7.93-8.94-10.46-15.41-11-19.6-0.64-4.63,1-7.42,2.49-8.95,16.11-16.46,52-22.62,64.72-22.62a21.06,21.06,0,0,1,3.25.2A34.86,34.86,0,0,1,321.93,54.12Z" transform="translate(-75)"/><path class="cls-1" d="M325,0V38c-5.39-.46-11.22-0.29-11.22-0.29-17.29-.16-57.46,5.76-77.93,26.67-0.41.42-.86,0.9-1.32,1.47C231,47.29,228.87,31,227.75,21.74L224.63,2s-0.1-.81-0.31-2H325Z" transform="translate(-75)"/><path class="cls-1" d="M264.42,112.61c16.23-11.81,33.06-23.9,60.58-43.54v85.4c-2.49-2.65-5.52-4.5-9.33-6.69C291.49,133.91,275.26,122.24,264.42,112.61Z" transform="translate(-75)"/><path class="cls-1" d="M325,178.12V250H287.34a27.76,27.76,0,0,0,2-8.21c0.16-7.16-2.28-14.58-3.51-17.87-2.43-7.64-5.49-16.6-8.8-26C302,194.36,317.84,187.79,325,178.12Z" transform="translate(-75)"/></svg>