<?xml version="1.0" encoding="utf-8"?>
<!-- Generator: Adobe Illustrator 19.1.0, SVG Export Plug-In . SVG Version: 6.00 Build 0)  -->
<!DOCTYPE svg PUBLIC "-//W3C//DTD SVG 1.1//EN" "http://www.w3.org/Graphics/SVG/1.1/DTD/svg11.dtd">
<svg version="1.1" id="Horizontal_Logo_Green_Blue" xmlns="http://www.w3.org/2000/svg" xmlns:xlink="http://www.w3.org/1999/xlink"
	 x="0px" y="0px" viewBox="0 0 136 27" style="enable-background:new 0 0 136 27;" width="136" height="27" xml:space="preserve">
<style type="text/css">
	.st0{fill:#FFFFFF;}
	.st1{clip-path:url(#SVGID_2_);fill:#95D7E3;}
	.st2{clip-path:url(#SVGID_2_);fill:#92D6E3;}
	.st3{clip-path:url(#SVGID_2_);fill:#8FD6E4;}
	.st4{clip-path:url(#SVGID_2_);fill:#8CD5E4;}
	.st5{clip-path:url(#SVGID_2_);fill:#89D4E4;}
	.st6{clip-path:url(#SVGID_2_);fill:#86D3E4;}
	.st7{clip-path:url(#SVGID_2_);fill:#83D2E4;}
	.st8{clip-path:url(#SVGID_2_);fill:#80D1E4;}
	.st9{clip-path:url(#SVGID_2_);fill:#7CD1E5;}
	.st10{clip-path:url(#SVGID_2_);fill:#79D0E5;}
	.st11{clip-path:url(#SVGID_2_);fill:#76CFE5;}
	.st12{clip-path:url(#SVGID_2_);fill:#72CEE5;}
	.st13{clip-path:url(#SVGID_2_);fill:#6FCDE5;}
	.st14{clip-path:url(#SVGID_2_);fill:#6BCDE5;}
	.st15{clip-path:url(#SVGID_2_);fill:#68CCE5;}
	.st16{clip-path:url(#SVGID_2_);fill:#64CBE6;}
	.st17{clip-path:url(#SVGID_2_);fill:#60CAE6;}
	.st18{clip-path:url(#SVGID_2_);fill:#5CC9E6;}
	.st19{clip-path:url(#SVGID_2_);fill:#58C9E6;}
	.st20{clip-path:url(#SVGID_2_);fill:#54C8E6;}
	.st21{clip-path:url(#SVGID_2_);fill:#4FC7E6;}
	.st22{clip-path:url(#SVGID_2_);fill:#4AC6E6;}
	.st23{clip-path:url(#SVGID_2_);fill:#45C6E7;}
	.st24{clip-path:url(#SVGID_2_);fill:#3FC5E7;}
	.st25{clip-path:url(#SVGID_2_);fill:#39C4E7;}
	.st26{clip-path:url(#SVGID_2_);fill:#32C4E7;}
	.st27{clip-path:url(#SVGID_2_);fill:#2AC3E7;}
	.st28{clip-path:url(#SVGID_2_);fill:#20C2E7;}
	.st29{clip-path:url(#SVGID_2_);fill:#12C1E8;}
	.st30{clip-path:url(#SVGID_2_);fill:#00C1E8;}
	.st31{clip-path:url(#SVGID_2_);fill:#00C0E8;}
	.st32{clip-path:url(#SVGID_2_);fill:#00BFE8;}
	.st33{clip-path:url(#SVGID_2_);fill:#00BEE8;}
	.st34{clip-path:url(#SVGID_2_);fill:#00BDE9;}
	.st35{clip-path:url(#SVGID_2_);fill:#00BCE9;}
	.st36{clip-path:url(#SVGID_2_);fill:#00BBE9;}
	.st37{clip-path:url(#SVGID_2_);fill:#00BAE9;}
	.st38{clip-path:url(#SVGID_2_);fill:#00B9EA;}
	.st39{clip-path:url(#SVGID_2_);fill:#00B8EA;}
	.st40{clip-path:url(#SVGID_2_);fill:#00B7EA;}
	.st41{clip-path:url(#SVGID_2_);fill:#00B6EA;}
	.st42{clip-path:url(#SVGID_2_);fill:#00B5EB;}
	.st43{clip-path:url(#SVGID_2_);fill:#00B4EB;}
	.st44{clip-path:url(#SVGID_2_);fill:#00B3EC;}
	.st45{clip-path:url(#SVGID_2_);fill:#00B2EC;}
	.st46{clip-path:url(#SVGID_2_);fill:#00B1EC;}
	.st47{clip-path:url(#SVGID_2_);fill:#00B1ED;}
	.st48{clip-path:url(#SVGID_2_);fill:#00B0ED;}
	.st49{clip-path:url(#SVGID_2_);fill:#00AFEE;}
	.st50{clip-path:url(#SVGID_2_);fill:#00AEEF;}
	.st51{opacity:0.75;}
	.st52{clip-path:url(#SVGID_4_);fill:#CBDB2A;}
	.st53{clip-path:url(#SVGID_4_);fill:#C8DA2B;}
	.st54{clip-path:url(#SVGID_4_);fill:#C6D92D;}
	.st55{clip-path:url(#SVGID_4_);fill:#C3D82E;}
	.st56{clip-path:url(#SVGID_4_);fill:#C1D82F;}
	.st57{clip-path:url(#SVGID_4_);fill:#BED730;}
	.st58{clip-path:url(#SVGID_4_);fill:#BCD631;}
	.st59{clip-path:url(#SVGID_4_);fill:#BAD532;}
	.st60{clip-path:url(#SVGID_4_);fill:#B7D433;}
	.st61{clip-path:url(#SVGID_4_);fill:#B5D334;}
	.st62{clip-path:url(#SVGID_4_);fill:#B2D235;}
	.st63{clip-path:url(#SVGID_4_);fill:#AFD136;}
	.st64{clip-path:url(#SVGID_4_);fill:#ADD136;}
	.st65{clip-path:url(#SVGID_4_);fill:#AAD037;}
	.st66{clip-path:url(#SVGID_4_);fill:#A8CF38;}
	.st67{clip-path:url(#SVGID_4_);fill:#A5CE39;}
	.st68{clip-path:url(#SVGID_4_);fill:#A3CD3A;}
	.st69{clip-path:url(#SVGID_4_);fill:#A0CC3A;}
	.st70{clip-path:url(#SVGID_4_);fill:#9ECC3B;}
	.st71{clip-path:url(#SVGID_4_);fill:#9BCB3C;}
	.st72{clip-path:url(#SVGID_4_);fill:#99CA3C;}
	.st73{clip-path:url(#SVGID_4_);fill:#96C93D;}
	.st74{clip-path:url(#SVGID_4_);fill:#93C83E;}
	.st75{clip-path:url(#SVGID_4_);fill:#91C83E;}
	.st76{clip-path:url(#SVGID_4_);fill:#8EC73F;}
	.st77{clip-path:url(#SVGID_4_);fill:#8BC63F;}
	.st78{clip-path:url(#SVGID_4_);fill:#89C540;}
	.st79{clip-path:url(#SVGID_4_);fill:#86C440;}
	.st80{clip-path:url(#SVGID_4_);fill:#83C441;}
	.st81{clip-path:url(#SVGID_4_);fill:#81C341;}
	.st82{clip-path:url(#SVGID_4_);fill:#7EC242;}
	.st83{clip-path:url(#SVGID_4_);fill:#7BC142;}
	.st84{clip-path:url(#SVGID_4_);fill:#78C143;}
	.st85{clip-path:url(#SVGID_4_);fill:#76C043;}
	.st86{clip-path:url(#SVGID_4_);fill:#72BF44;}
	.st87{clip-path:url(#SVGID_4_);fill:#6FBE44;}
	.st88{clip-path:url(#SVGID_4_);fill:#6CBE45;}
	.st89{clip-path:url(#SVGID_4_);fill:#69BD45;}
	.st90{clip-path:url(#SVGID_4_);fill:#66BC46;}
	.st91{clip-path:url(#SVGID_4_);fill:#63BC46;}
	.st92{clip-path:url(#SVGID_4_);fill:#5FBB46;}
	.st93{clip-path:url(#SVGID_4_);fill:#5CBA47;}
	.st94{clip-path:url(#SVGID_4_);fill:#58B947;}
	.st95{clip-path:url(#SVGID_4_);fill:#54B948;}
	.st96{clip-path:url(#SVGID_4_);fill:#51B848;}
	.st97{clip-path:url(#SVGID_4_);fill:#4DB748;}
	.st98{clip-path:url(#SVGID_4_);fill:#48B749;}
	.st99{clip-path:url(#SVGID_4_);fill:#43B649;}
	.st100{clip-path:url(#SVGID_4_);fill:#3EB549;}
	.st101{opacity:0.95;}
	.st102{clip-path:url(#SVGID_6_);fill:#D7DF23;}
	.st103{clip-path:url(#SVGID_6_);fill:#D4DE25;}
	.st104{clip-path:url(#SVGID_6_);fill:#D1DD26;}
	.st105{clip-path:url(#SVGID_6_);fill:#CEDB27;}
	.st106{clip-path:url(#SVGID_6_);fill:#CBDA29;}
	.st107{clip-path:url(#SVGID_6_);fill:#C8D92A;}
	.st108{clip-path:url(#SVGID_6_);fill:#C6D82B;}
	.st109{clip-path:url(#SVGID_6_);fill:#C3D62C;}
	.st110{clip-path:url(#SVGID_6_);fill:#C0D52D;}
	.st111{clip-path:url(#SVGID_6_);fill:#BDD42E;}
	.st112{clip-path:url(#SVGID_6_);fill:#BBD32F;}
	.st113{clip-path:url(#SVGID_6_);fill:#B8D230;}
	.st114{clip-path:url(#SVGID_6_);fill:#B5D131;}
	.st115{clip-path:url(#SVGID_6_);fill:#B3CF32;}
	.st116{clip-path:url(#SVGID_6_);fill:#B0CE33;}
	.st117{clip-path:url(#SVGID_6_);fill:#ADCD34;}
	.st118{clip-path:url(#SVGID_6_);fill:#ABCC34;}
	.st119{clip-path:url(#SVGID_6_);fill:#A8CB35;}
	.st120{clip-path:url(#SVGID_6_);fill:#A5CA36;}
	.st121{clip-path:url(#SVGID_6_);fill:#A3C936;}
	.st122{clip-path:url(#SVGID_6_);fill:#A0C837;}
	.st123{clip-path:url(#SVGID_6_);fill:#9DC738;}
	.st124{clip-path:url(#SVGID_6_);fill:#9BC638;}
	.st125{clip-path:url(#SVGID_6_);fill:#98C539;}
	.st126{clip-path:url(#SVGID_6_);fill:#95C43A;}
	.st127{clip-path:url(#SVGID_6_);fill:#93C33A;}
	.st128{clip-path:url(#SVGID_6_);fill:#90C23B;}
	.st129{clip-path:url(#SVGID_6_);fill:#8DC13B;}
	.st130{clip-path:url(#SVGID_6_);fill:#8BC03C;}
	.st131{clip-path:url(#SVGID_6_);fill:#88BF3C;}
	.st132{clip-path:url(#SVGID_6_);fill:#85BE3D;}
	.st133{clip-path:url(#SVGID_6_);fill:#83BD3D;}
	.st134{clip-path:url(#SVGID_6_);fill:#80BC3E;}
	.st135{clip-path:url(#SVGID_6_);fill:#7DBB3E;}
	.st136{clip-path:url(#SVGID_6_);fill:#7ABB3F;}
	.st137{clip-path:url(#SVGID_6_);fill:#78BA3F;}
	.st138{clip-path:url(#SVGID_6_);fill:#75B93F;}
	.st139{clip-path:url(#SVGID_6_);fill:#72B840;}
	.st140{clip-path:url(#SVGID_6_);fill:#6FB740;}
	.st141{clip-path:url(#SVGID_6_);fill:#6CB641;}
	.st142{clip-path:url(#SVGID_6_);fill:#69B541;}
	.st143{clip-path:url(#SVGID_6_);fill:#66B441;}
	.st144{clip-path:url(#SVGID_6_);fill:#63B442;}
	.st145{fill:#4196B4;}
</style>
<g>
	<g>
		<path class="st0" d="M29.5,4.9c-0.3-3.1-1.5-4.4-5-4.4l0,0l-14.3,0c-0.5,0-0.7,0.4-0.8,0.9L8.8,3.2l-2.1,0l-1.6,0
			c-3.5,0-4.6,1.3-5,4.4C0,8.5,0,10.3,0,11.2c0,0.7,0,2.7,0.1,3.4c0.2,3.5,1.2,5.2,5,5.2h2.5v5.7c0,1.8,1.2,1.1,2.5-0.4l4.8-5.4
			l4.2,0l2.7,3c1.2,1.4,2.5,2.2,2.5,0.4v-5.7h0.4c3.8,0,4.8-1.7,5-5.2c0-0.7,0.1-2.6,0.1-3.4C29.6,8,29.6,5.7,29.5,4.9z"/>
	</g>
	<g>
		<g>
			<g>
				<defs>
					<path id="SVGID_1_" d="M16.9,17.5l-6.3,0c-0.6,0-0.9-0.3-0.9-0.8l0-5.4l-2.4-0.2c-0.7-0.1-0.6-0.5-0.5-0.9l0.4-1.3l1.6-5.6l0,0
						l-2.1,0l-1.6,0c-3.5,0-4.6,1.3-5,4.4C0,8.5,0,10.3,0,11.2c0,0.7,0,2.7,0.1,3.4c0.2,3.5,1.2,5.2,5,5.2h2.5v5.7
						c0,1.8,1.2,1.1,2.5-0.4l4.8-5.4l4.2,0l0,0L16.9,17.5z"/>
				</defs>
				<clipPath id="SVGID_2_">
					<use xlink:href="#SVGID_1_"  style="overflow:visible;"/>
				</clipPath>
				<polygon class="st1" points="0,12.2 8.9,27.3 0,27.3 				"/>
				<polygon class="st1" points="0,11.8 9.1,27.3 9,27.3 8.9,27.3 0,12.2 				"/>
				<polygon class="st2" points="0,11.3 9.3,27.2 9.1,27.3 0,11.8 				"/>
				<polygon class="st3" points="0,10.9 9.5,27.1 9.3,27.2 0,11.3 				"/>
				<polygon class="st4" points="0,10.5 9.7,27 9.5,27.1 0,10.9 				"/>
				<polygon class="st5" points="0,10.1 9.8,26.8 9.7,27 0,10.5 				"/>
				<polygon class="st6" points="0,9.7 10,26.7 9.8,26.8 0,10.1 				"/>
				<polygon class="st7" points="0,9.3 10.2,26.6 10,26.7 0,9.7 				"/>
				<polygon class="st8" points="0,8.9 10.4,26.5 10.2,26.6 0,9.3 				"/>
				<polygon class="st9" points="0,8.4 10.6,26.4 10.4,26.5 0,8.9 				"/>
				<polygon class="st10" points="0,8 10.7,26.3 10.6,26.4 0,8.4 				"/>
				<polygon class="st11" points="0,7.6 10.9,26.2 10.7,26.3 0,8 				"/>
				<polygon class="st12" points="0,7.2 11.1,26.1 10.9,26.2 0,7.6 				"/>
				<polygon class="st13" points="0,6.8 11.3,26 11.1,26.1 0,7.2 				"/>
				<polygon class="st14" points="0,6.4 11.5,25.9 11.3,26 0,6.8 				"/>
				<polygon class="st15" points="0,6 11.6,25.8 11.5,25.9 0,6.4 				"/>
				<polygon class="st16" points="0,5.5 11.8,25.7 11.6,25.8 0,6 				"/>
				<polygon class="st17" points="0,5.1 12,25.6 11.8,25.7 0,5.5 				"/>
				<polygon class="st18" points="0,4.7 12.2,25.5 12,25.6 0,5.1 				"/>
				<polygon class="st19" points="0,4.3 12.4,25.4 12.2,25.5 0,4.7 				"/>
				<polygon class="st20" points="0,3.9 12.6,25.2 12.4,25.4 0,4.3 				"/>
				<polygon class="st21" points="0,3.5 12.7,25.1 12.6,25.2 0,3.9 				"/>
				<polygon class="st22" points="0,3.3 0.1,3.2 12.9,25 12.7,25.1 0,3.5 				"/>
				<polygon class="st23" points="0.1,3.2 0.1,3.2 0.3,3.2 13.1,24.9 12.9,25 				"/>
				<polygon class="st24" points="0.6,3.2 13.3,24.8 13.1,24.9 0.3,3.2 				"/>
				<polygon class="st25" points="0.8,3.2 13.5,24.7 13.3,24.8 0.6,3.2 				"/>
				<polygon class="st26" points="1.1,3.2 13.6,24.6 13.5,24.7 0.8,3.2 				"/>
				<polygon class="st27" points="1.3,3.2 13.8,24.5 13.6,24.6 1.1,3.2 				"/>
				<polygon class="st28" points="1.6,3.2 14,24.4 13.8,24.5 1.3,3.2 				"/>
				<polygon class="st29" points="1.8,3.2 14.2,24.3 14,24.4 1.6,3.2 				"/>
				<polygon class="st30" points="2,3.2 14.4,24.2 14.2,24.3 1.8,3.2 				"/>
				<polygon class="st31" points="2.3,3.2 14.5,24.1 14.4,24.2 2,3.2 				"/>
				<polygon class="st32" points="2.5,3.2 14.7,24 14.5,24.1 2.3,3.2 				"/>
				<polygon class="st33" points="2.8,3.2 14.9,23.9 14.7,24 2.5,3.2 				"/>
				<polygon class="st33" points="3,3.2 15.1,23.8 14.9,23.9 2.8,3.2 				"/>
				<polygon class="st34" points="3.3,3.2 15.3,23.7 15.1,23.8 3,3.2 				"/>
				<polygon class="st35" points="3.5,3.2 15.5,23.5 15.3,23.7 3.3,3.2 				"/>
				<polygon class="st35" points="3.8,3.2 15.6,23.4 15.5,23.5 3.5,3.2 				"/>
				<polygon class="st36" points="4,3.2 15.8,23.3 15.6,23.4 3.8,3.2 				"/>
				<polygon class="st37" points="4.2,3.2 16,23.2 15.8,23.3 4,3.2 				"/>
				<polygon class="st37" points="4.5,3.2 16.2,23.1 16,23.2 4.2,3.2 				"/>
				<polygon class="st38" points="4.7,3.2 16.4,23 16.2,23.1 4.5,3.2 				"/>
				<polygon class="st39" points="5,3.2 16.5,22.9 16.4,23 4.7,3.2 				"/>
				<polygon class="st39" points="5.2,3.2 16.7,22.8 16.5,22.9 5,3.2 				"/>
				<polygon class="st40" points="5.5,3.2 16.9,22.7 16.7,22.8 5.2,3.2 				"/>
				<polygon class="st40" points="5.7,3.2 17.1,22.6 16.9,22.7 5.5,3.2 				"/>
				<polygon class="st41" points="5.9,3.2 17.3,22.5 17.1,22.6 5.7,3.2 				"/>
				<polygon class="st42" points="6.2,3.2 17.4,22.4 17.3,22.5 5.9,3.2 				"/>
				<polygon class="st42" points="6.4,3.2 17.6,22.3 17.4,22.4 6.2,3.2 				"/>
				<polygon class="st43" points="6.7,3.2 17.8,22.2 17.6,22.3 6.4,3.2 				"/>
				<polygon class="st43" points="6.9,3.2 18,22.1 17.8,22.2 6.7,3.2 				"/>
				<polygon class="st44" points="7.2,3.2 18.2,21.9 18,22.1 6.9,3.2 				"/>
				<polygon class="st45" points="7.4,3.2 18.4,21.8 18.2,21.9 7.2,3.2 				"/>
				<polygon class="st45" points="7.7,3.2 18.5,21.7 18.4,21.8 7.4,3.2 				"/>
				<polygon class="st46" points="7.9,3.2 18.7,21.6 18.5,21.7 7.7,3.2 				"/>
				<polygon class="st47" points="8.1,3.2 18.9,21.5 18.7,21.6 7.9,3.2 				"/>
				<polygon class="st48" points="8.4,3.2 18.9,21.2 18.9,21.5 18.9,21.5 8.1,3.2 				"/>
				<polygon class="st48" points="8.6,3.2 18.9,20.8 18.9,21.2 8.4,3.2 				"/>
				<polygon class="st49" points="8.9,3.2 18.9,20.3 18.9,20.8 8.6,3.2 				"/>
				<polygon class="st49" points="9.1,3.2 18.9,19.9 18.9,20.3 8.9,3.2 				"/>
				<polygon class="st50" points="9.4,3.2 18.9,19.5 18.9,19.9 9.1,3.2 				"/>
				<polygon class="st50" points="9.6,3.2 18.9,19.1 18.9,19.5 9.4,3.2 				"/>
				<polygon class="st50" points="18.9,19.1 9.6,3.2 18.9,3.2 				"/>
			</g>
		</g>
		<g class="st51">
			<g>
				<defs>
					<path id="SVGID_3_" d="M29.5,4.9c-0.3-3.1-1.5-4.4-5-4.4l0,0l-14.3,0c-0.5,0-0.7,0.4-0.8,0.9L8.8,3.2l12.3,0
						c0.5,0,0.7,0.4,0.8,0.9l2.2,7l0.4,1.3c0.1,0.4,0.2,0.8-0.5,0.9l-2.4,0.2l0,5.4c0,0.5-0.3,0.8-0.9,0.8l-1.8,0l2.7,3
						c1.2,1.4,2.5,2.2,2.5,0.4v-5.7h0.4c3.8,0,4.8-1.7,5-5.2c0-0.7,0.1-2.6,0.1-3.4C29.6,8,29.6,5.7,29.5,4.9z"/>
				</defs>
				<clipPath id="SVGID_4_">
					<use xlink:href="#SVGID_3_"  style="overflow:visible;"/>
				</clipPath>
				<polygon class="st52" points="12,0.4 26,24.8 25.6,25 8.8,25 8.8,0.4 				"/>
				<polygon class="st52" points="12.3,0.4 26.3,24.7 26,24.8 12,0.4 				"/>
				<polygon class="st53" points="12.6,0.4 26.5,24.5 26.3,24.7 12.3,0.4 				"/>
				<polygon class="st54" points="12.9,0.4 26.7,24.4 26.5,24.5 12.6,0.4 				"/>
				<polygon class="st55" points="13.2,0.4 27,24.3 26.7,24.4 12.9,0.4 				"/>
				<polygon class="st56" points="13.5,0.4 27.2,24.1 27,24.3 13.2,0.4 				"/>
				<polygon class="st57" points="13.8,0.4 27.4,24 27.2,24.1 13.5,0.4 				"/>
				<polygon class="st58" points="14.1,0.4 27.6,23.9 27.4,24 13.8,0.4 				"/>
				<polygon class="st59" points="14.4,0.4 27.9,23.7 27.6,23.9 14.1,0.4 				"/>
				<polygon class="st60" points="14.7,0.4 28.1,23.6 27.9,23.7 14.4,0.4 				"/>
				<polygon class="st61" points="15,0.4 28.3,23.5 28.1,23.6 14.7,0.4 				"/>
				<polygon class="st62" points="15.3,0.4 28.6,23.3 28.3,23.5 15,0.4 				"/>
				<polygon class="st63" points="15.6,0.4 28.8,23.2 28.6,23.3 15.3,0.4 				"/>
				<polygon class="st64" points="15.9,0.4 29,23.1 28.8,23.2 15.6,0.4 				"/>
				<polygon class="st65" points="16.3,0.4 29.3,22.9 29,23.1 15.9,0.4 				"/>
				<polygon class="st66" points="16.6,0.4 29.5,22.8 29.3,22.9 16.3,0.4 				"/>
				<polygon class="st67" points="16.9,0.4 29.6,22.5 29.6,22.7 29.5,22.8 16.6,0.4 				"/>
				<polygon class="st68" points="17.2,0.4 29.6,22 29.6,22.5 16.9,0.4 				"/>
				<polygon class="st69" points="17.5,0.4 29.6,21.4 29.6,22 17.2,0.4 				"/>
				<polygon class="st70" points="17.8,0.4 29.6,20.9 29.6,21.4 17.5,0.4 				"/>
				<polygon class="st71" points="18.1,0.4 29.6,20.4 29.6,20.9 17.8,0.4 				"/>
				<polygon class="st72" points="18.4,0.4 29.6,19.8 29.6,20.4 18.1,0.4 				"/>
				<polygon class="st73" points="18.7,0.4 29.6,19.3 29.6,19.8 18.4,0.4 				"/>
				<polygon class="st74" points="19,0.4 29.6,18.8 29.6,19.3 18.7,0.4 				"/>
				<polygon class="st75" points="19.3,0.4 29.6,18.2 29.6,18.8 19,0.4 				"/>
				<polygon class="st76" points="19.6,0.4 29.6,17.7 29.6,18.2 19.3,0.4 				"/>
				<polygon class="st77" points="19.9,0.4 29.6,17.2 29.6,17.7 19.6,0.4 				"/>
				<polygon class="st78" points="20.2,0.4 29.6,16.6 29.6,17.2 19.9,0.4 				"/>
				<polygon class="st79" points="20.6,0.4 29.6,16.1 29.6,16.6 20.2,0.4 				"/>
				<polygon class="st80" points="20.9,0.4 29.6,15.6 29.6,16.1 20.6,0.4 				"/>
				<polygon class="st81" points="21.2,0.4 29.6,15 29.6,15.6 20.9,0.4 				"/>
				<polygon class="st82" points="21.5,0.4 29.6,14.5 29.6,15 21.2,0.4 				"/>
				<polygon class="st83" points="21.8,0.4 29.6,14 29.6,14.5 21.5,0.4 				"/>
				<polygon class="st84" points="22.1,0.4 29.6,13.4 29.6,14 21.8,0.4 				"/>
				<polygon class="st85" points="22.4,0.4 29.6,12.9 29.6,13.4 22.1,0.4 				"/>
				<polygon class="st86" points="22.7,0.4 29.6,12.4 29.6,12.9 22.4,0.4 				"/>
				<polygon class="st87" points="23,0.4 29.6,11.8 29.6,12.4 22.7,0.4 				"/>
				<polygon class="st88" points="23.3,0.4 29.6,11.3 29.6,11.8 23,0.4 				"/>
				<polygon class="st89" points="23.6,0.4 29.6,10.8 29.6,11.3 23.3,0.4 				"/>
				<polygon class="st90" points="23.9,0.4 29.6,10.2 29.6,10.8 23.6,0.4 				"/>
				<polygon class="st91" points="24.2,0.4 29.6,9.7 29.6,10.2 23.9,0.4 				"/>
				<polygon class="st92" points="24.6,0.4 29.6,9.2 29.6,9.7 24.2,0.4 				"/>
				<polygon class="st93" points="24.9,0.4 29.6,8.7 29.6,9.2 24.6,0.4 				"/>
				<polygon class="st94" points="25.2,0.4 29.6,8.1 29.6,8.7 24.9,0.4 				"/>
				<polygon class="st95" points="25.5,0.4 29.6,7.6 29.6,8.1 25.2,0.4 				"/>
				<polygon class="st96" points="25.8,0.4 29.6,7.1 29.6,7.6 25.5,0.4 				"/>
				<polygon class="st97" points="26.1,0.4 29.6,6.5 29.6,7.1 25.8,0.4 				"/>
				<polygon class="st98" points="26.4,0.4 29.6,6 29.6,6.5 26.1,0.4 				"/>
				<polygon class="st99" points="26.7,0.4 29.6,5.5 29.6,6 26.4,0.4 				"/>
				<polygon class="st100" points="27,0.4 29.6,4.9 29.6,5.5 26.7,0.4 				"/>
				<polygon class="st100" points="29.6,4.9 27,0.4 29.6,0.4 				"/>
			</g>
		</g>
		<g class="st101">
			<g>
				<defs>
					<path id="SVGID_5_" d="M21.6,19l0-5.4l2.4-0.2c0.7-0.1,0.6-0.5,0.5-0.9l-0.4-1.3l-2.2-7c-0.2-0.5-0.3-0.9-0.8-0.9l-12.3,0l0,0
						L7.2,8.8l-0.4,1.3c-0.1,0.4-0.2,0.8,0.5,0.9l2.4,0.2l0,5.4c0,0.5,0.3,0.8,0.9,0.8l6.3,0l2.1,2.3l0,0l1.8,0
						C21.3,19.7,21.6,19.5,21.6,19z"/>
				</defs>
				<clipPath id="SVGID_6_">
					<use xlink:href="#SVGID_5_"  style="overflow:visible;"/>
				</clipPath>
				<rect x="6.5" y="3.2" class="st102" width="3.7" height="16.6"/>
				<rect x="10.2" y="3.2" class="st102" width="0.3" height="16.6"/>
				<rect x="10.5" y="3.2" class="st103" width="0.3" height="16.6"/>
				<rect x="10.8" y="3.2" class="st104" width="0.3" height="16.6"/>
				<rect x="11.1" y="3.2" class="st105" width="0.3" height="16.6"/>
				<rect x="11.4" y="3.2" class="st106" width="0.3" height="16.6"/>
				<rect x="11.7" y="3.2" class="st107" width="0.3" height="16.6"/>
				<rect x="12" y="3.2" class="st108" width="0.3" height="16.6"/>
				<rect x="12.3" y="3.2" class="st109" width="0.3" height="16.6"/>
				<rect x="12.6" y="3.2" class="st110" width="0.3" height="16.6"/>
				<rect x="12.9" y="3.2" class="st111" width="0.3" height="16.6"/>
				<rect x="13.2" y="3.2" class="st112" width="0.3" height="16.6"/>
				<rect x="13.6" y="3.2" class="st113" width="0.3" height="16.6"/>
				<rect x="13.9" y="3.2" class="st114" width="0.3" height="16.6"/>
				<rect x="14.2" y="3.2" class="st115" width="0.3" height="16.6"/>
				<rect x="14.5" y="3.2" class="st116" width="0.3" height="16.6"/>
				<rect x="14.8" y="3.2" class="st117" width="0.3" height="16.6"/>
				<rect x="15.1" y="3.2" class="st118" width="0.3" height="16.6"/>
				<rect x="15.4" y="3.2" class="st119" width="0.3" height="16.6"/>
				<rect x="15.7" y="3.2" class="st120" width="0.3" height="16.6"/>
				<rect x="16" y="3.2" class="st121" width="0.3" height="16.6"/>
				<rect x="16.3" y="3.2" class="st122" width="0.3" height="16.6"/>
				<rect x="16.6" y="3.2" class="st123" width="0.3" height="16.6"/>
				<rect x="16.9" y="3.2" class="st124" width="0.3" height="16.6"/>
				<rect x="17.2" y="3.2" class="st125" width="0.3" height="16.6"/>
				<rect x="17.5" y="3.2" class="st126" width="0.3" height="16.6"/>
				<rect x="17.9" y="3.2" class="st127" width="0.3" height="16.6"/>
				<rect x="18.2" y="3.2" class="st128" width="0.3" height="16.6"/>
				<rect x="18.5" y="3.2" class="st129" width="0.3" height="16.6"/>
				<rect x="18.8" y="3.2" class="st130" width="0.3" height="16.6"/>
				<rect x="19.1" y="3.2" class="st131" width="0.3" height="16.6"/>
				<rect x="19.4" y="3.2" class="st132" width="0.3" height="16.6"/>
				<rect x="19.7" y="3.2" class="st133" width="0.3" height="16.6"/>
				<rect x="20" y="3.2" class="st134" width="0.3" height="16.6"/>
				<rect x="20.3" y="3.2" class="st135" width="0.3" height="16.6"/>
				<rect x="20.6" y="3.2" class="st136" width="0.3" height="16.6"/>
				<rect x="20.9" y="3.2" class="st137" width="0.3" height="16.6"/>
				<rect x="21.2" y="3.2" class="st138" width="0.3" height="16.6"/>
				<rect x="21.5" y="3.2" class="st139" width="0.3" height="16.6"/>
				<rect x="21.9" y="3.2" class="st140" width="0.3" height="16.6"/>
				<rect x="22.2" y="3.2" class="st141" width="0.3" height="16.6"/>
				<rect x="22.5" y="3.2" class="st142" width="0.3" height="16.6"/>
				<rect x="22.8" y="3.2" class="st143" width="0.3" height="16.6"/>
				<rect x="23.1" y="3.2" class="st144" width="0.3" height="16.6"/>
				<rect x="23.4" y="3.2" class="st144" width="1.4" height="16.6"/>
			</g>
		</g>
	</g>
</g>
<g>
	<path class="st145" d="M39.7,24c-0.9,0-1.8-0.1-2.6-0.4c-0.9-0.3-1.7-0.7-2.4-1.3c-0.7-0.6-1.3-1.5-1.8-2.6
		c-0.4-1.1-0.7-2.5-0.7-4.1v-2.1c0-2.2,0.4-3.9,1.1-5.2C34,6.9,34.9,6.1,36,5.6c1.1-0.5,2.3-0.7,3.6-0.7c0.7,0,1.3,0.1,2,0.2
		c0.6,0.1,1.2,0.3,1.6,0.5C43.7,5.8,44,5.9,44.1,6c0.4,0.2,0.6,0.5,0.6,0.7v1.9C44.7,9,44.5,9.2,44,9c-0.3-0.1-0.7-0.2-1.2-0.4
		c-0.5-0.1-1-0.2-1.5-0.3c-0.5-0.1-1-0.1-1.4-0.1c-0.9,0-1.6,0.2-2.2,0.5c-0.6,0.3-1,0.9-1.3,1.6c-0.3,0.8-0.4,1.8-0.4,3.1v2.1
		c0,1.3,0.1,2.3,0.4,3c0.3,0.8,0.7,1.3,1.3,1.6c0.6,0.3,1.3,0.5,2.2,0.5c0.7,0,1.4-0.1,2.2-0.3c0.7-0.2,1.4-0.4,2-0.6
		c0.4-0.2,0.7,0,0.7,0.4v1.9c0,0.3-0.2,0.5-0.6,0.8c-0.4,0.2-1,0.4-1.8,0.7C41.5,23.8,40.6,24,39.7,24z"/>
</g>
<g>
	<path class="st145" d="M50.8,23.2c0,0.2,0,0.3-0.1,0.4c-0.1,0.1-0.2,0.2-0.4,0.2h-2.5c-0.2,0-0.3-0.1-0.4-0.2
		c-0.1-0.1-0.2-0.3-0.2-0.4V3.3c0-0.1,0.1-0.3,0.2-0.4c0.1-0.1,0.2-0.2,0.4-0.2h2.5c0.1,0,0.3,0.1,0.4,0.2c0.1,0.1,0.2,0.2,0.2,0.4
		V23.2z"/>
</g>
<g>
	<path class="st145" d="M57.3,23.2c0,0.2,0,0.3-0.2,0.4c-0.1,0.1-0.2,0.2-0.4,0.2h-2.5c-0.2,0-0.3-0.1-0.4-0.2
		c-0.1-0.1-0.2-0.3-0.2-0.4V8.7c0-0.2,0.1-0.3,0.2-0.4c0.1-0.1,0.2-0.2,0.4-0.2h2.5c0.2,0,0.3,0.1,0.4,0.2c0.1,0.1,0.1,0.2,0.1,0.4
		V23.2z"/>
</g>
<g>
	<path class="st145" d="M72.6,23.2c0,0.1-0.1,0.3-0.2,0.4c-0.1,0.1-0.2,0.2-0.4,0.2h-2.5c-0.1,0-0.3-0.1-0.4-0.2
		c-0.1-0.1-0.2-0.3-0.2-0.4V14c0-0.7-0.1-1.3-0.3-1.7c-0.2-0.4-0.4-0.7-0.8-0.9c-0.4-0.2-0.9-0.3-1.6-0.3c-0.8,0-1.7,0.1-2.7,0.3
		v11.8c0,0.2-0.1,0.3-0.2,0.4c-0.1,0.1-0.2,0.2-0.4,0.2h-2.5c-0.2,0-0.3-0.1-0.4-0.2c-0.1-0.1-0.2-0.3-0.2-0.4V9.3
		c0-0.3,0.2-0.5,0.5-0.6c0.9-0.3,1.9-0.5,2.9-0.6c1-0.1,2-0.2,2.9-0.2c2.1,0,3.7,0.5,4.7,1.4c1,1,1.5,2.5,1.5,4.6V23.2z"/>
</g>
<g>
	<path class="st145" d="M78.9,23.2c0,0.2,0,0.3-0.1,0.4c-0.1,0.1-0.2,0.2-0.4,0.2h-2.5c-0.2,0-0.3-0.1-0.4-0.2
		c-0.1-0.1-0.2-0.3-0.2-0.4V8.7c0-0.2,0.1-0.3,0.2-0.4c0.1-0.1,0.2-0.2,0.4-0.2h2.5c0.2,0,0.3,0.1,0.4,0.2c0.1,0.1,0.1,0.2,0.1,0.4
		V23.2z"/>
</g>
<g>
	<path class="st145" d="M87.1,20.9c1,0,2.2-0.2,3.5-0.6c0.4-0.1,0.6,0,0.6,0.4v1.8c0,0.2,0,0.3-0.1,0.4c-0.1,0.1-0.2,0.2-0.4,0.3
		c-0.9,0.5-2.1,0.8-3.5,0.8c-1.2,0-2.3-0.2-3.2-0.7c-0.9-0.5-1.7-1.2-2.2-2.2c-0.5-1-0.8-2.3-0.8-3.8v-2.6c0-1.5,0.3-2.8,0.8-3.8
		c0.5-1,1.3-1.7,2.2-2.2c0.9-0.5,2-0.7,3.2-0.7c1.4,0,2.6,0.3,3.5,0.8C90.8,8.9,90.9,9,91,9.1c0.1,0.1,0.1,0.2,0.1,0.4v1.8
		c0,0.4-0.2,0.6-0.6,0.4c-0.6-0.2-1.1-0.4-1.6-0.5c-0.5-0.1-1.1-0.2-1.7-0.2c-1.8,0-2.7,1.2-2.7,3.6v2.6c0,1.3,0.2,2.2,0.7,2.8
		C85.7,20.6,86.3,20.9,87.1,20.9z"/>
</g>
<g>
	<path class="st145" d="M97.1,23.2c0,0.2,0,0.3-0.2,0.4c-0.1,0.1-0.2,0.2-0.4,0.2h-2.5c-0.2,0-0.3-0.1-0.4-0.2
		c-0.1-0.1-0.2-0.3-0.2-0.4V8.7c0-0.2,0.1-0.3,0.2-0.4c0.1-0.1,0.2-0.2,0.4-0.2h2.5c0.2,0,0.3,0.1,0.4,0.2c0.1,0.1,0.1,0.2,0.1,0.4
		V23.2z"/>
</g>
<g>
	<path class="st145" d="M126.5,23.2c0,0.1-0.1,0.3-0.2,0.4c-0.1,0.1-0.2,0.2-0.4,0.2h-2.5c-0.1,0-0.3-0.1-0.4-0.2
		c-0.1-0.1-0.2-0.3-0.2-0.4V14c0-0.7-0.1-1.3-0.3-1.7c-0.2-0.4-0.4-0.7-0.8-0.9c-0.4-0.2-0.9-0.3-1.6-0.3c-0.8,0-1.7,0.1-2.7,0.3
		v11.8c0,0.2-0.1,0.3-0.2,0.4c-0.1,0.1-0.2,0.2-0.4,0.2h-2.5c-0.2,0-0.3-0.1-0.4-0.2c-0.1-0.1-0.2-0.3-0.2-0.4V9.3
		c0-0.3,0.2-0.5,0.5-0.6c0.9-0.3,1.9-0.5,2.9-0.6c1-0.1,2-0.2,2.9-0.2c2.1,0,3.7,0.5,4.7,1.4c1,1,1.5,2.5,1.5,4.6V23.2z"/>
</g>
<g>
	<path class="st145" d="M57.2,5.3c0,0.1,0,0.3-0.1,0.3c-0.1,0.1-0.2,0.1-0.3,0.1h-2.5c-0.1,0-0.2,0-0.4-0.1
		c-0.1-0.1-0.2-0.2-0.2-0.3V3.2c0-0.1,0.1-0.2,0.2-0.3c0.1-0.1,0.2-0.1,0.4-0.1h2.5c0.1,0,0.2,0,0.3,0.1c0.1,0.1,0.1,0.2,0.1,0.3
		V5.3z"/>
</g>
<g>
	<path class="st145" d="M78.9,5.3c0,0.1,0,0.3-0.1,0.3c-0.1,0.1-0.2,0.1-0.3,0.1h-2.5c-0.1,0-0.2,0-0.4-0.1
		c-0.1-0.1-0.2-0.2-0.2-0.3V3.2c0-0.1,0.1-0.2,0.2-0.3c0.1-0.1,0.2-0.1,0.4-0.1h2.5c0.1,0,0.2,0,0.3,0.1c0.1,0.1,0.1,0.2,0.1,0.3
		V5.3z"/>
</g>
<g>
	<path class="st145" d="M97.1,5.3c0,0.1,0,0.3-0.1,0.3c-0.1,0.1-0.2,0.1-0.3,0.1h-2.5c-0.1,0-0.2,0-0.4-0.1
		c-0.1-0.1-0.2-0.2-0.2-0.3V3.2c0-0.1,0.1-0.2,0.2-0.3c0.1-0.1,0.2-0.1,0.4-0.1h2.5c0.1,0,0.2,0,0.3,0.1c0.1,0.1,0.1,0.2,0.1,0.3
		V5.3z"/>
</g>
<g>
	<path class="st145" d="M112,15.1c0-1.4-0.2-2.7-0.7-3.8c-0.5-1.1-1.2-1.9-2.2-2.5c-1-0.6-2-0.9-3.3-0.9c-1.4,0-2.5,0.3-3.5,0.8
		c-1,0.6-1.7,1.4-2.2,2.4c-0.5,1.1-0.8,2.3-0.8,3.7v2c0,1.7,0.3,3.1,1,4.1c0.7,1,1.6,1.8,2.6,2.2c1,0.4,2.1,0.6,3.3,0.6
		c0.9,0,1.8-0.1,2.7-0.3c0.9-0.2,1.6-0.5,2.2-0.8c0.2-0.1,0.3-0.2,0.4-0.3c0.1-0.1,0.1-0.2,0.1-0.4v-1.6c0-0.4-0.2-0.5-0.6-0.4
		c-0.6,0.2-1.3,0.3-2.2,0.5c-0.9,0.2-1.7,0.2-2.5,0.2c-1.4,0-2.3-0.3-2.8-1c-0.5-0.6-0.8-1.5-0.8-2.5c0,0,4.7,0.1,5.8,0
		c1.1-0.1,2-0.2,2.9-0.4c0.4-0.1,0.5-0.3,0.5-0.6L112,15.1z M102.8,14.5c0-0.8,0.1-1.4,0.4-1.9c0.2-0.5,0.6-0.9,1-1.1
		c0.4-0.2,0.9-0.4,1.5-0.4c0.9,0,1.4,0.3,1.9,0.9c0.5,0.5,0.7,1.5,0.8,2.5C107.1,14.6,102.8,14.5,102.8,14.5z"/>
</g>
<g>
	<g>
		<path class="st145" d="M135.9,23.3c0,0.3-0.2,0.4-0.5,0.5c-0.8,0.1-1.5,0.2-2.1,0.2c-1.1,0-1.9-0.1-2.5-0.3
			c-0.6-0.2-1.1-0.6-1.3-1.3c-0.3-0.6-0.4-1.6-0.4-2.8V5.9c0-0.3,0.2-0.5,0.5-0.6l2.5-0.4h0.1c0.3,0,0.4,0.1,0.4,0.4v2.8v2.7v8.7
			c0,0.7,0.1,1.1,0.2,1.3c0.1,0.2,0.4,0.3,0.9,0.3h1.7c0.4,0,0.6,0.1,0.6,0.4V23.3z"/>
	</g>
	<g>
		<path class="st145" d="M129.9,11.7c0.9,0.2,1.8,0.2,2.8,0.2c0.9-0.1,1.7-0.2,2.3-0.4c0.2-0.1,0.4-0.1,0.5-0.2
			c0.1-0.1,0.2-0.2,0.2-0.4L136,9c0.1-0.4-0.1-0.6-0.5-0.5c-0.6,0.1-1.3,0.1-2.2,0.1c-0.9,0-1.7-0.1-2.5-0.2"/>
	</g>
</g>
</svg>
