<svg id="Layer_1" data-name="Layer 1" xmlns="http://www.w3.org/2000/svg" viewBox="0 0 400 212.72" width="400" height="400"><defs><style>.cls-1{fill:#696a6d;stroke:#696a6d;stroke-miterlimit:10;stroke-width:1.41px;}.cls-2{fill:#ab0634;}</style></defs><title>premier</title><g id="Layer_3" data-name="Layer 3"><path class="cls-1" d="M68.41,216.31h-3v14.34H62.62V184h6.07c11,0,20.14,7.17,20.14,16C88.55,209.14,79.72,216.31,68.41,216.31Zm0-29.79h-3V214.1h3c9.38,0,17.1-6.07,17.1-13.79S78.07,186.51,68.41,186.51Z" transform="translate(0 -18.64)"/><path class="cls-1" d="M111.45,216.31l15.72,14.34h-3.86l-16-14.62v14.62h-2.76V184h5.79c11,0,20.14,7.17,20.14,16S122.21,215.76,111.45,216.31Zm-1.1-29.79H107V214.1h3.31c9.38,0,17.1-6.07,17.1-13.79S120,186.51,110.34,186.51Z" transform="translate(0 -18.64)"/><path class="cls-1" d="M148.41,230.65V184h22.34v2.21H151.45V206.1h19.31v2.21H151.45v19.86h19.31v2.21H148.41v0.28Z" transform="translate(0 -18.64)"/><path class="cls-1" d="M245.24,230.65h-3l-15.72-40.83-14.34,38.34h-0.28l-14.34-38.34-15.72,40.83h-3l18.76-47.72L212.14,221l14.62-38.07Z" transform="translate(0 -18.64)"/><path class="cls-1" d="M256.55,230.65V184h2.76v46.34h-2.76v0.28Z" transform="translate(0 -18.64)"/><path class="cls-1" d="M280,230.65V184h22.34v2.21H283V206.1h19.31v2.21H283v19.86h19.31v2.21H280v0.28Z" transform="translate(0 -18.64)"/><path class="cls-1" d="M326.34,216.31l15.72,14.34h-3.86l-16-14.62v14.62h-2.76V184h6.07c11,0,20.14,7.17,20.14,16C345.38,208.86,336.83,215.76,326.34,216.31Zm-1.1-29.79h-3.31V214.1h3.31c9.38,0,17.1-6.07,17.1-13.79S334.62,186.51,325.24,186.51Z" transform="translate(0 -18.64)"/><path class="cls-2" d="M277,100.45c-24,8.55-41.93,9.1-77-15.72,0,0-24.83,29.79-72.83,17.38C72.28,136.31,46.07,106.51,0,60.72l61,98.21C148.14,118.1,273.1,125.55,344.28,157L400,59.34C341.24,125.55,306.76,123.89,277,100.45Zm66.48,45.79c-78.9-29-181.52-40.83-281.93,3.31L29.24,97.14c33.1,38.07,72.28,32.28,97.93,11.86,25.93,10.76,61.24-2.48,72.83-17.1,20.41,17.1,53.24,29,76.41,15.45,23.72,17.66,56,29.79,100.41-15.45Z" transform="translate(0 -18.64)"/><path class="cls-2" d="M118.34,75.62c-2.48-1.38-3.31.83-3.31,0.83-7.45,17.38-2.21,23.45,8.83,28.41,2.76,1.38,3.59-1.93,5-4.41C130.48,98.24,137.1,83.34,118.34,75.62Zm6.34,25.66c-6.07-2.48-12.14-12.14-6.9-21.79C125,83.34,129.66,91.07,124.69,101.27Z" transform="translate(0 -18.64)"/><path class="cls-2" d="M285.52,76.17c-1.38-2.48-3-1.1-3-1.1-15.45,10.48-14.62,18.48-8,28.69,1.66,2.48,3.86.28,6.62-.83C283.31,101.55,297.1,92.72,285.52,76.17ZM276.69,101c-3.59-5.24-3.31-16.83,6.07-22.07C286.9,86.1,286.62,94.93,276.69,101Z" transform="translate(0 -18.64)"/><path class="cls-2" d="M202.48,20.72c-3.31-4.14-5.79-.83-5.79-0.83-21.24,24.55-13.52,51.59,0,68.41C200,91.89,203,88,203,88,216,70.1,221.79,44.17,202.48,20.72Zm-2.21,62.62a49.24,49.24,0,0,1-.83-58.76C212.14,40.31,210.21,66.79,200.28,83.34Z" transform="translate(0 -18.64)"/></g></svg>