<svg id="Layer_1" data-name="Layer 1" xmlns="http://www.w3.org/2000/svg" viewBox="0 0 400 103" width="400" height="250"><title>sga.colors-white-font-primary</title><g id="Text"><path class="cls-1" d="M29.75,113.75c-0.75-6.25-4.25-12-11.5-12-5,0-9,3-9.25,8.25,0,5.75,6.75,8,11,9.25,10.5,3.25,16,7.25,16,16.5C36,144.5,29,151,16.75,151c-6,0-12.25-1.75-16-5L0,132.75H3c2,8.75,6.75,14.75,15,14.75,5.5,0,9.5-3.25,9.5-8.5,0-7-6.5-9.25-11-10.75C8,125.75,1.25,122,1,113.5c0-9.75,7.5-15,18.75-15,4.5,0,9.75,1,13.25,3.5v12H29.75v-0.25Z" transform="translate(0 -73.5)"/><path class="cls-1" d="M90.25,97.25l0.75,1-2,6.5L81,106c1.75,1.75,3,5.25,3,9.75,0,12.5-11,16.75-20.75,16.75a42.55,42.55,0,0,1-5.25-.25c-1.25.5-5.25,2-5.25,5,0,2,1.25,4.5,8.5,4.5H69.5c11,0,19.75,4,19.75,15a16.4,16.4,0,0,1-8,14c-5,3-11.25,4.25-17.5,4.25-12,0-22-4.5-22-15,0-7.25,7.25-9.75,11.75-11.25V148.5c-5-.5-9-4.5-9-8,0-4,4-7,9.5-9v-0.25C49.25,130,43,125.5,43,116c0-7.5,5.5-17.25,21.25-17.25C69,98.75,74.5,100,77.5,102Zm-9.5,61.5C80.75,151,74,149,65,149c-5,0-8.25.5-10.5,2.25s-3.25,4.25-3.25,7.75c0,7.25,6,11.75,14.75,11.75C73.25,171,80.75,167,80.75,158.75ZM53.25,115.5c0,8.5,4.75,13,10.5,13,6,0,10.5-4.5,10.5-13C74.25,105.5,69,102,64,102,58.5,102,53.25,105.5,53.25,115.5Z" transform="translate(0 -73.5)"/><path class="cls-1" d="M133.25,136.75c0,6.5,1.75,8.5,3.5,8.75a12.39,12.39,0,0,0,5.25,0l0.5,2.5a27.43,27.43,0,0,1-12,3c-3.5,0-5.25-2.25-6.75-6.25-3.25,2.25-9,6-15.25,6.25-9.5,0-14.75-6.75-14.75-14.5,0-4.75,2.25-10,9.5-12.25,8-2.5,18-5.25,20.5-7.75v-4.25C123.75,104,119,102,115,102s-8.25,2.5-10.5,10c-0.5,1.75-1.25,2.75-3.25,2.75s-5.75-1.5-5.75-4.75c0-5.75,9-11.75,20.75-11.75,15.5,0,16.75,7.75,16.75,13.5v25h0.25Zm-9-16c-2.25,1.5-7.75,3.5-11.75,5-5.75,2.25-8,4.5-8,9.5,0,6,3,10.5,9.5,10.5,4,0,10.25-2.25,10.25-10.5v-14.5Z" transform="translate(0 -73.5)"/><path class="cls-1" d="M283.75,98.25l0.75,0.5V140.5c0,5.25.5,5.5,7.75,6v3h-25v-3c7.25-.5,7.75-0.75,7.75-6v-32c0-3.75-.5-4.25-3.25-4.5l-4-.5V101Zm2-15.25a6,6,0,0,1-6.25,6.25,6.25,6.25,0,0,1,0-12.5C283.5,76.5,285.75,79.25,285.75,83Z" transform="translate(0 -73.5)"/><path class="cls-1" d="M347.5,140.75c0,5.25.5,5.5,7.75,6v3h-25v-3c7.5-.5,7.75-0.75,7.75-6V116.5c0-9-3.75-12.75-10.75-12.75A14.19,14.19,0,0,0,315,111a12.5,12.5,0,0,0-1,5.75v24c0,5.25.5,5.5,7.75,6v3h-25v-3c7.25-.5,7.75-0.75,7.75-6V108.5c0-3.75-.5-4.25-3.25-4.5l-4-.5V101l15.25-2.5,1.5,7.75c6.25-4,11-7.75,18.75-7.75,9.5,0,15,6,15,16.25v26H347.5Z" transform="translate(0 -73.5)"/><path class="cls-1" d="M397,134.75l3,1.5c-2.75,11-12.5,14.75-19.75,14.75-15.25,0-23.75-8.75-23.75-25.75,0-13.5,6.25-26.75,25-26.75,11,0,17.75,5.25,17.75,10,0,4-4,5.25-6,5.25s-2.5-1-3.25-2.75c-2-5.5-5-9-9.75-9-7,0-13,6.25-13,21.5,0,9.5,2.75,22.25,15,22.25C389.75,145.75,393.75,142,397,134.75Z" transform="translate(0 -73.5)"/></g><g id="Icon"><path class="cls-1" d="M198,164a39.6,39.6,0,0,1,0-78V73.5a51.93,51.93,0,0,0,0,103V164Z" transform="translate(0 -73.5)"/><path class="cls-1" d="M211.5,73.5V86a39.6,39.6,0,0,1,0,78v12.5A51.93,51.93,0,0,0,211.5,73.5Z" transform="translate(0 -73.5)"/><path class="cls-1" d="M234.25,125A29.75,29.75,0,1,1,204.5,95.25,29.82,29.82,0,0,1,234.25,125Z" transform="translate(0 -73.5)"/></g></svg>