<svg id="Layer_1" data-name="Layer 1" xmlns="http://www.w3.org/2000/svg" viewBox="0 0 400 214.42" width="400" height="250"><defs></defs><title>valley.colors-font-primary-white</title><path class="cls-1" d="M150.77,43.83c0.05,0.24.05,0.37,0,.37S150.69,44.07,150.77,43.83Z" transform="translate(0 -17.79)"/><path class="cls-1" d="M290.4,54.14l-3.67-7.33L272.09,34.26s-1.83,1.31-3.92,2.88l-1-1.31L246.2,19.1,231.3,35.31S216.92,48.38,202,61.72c-11-10.2-27.45-25.63-27.45-25.63L160.7,17.79,123.3,47.08l-5.23-.27L80.94,71.92l108,22L311.58,70.61ZM159.65,66.43s-11-9.94-11.51-9.68-14.64,8.37-14.9,8.63S127.23,56,127,56c-0.77,0-23.08,6.33-23.77,6.52l17-11.75,2.36,2.87L147.62,35s2.83,7.08,3.15,8.78c0.73-2,6.79-11.4,6.79-11.4l6.8,12.82s-7.32,9.41-7.59,9.67S159.65,66.43,159.65,66.43Zm26.93,5.75S183,76,182.69,77c0.11-1.08.49-6.41,0.49-6.41l2.88-3.4-2.61-5.75,6,3.92,2.61-3.66L200.44,63C199.66,63,186.58,72.18,186.58,72.18ZM246.2,53.87l-2.09-2.09-1.83,6.8L241.76,69.3,241,72.7,227.11,68c-0.52-.26-12.81,9.94-12.81,9.94s-21.7-2.61-20.92-2.61,25.89-15.69,25.89-15.69L230.78,44.2l7.58-6.54,5-9.93,0.26,9.41,3.66-6.28,3.14,8.89Zm25.63,1.31-3.66-4.44-5.49,8.63,1.83-12.29,2.61-1.31,3.14-4.45L270.52,46l1.83,2.88Z" transform="translate(0 -17.79)"/><path class="cls-1" d="M150.76,44.2c-0.08,0-.07-0.13,0-0.37C150.82,44.07,150.82,44.2,150.76,44.2Z" transform="translate(0 -17.79)"/><path class="cls-1" d="M182.68,77c0,0.16,0,.21,0,0.1A0.44,0.44,0,0,1,182.68,77Z" transform="translate(0 -17.79)"/><path class="cls-1" d="M160.43,101.2V173.9l34,1.31a2,2,0,0,1,1.83,1.83V192.2a1.79,1.79,0,0,1-1.83,1.83H144a1.79,1.79,0,0,1-1.83-1.83V98.07h0c0-.78.78-1.31,1.83-1.31l14.91,2.61A1.91,1.91,0,0,1,160.43,101.2ZM48.25,77.67c-1-.26-1.57.52-1.83,2.09l-13.34,63-1.31,9.94-1-10.2-11.51-68C19,73,18.44,71.92,17.4,71.66L1.71,68.52c-1-.26-2.09,1.57-1.57,2.88l22,119.24c0.26,1.31,1.31,2.61,2.35,2.61H41.19c1,0,2.09-1,2.35-2.61l22-107.21c0.26-1-.52-2.88-1.57-3.14Zm59.88,14.64h0q12.55,51.38,25.1,99.63a1.85,1.85,0,0,1-1.83,2.09H117c-1,0-1.83-1-2.35-2.09l-3.14-12-25.36-.78L83,191.68a2.78,2.78,0,0,1-2.35,2.09H66.3a2,2,0,0,1-1.83-2.35l25.1-102.5V88.65c0.52-1.31.78-2.09,1.83-1.83l5.49,1,3.92,0.78,5.49,1C107.35,90,107.87,91,108.14,92.31Zm-1.57,66.94L99,127.88,91.4,158.21Zm118.72-56.48-14.91,2.61a3.68,3.68,0,0,0-1.83,1.57h0v84.72a1.79,1.79,0,0,0,1.83,1.83h50.47a1.87,1.87,0,0,0,1.83-2.09V174.68a1.79,1.79,0,0,0-1.83-1.83l-34,1.31V104.08A1.46,1.46,0,0,0,225.28,102.77Zm134.15,90.74h15.17a2.11,2.11,0,0,0,1.83-2.35V138.6l23-64.59a16.66,16.66,0,0,0,.52-1.83,1.65,1.65,0,0,0-1.83-2.09l-16.21,3.4c-1,.26-1.83,1.57-2.35,2.88l-12.29,35.56L355,81.33c-0.26-1-1.31-2.09-2.35-1.83l-16.21,3.14a2.52,2.52,0,0,0-1.83,2.61,2,2,0,0,0,.52,1.31l23,53.87v51A1.43,1.43,0,0,0,359.43,193.51Zm-36.87-86a2.9,2.9,0,0,0,1.83-2.35V86.56c0-1.31-.78-2.09-1.83-1.83l-46,8.63a2.51,2.51,0,0,0-1.83,2.35v96.23a2,2,0,0,0,1.83,2.09h46a2.24,2.24,0,0,0,1.83-2.09V173.38a1.87,1.87,0,0,0-1.83-2.09l-29,.78V153L316,151.41a2.11,2.11,0,0,0,1.83-2.35V130.23a1.87,1.87,0,0,0-1.83-2.09l-22.49,2.61V111.93Z" transform="translate(0 -17.79)"/><path class="cls-1" d="M94.8,117.16" transform="translate(0 -17.79)"/><path class="cls-1" d="M94.8,132.32" transform="translate(0 -17.79)"/><path class="cls-1" d="M38.32,212.86h2.61v7.84h9.68v-7.84h2.61v18.83H50.61V222.8H40.93v8.89H38.32V212.86Z" transform="translate(0 -17.79)"/><path class="cls-1" d="M58.45,212.86H72v2.35H60.81V221H71v2.09H60.81v6.28H72v2.35H58.19l0.26-18.83h0Z" transform="translate(0 -17.79)"/><path class="cls-1" d="M82.25,212.86h2.88l6.8,18.83H89l-1.83-5.49H79.89l-2.09,5.49H75.19Zm4.18,11-2.88-8.11-2.88,8.37,5.75-.26h0Z" transform="translate(0 -17.79)"/><path class="cls-1" d="M95.06,212.86h2.61v16.47h9.41v2.35h-12V212.86Z" transform="translate(0 -17.79)"/><path class="cls-1" d="M122.52,212.86v2.35h-6.28v16.47h-2.61V215.21h-6.28v-2.35h15.17Z" transform="translate(0 -17.79)"/><path class="cls-1" d="M125.92,212.86h2.61v7.84h9.68v-7.84h2.61v18.83h-2.61V222.8h-9.68v8.89h-2.61V212.86Z" transform="translate(0 -17.79)"/><path class="cls-1" d="M159.13,214.17a5.89,5.89,0,0,1,2.09,4.18h-2.35a5.17,5.17,0,0,0-1.57-2.88,4.82,4.82,0,0,0-3.4-1,5.39,5.39,0,0,0-4.45,1.83c-1,1.31-1.57,3.4-1.57,6a8.3,8.3,0,0,0,1.57,5.23,5.59,5.59,0,0,0,4.45,2.09,5.08,5.08,0,0,0,4.18-2.09,9.37,9.37,0,0,0,1-2.88h2.35a9.59,9.59,0,0,1-2.09,5,7.88,7.88,0,0,1-6,2.35,8.44,8.44,0,0,1-5.49-2.09c-1.83-1.83-2.88-4.45-2.88-8.11a11.08,11.08,0,0,1,2.09-6.8,8.12,8.12,0,0,1,6.54-2.88C156,212.34,157.82,212.86,159.13,214.17Z" transform="translate(0 -17.79)"/><path class="cls-1" d="M170.89,212.86h2.88l6.8,18.83h-2.88l-1.83-5.49h-7.32l-2.09,5.49h-2.61Zm4.18,11-2.88-8.11-2.88,8.37,5.75-.26h0Z" transform="translate(0 -17.79)"/><path class="cls-1" d="M184.23,212.86h8.63a11.61,11.61,0,0,1,3.4.52c1.83,0.78,2.61,2.35,2.61,4.45a5.27,5.27,0,0,1-.78,2.88,6.11,6.11,0,0,1-1.83,1.83,4,4,0,0,1,1.57,1,5.22,5.22,0,0,1,.52,2.35v2.61a2.4,2.4,0,0,0,.26,1.57,1.78,1.78,0,0,0,.78,1v0.52h-3.14c0-.26-0.26-0.26-0.26-0.52V229.6l-0.26-3.14a2.21,2.21,0,0,0-1.31-2.35,5.1,5.1,0,0,0-2.09-.26h-5.49v8.11h-2.61V212.86Zm8.37,8.63a5.27,5.27,0,0,0,2.88-.78c0.78-.52,1-1.31,1-2.61s-0.52-2.35-1.31-2.61a5.1,5.1,0,0,0-2.09-.26h-6v6.28h5.49Z" transform="translate(0 -17.79)"/><path class="cls-1" d="M204.1,212.86h13.6v2.35H206.46V221h10.2v2.09h-10.2v6.28H217.7v2.35H203.84l0.26-18.83h0Z" transform="translate(0 -17.79)"/><path class="cls-1" d="M232.34,225.67a4.42,4.42,0,0,0,.78,2.61c0.78,1.31,2.35,1.83,4.18,1.83a7.74,7.74,0,0,0,2.61-.52,2.75,2.75,0,0,0,2.09-2.88c0-1-.26-1.83-1-2.09a6,6,0,0,0-2.88-1l-2.35-.52a7,7,0,0,1-3.4-1.31,4.08,4.08,0,0,1-1.83-3.4,5.2,5.2,0,0,1,1.83-4.18,6.39,6.39,0,0,1,4.71-1.57,10,10,0,0,1,5,1.31,5.23,5.23,0,0,1,2.09,4.45h-2.35A3.2,3.2,0,0,0,241,216a4.39,4.39,0,0,0-3.66-1.57,4.17,4.17,0,0,0-3.14,1,3.23,3.23,0,0,0-1,2.09,2.12,2.12,0,0,0,1,2.09,28.91,28.91,0,0,0,3.4,1l2.61,0.52a7.35,7.35,0,0,1,2.88,1.31,4.72,4.72,0,0,1,1.83,3.92,4.91,4.91,0,0,1-2.09,4.45,11.06,11.06,0,0,1-5.23,1.31c-2.35,0-4.18-.52-5.23-1.83a6.3,6.3,0,0,1-1.83-4.71h1.83Z" transform="translate(0 -17.79)"/><path class="cls-1" d="M262.94,212.86v2.35h-6.28v16.47H254V215.21h-6.28v-2.35h15.17Z" transform="translate(0 -17.79)"/><path class="cls-1" d="M269.74,212.86h2.88l6.8,18.83h-2.88l-1.83-5.49h-7.32l-2.09,5.49h-2.61Zm4.18,11L271,215.48l-2.88,8.37h5.75Z" transform="translate(0 -17.79)"/><path class="cls-1" d="M283.07,212.86h13.07v2.35H285.69V221h9.15v2.35h-9.15v8.63h-2.61V212.86Z" transform="translate(0 -17.79)"/><path class="cls-1" d="M300.07,212.86h13.07v2.35H302.68V221h9.15v2.35h-9.15v8.63h-2.61V212.86Z" transform="translate(0 -17.79)"/><path class="cls-1" d="M317.33,212.86h2.61v18.83h-2.61V212.86Z" transform="translate(0 -17.79)"/><path class="cls-1" d="M325.17,212.86H328L337.46,228V212.86h2.35v18.83h-2.88l-9.41-15.17v15.17h-2.35V212.86Z" transform="translate(0 -17.79)"/><path class="cls-1" d="M357.6,213.38c1.83,1,2.88,2.61,3.4,5.23h-2.61a4.63,4.63,0,0,0-1.83-2.88,7.56,7.56,0,0,0-3.66-1,4.88,4.88,0,0,0-4.18,1.83,8.87,8.87,0,0,0-1.83,5.75,11.35,11.35,0,0,0,1.31,5.49,5.75,5.75,0,0,0,4.71,2.09,5.94,5.94,0,0,0,4.18-1.57,6.39,6.39,0,0,0,1.57-4.71h-5.75v-2.09h8.37v9.94h-1.57l-0.52-2.35a8.47,8.47,0,0,1-2.35,2.09,9.85,9.85,0,0,1-4.18,1,9.14,9.14,0,0,1-5.75-2.09c-1.83-1.83-2.61-4.18-2.61-7.32s0.78-5.75,2.61-7.58a7.75,7.75,0,0,1,6.28-2.61A6.52,6.52,0,0,1,357.6,213.38Z" transform="translate(0 -17.79)"/></svg>