<svg id="Layer_1" data-name="Layer 1" xmlns="http://www.w3.org/2000/svg" viewBox="0 0 400 57.41" width="400" height="250"><defs><style>.cls-1{fill:#0a6fa7;}.cls-2{fill:#231f20;}.cls-3{fill:none;}</style></defs><title>webmd</title><path d="M232.84,102.76c-7-5.53-20.31-5.25-20.31-5.25-2.31,0-7.54,0-9.82,0H189.57c-2.67,0-3.6.19-3.42,1.32,0.09,0.61,1,.8,1.44.91,1.66,0.47,2.87,1.36,2.94,3,0.08,1.9.29,7.87,0.29,9.93v16.95c0,2.28,0,6,0,8.32l0,10.53a4.17,4.17,0,0,0,4.15,4.17h13.64s9.81,0,16.93-3.28c10.67-4.85,16.79-14.19,16.79-25.62,0-8.53-3.52-16.37-9.43-21m-23.08,45h-0.53c-3.18,0-6.47,0-8.16-1.69a5.37,5.37,0,0,1-1.32-4V116.74c0-5.22-.13-7.68.05-13.53a65.37,65.37,0,0,1,9.48-.64c6,0,12.31.8,17.57,6.65,3.59,4,5.34,9.11,5.34,15.46,0,14-8.81,23.08-22.44,23.08m-23.59,2.76a4.86,4.86,0,0,1-2.93-3.52c0-1-1-45.2-1-45.2,0-2.29.05-4-.55-4.18a25.72,25.72,0,0,0-4.69-.21c-2,0-3.48-.06-3.83.37a20,20,0,0,0-1.92,4.17l-4,9-3.88,7.54-6.13,11.89c-1.05,2-2.81,2.05-3.9,0l-6.41-11.76-4-7.31-4.49-9.5c-0.92-2.1-1.34-3.73-1.79-4.12s-2-.34-4.27-0.32h-5.38c-2.67,0-3.87,0-3.7,1.15,0.09,0.62,1,.8,1.43.91,1.65,0.46,2.26,2.49,2.26,3.49s0,41.27-.22,43c0,0.3-.09.6-0.14,0.92a0.11,0.11,0,0,0-.07.08,4.16,4.16,0,0,1-2.94,3.52c-0.41.12-1.34,0.3-1.43,0.91-0.18,1.13,1.06,1.16,3.73,1.16h1.81a3.39,3.39,0,0,0,.46,0l0,0h6.54c2.67,0,3.91,0,3.74-1.16-0.09-.62-1-0.8-1.43-0.91-1.66-.46-2.34-1.51-2.94-3.52a0.11,0.11,0,0,1,0,0,27.35,27.35,0,0,1-.42-3.05c-0.09-2.29-.14-6-0.12-8.32v-0.71c0-2.29.09-6,.14-8.32l0.21-9c0.05-2.29,1-2.52,2.06-.5l6,11.05c1.08,2,6.78,12.81,7.81,14.85,0.87,1.74,1,2.39,3.73,2.43,3,0,3-.8,4.23-3.44,0.9-1.95,13.66-27.05,13.66-27.05,1-2,1.94-1.83,2,.46,0,0,.16,30.62-0.06,32,0,0.21-.06.36-0.07,0.46a4,4,0,0,1-2.73,2.72c-0.42.12-1.34,0.3-1.44,0.91-0.17,1.13,1.06,1.16,3.74,1.16h11.12c2.68,0,3.91,0,3.75-1.16-0.1-.62-1-0.77-1.44-0.92" transform="translate(0 -96.3)"/><path class="cls-1" d="M66.23,103c0.37-1,1.21-2.87,2.38-3.46,0.6-.32,1.78-0.31,2-1.13s-0.53-1-3.44-1H58.43c-2.67,0-3.91,0-3.74,1.16,0.09,0.61,1,.79,1.43.92,2.53,0.7,4.23,2,3.44,4.64s-11.81,35.09-11.81,35.09c-0.43,1.17-1.5,1.5-1.84-.23l-5.8-27.29c-0.48-2.24-1-5.11-1.21-6.37a2.44,2.44,0,0,0-2.46-1.79A2.58,2.58,0,0,0,34,105c-0.73,1.53-2.19,4.46-3.22,6.5L16.27,139.41c-0.59,1-1.36.73-1.45-.52L13,110.6c0-2.23-.21-6.57-0.21-7.31a3.9,3.9,0,0,1,3-3.78c0.41-.12,1.4-0.35,1.49-1,0.18-1.13-1.12-1.11-3.79-1.11H3.83c-0.5,0-.94,0-1.32,0-1.8,0-2.63.22-2.49,1.16,0.09,0.61,1,.79,1.44.91A3.84,3.84,0,0,1,4,101.74a12.21,12.21,0,0,1,.37,1.17c0,0.06,0,.13,0,0.21s0,0.11,0,.18,0,0.15,0,.21a64.42,64.42,0,0,1,1.09,7.61l2.35,34.57c0.14,2.28.07,5.59,0.76,7s3.9,1.35,5.17-.57c0.36-.54,18.49-34.63,18.49-34.63,1.06-2,2.29-1.85,2.75.39L40.8,146a46.64,46.64,0,0,0,1.48,6.18c0.79,2,4.67,1.68,5.69-.3a53.4,53.4,0,0,0,2.64-6.25s14.93-40.8,15.6-42.59m47.85,13.33c-7.09,0-13.55,6.47-17.81,11.35a25.26,25.26,0,0,1,1-4.14l6.61-22.16a2.94,2.94,0,0,0-3-4H95.36c-2.68,0-3.91,0-3.73,1.17,0.09,0.61,1,.79,1.43.91,2.65,0.74,3.52,3.72,2.82,6.93,0-.27-6.61,26.2-6.61,26.2a17.46,17.46,0,0,1-4.17,6.93s-8,9.76-16.09,9.76c-3.71,0-6.47-2.13-6.47-6.07a24.79,24.79,0,0,1,.62-5.88c8.43-.79,23.5-4.68,23.5-15.4,0-4.34-4.18-5.6-7.73-5.6-11.42,0-22.7,14-22.7,26.56,0,5.28,2.44,10.64,9.69,10.64,13.63,0,21-13.31,21.45-13.75a36.78,36.78,0,0,0-.65,5.32c0,5.75,4.18,8.43,9.38,8.43A23,23,0,0,0,107.66,150a34.1,34.1,0,0,0,7.93-6.72c4.42-5,7.4-11.13,7.4-16.87,0-6-2.61-10-8.92-10m-37,2.52a3.06,3.06,0,0,1,3.23,3.39c0,8.6-9.53,12.37-16.79,12.85,1.27-5.2,7.5-16.24,13.56-16.24M113,137.6a37.37,37.37,0,0,1-6.72,9.44c-2.76,2.71-5.86,4.48-9,4.48-3.62,0-4.81-3.46-4.81-6.7,0-8.83,9.62-25.22,19.39-25.22,3.63,0,4.73,2.52,4.73,5.52,0,3.42-1.4,8-3.64,12.49" transform="translate(0 -96.3)"/><path class="cls-2" d="M239.55,100.75a2.73,2.73,0,1,1,2.73,2.81,2.71,2.71,0,0,1-2.73-2.81m2.73,3.37a3.36,3.36,0,1,0-3.41-3.37,3.35,3.35,0,0,0,3.41,3.37m-0.71-3.1h0.67l1,1.68h0.66l-1.1-1.7a1,1,0,0,0,1-1.07c0-.77-0.45-1.1-1.37-1.1H241v3.87h0.59V101h0Zm0-.49v-1.2h0.8c0.41,0,.85.09,0.85,0.57s-0.45.63-.95,0.63h-0.7Z" transform="translate(0 -96.3)"/><line class="cls-3" x1="257.62" y1="56.45" x2="257.62"/><rect x="257.36" width="0.53" height="56.45"/><path d="M271,151.48l0.57-2.86a14,14,0,0,0,5.89,1.74,3.41,3.41,0,0,0,2.24-.67,2.16,2.16,0,0,0,.81-1.74,2.32,2.32,0,0,0-.33-1.22,9.71,9.71,0,0,0-1.26-1.51l-1.57-1.6a14.35,14.35,0,0,1-2.5-3.09,4.72,4.72,0,0,1-.52-2.08A5,5,0,0,1,276,135a6.44,6.44,0,0,1,4.86-1.65,14.58,14.58,0,0,1,2,.15,17.76,17.76,0,0,1,3.21.94l-0.57,2.86a16.51,16.51,0,0,0-3.05-1.2,8.59,8.59,0,0,0-1.79-.2,3.13,3.13,0,0,0-2.18.65,2,2,0,0,0-.7,1.54,2.27,2.27,0,0,0,.31,1.14,10.88,10.88,0,0,0,1.55,1.81l1.71,1.72a11.9,11.9,0,0,1,2,2.53,5,5,0,0,1,.59,2.4,4.61,4.61,0,0,1-1.81,3.78,7.63,7.63,0,0,1-4.91,1.45,12.81,12.81,0,0,1-1.87-.15,15.81,15.81,0,0,1-1.87-.4A23.35,23.35,0,0,1,271,151.48Z" transform="translate(0 -96.3)"/><path d="M303.28,148.54a13,13,0,0,1-10.07,4.35,5.93,5.93,0,0,1-4.55-1.72,6.6,6.6,0,0,1-1.61-4.69,14,14,0,0,1,1.48-6.24,13.81,13.81,0,0,1,4-5,8.89,8.89,0,0,1,5.52-1.95,4.61,4.61,0,0,1,3.17,1,3.51,3.51,0,0,1,1.1,2.76A6.34,6.34,0,0,1,301,141a10.41,10.41,0,0,1-4,3,19.17,19.17,0,0,1-6.5,1.55,5,5,0,0,0,1,3.51,4.21,4.21,0,0,0,2.71,1.12,11.23,11.23,0,0,0,3.59-.4,14.22,14.22,0,0,0,6-4.12ZM290.76,143a16.4,16.4,0,0,0,4.73-1,6.64,6.64,0,0,0,2.6-1.89,3.66,3.66,0,0,0,1-2.26,1.84,1.84,0,0,0-.56-1.28A1.89,1.89,0,0,0,297,136a4.38,4.38,0,0,0-2.38.76,7.36,7.36,0,0,0-1.77,1.59,10,10,0,0,0-1.15,1.7A12.92,12.92,0,0,0,290.76,143Z" transform="translate(0 -96.3)"/><path d="M305,152.33l3.72-18.71h3.41l-1.51,7.65a24.45,24.45,0,0,1,3.13-4.3,16.52,16.52,0,0,1,3.23-2.89,5.85,5.85,0,0,1,3.17-.9,8.2,8.2,0,0,1,.86.05L320.28,137a4.05,4.05,0,0,0-1.31-.26,5.24,5.24,0,0,0-3.52,1.83,63.31,63.31,0,0,0-5.7,7.22l-1.33,6.58H305Z" transform="translate(0 -96.3)"/><path d="M325.61,152.48l-2.39-18.71h3.2l1.85,14.93,9.15-14.93h3.25L329,152.48h-3.43Z" transform="translate(0 -96.3)"/><path d="M340.53,152.48l3.72-18.71h3.42l-3.73,18.71h-3.41Zm4.1-21.07,0.69-3.39h3.41l-0.67,3.39h-3.43Z" transform="translate(0 -96.3)"/><path d="M363.37,151.35a17.55,17.55,0,0,1-6.91,1.71,5.83,5.83,0,0,1-4.52-1.71,6.94,6.94,0,0,1-1.58-4.87,12.91,12.91,0,0,1,1.64-6.33,13.66,13.66,0,0,1,4.37-4.82,9.91,9.91,0,0,1,5.61-1.84,17.79,17.79,0,0,1,4.38.62l-0.55,2.72a10.69,10.69,0,0,0-3.89-.79,6.57,6.57,0,0,0-3.87,1.26,9.08,9.08,0,0,0-2.93,3.78,12.4,12.4,0,0,0-1.14,5.19,4,4,0,0,0,1,3,3.49,3.49,0,0,0,2.46.92,8,8,0,0,0,1.77-.24,23,23,0,0,0,2.25-.65,14.86,14.86,0,0,0,2.58-1.21Z" transform="translate(0 -96.3)"/><path d="M385,151.48l0.57-2.86a14,14,0,0,0,5.89,1.74,3.42,3.42,0,0,0,2.24-.67,2.16,2.16,0,0,0,.81-1.74,2.33,2.33,0,0,0-.33-1.22,9.71,9.71,0,0,0-1.26-1.51l-1.57-1.6a14.48,14.48,0,0,1-2.5-3.09,4.72,4.72,0,0,1-.52-2.08,5,5,0,0,1,1.59-3.45,6.44,6.44,0,0,1,4.86-1.65,14.58,14.58,0,0,1,2,.15,17.83,17.83,0,0,1,3.21.94l-0.57,2.86a16.58,16.58,0,0,0-3-1.2,8.61,8.61,0,0,0-1.79-.2,3.12,3.12,0,0,0-2.18.65,2,2,0,0,0-.7,1.54,2.3,2.3,0,0,0,.31,1.14,10.81,10.81,0,0,0,1.55,1.81l1.7,1.72a11.9,11.9,0,0,1,2,2.53,5,5,0,0,1,.59,2.4,4.61,4.61,0,0,1-1.81,3.78,7.64,7.64,0,0,1-4.91,1.45,12.81,12.81,0,0,1-1.87-.15,15.65,15.65,0,0,1-1.87-.4A23,23,0,0,1,385,151.48Z" transform="translate(0 -96.3)"/><path d="M383.57,148.56a13,13,0,0,1-10.07,4.35,5.93,5.93,0,0,1-4.55-1.72,6.6,6.6,0,0,1-1.61-4.69,14,14,0,0,1,1.48-6.24,13.81,13.81,0,0,1,4-5,8.89,8.89,0,0,1,5.52-1.95,4.61,4.61,0,0,1,3.17,1,3.51,3.51,0,0,1,1.1,2.76,6.33,6.33,0,0,1-1.35,3.91,10.41,10.41,0,0,1-4,3,19.17,19.17,0,0,1-6.5,1.55,5,5,0,0,0,1,3.51,4.21,4.21,0,0,0,2.71,1.12,11.23,11.23,0,0,0,3.59-.4,14.22,14.22,0,0,0,6-4.12ZM371.06,143a16.42,16.42,0,0,0,4.73-1,6.64,6.64,0,0,0,2.6-1.89,3.66,3.66,0,0,0,1-2.26,1.84,1.84,0,0,0-.56-1.28,1.89,1.89,0,0,0-1.44-.59,4.38,4.38,0,0,0-2.38.76,7.36,7.36,0,0,0-1.77,1.59A10,10,0,0,0,372,140,12.79,12.79,0,0,0,371.06,143Z" transform="translate(0 -96.3)"/><path d="M273.39,124.6V97.4h3.39v12a9.73,9.73,0,0,1,3-2.9,6.84,6.84,0,0,1,3.56-1,5.17,5.17,0,0,1,3.86,1.51,5.71,5.71,0,0,1,1.48,4.18V124.6H285.3V112.25a6.18,6.18,0,0,0-.34-2.57,2.36,2.36,0,0,0-1-1,2.74,2.74,0,0,0-1.33-.34,5.82,5.82,0,0,0-2.71.77,10,10,0,0,0-3.16,3.31V124.6h-3.39Z" transform="translate(0 -96.3)"/><path d="M309.22,124a21.3,21.3,0,0,1-5.92,1,8.71,8.71,0,0,1-7-2.94,10.28,10.28,0,0,1-2.53-6.93,11.64,11.64,0,0,1,1.12-5,8.14,8.14,0,0,1,2.93-3.53,7.74,7.74,0,0,1,4.26-1.15,6.5,6.5,0,0,1,5.24,2.33q2,2.33,2,7l0,1h-12a9.62,9.62,0,0,0,1.09,3.83,5.73,5.73,0,0,0,2.15,2.09,6.94,6.94,0,0,0,3.41.75,12.36,12.36,0,0,0,2.1-.18,21.39,21.39,0,0,0,3.2-1V124h0Zm-11.8-10.77h8.49a5.8,5.8,0,0,0-1.12-4,3.77,3.77,0,0,0-2.88-1.21,3.92,3.92,0,0,0-3.13,1.3A6.82,6.82,0,0,0,297.42,113.23Z" transform="translate(0 -96.3)"/><path d="M324.74,122.22a12.52,12.52,0,0,1-3,2.1,6.8,6.8,0,0,1-2.92.71,6.06,6.06,0,0,1-3.74-1.31,4.5,4.5,0,0,1-1.73-3.82,5.47,5.47,0,0,1,2.41-4.56q2.41-1.8,7.7-1.8h0.8v-2.26a4,4,0,0,0-.37-2,2.44,2.44,0,0,0-1.15-1,4.78,4.78,0,0,0-1.94-.35,12.79,12.79,0,0,0-5.85,1.65v-2.81a17.57,17.57,0,0,1,6.54-1.4,8.68,8.68,0,0,1,3.08.53,4.81,4.81,0,0,1,2.24,1.65,6.18,6.18,0,0,1,.84,3.63v8.48a5.34,5.34,0,0,0,.22,1.91,1.64,1.64,0,0,0,1.57,1,4.4,4.4,0,0,0,.65-0.07l0.24,1.88a5.84,5.84,0,0,1-2.55.55,3.09,3.09,0,0,1-1.79-.6A3.57,3.57,0,0,1,324.74,122.22Zm-0.5-1.84v-4.84l-1.11,0a9.25,9.25,0,0,0-4.57,1,3.13,3.13,0,0,0-1.85,2.81,2.71,2.71,0,0,0,.91,2.07,3,3,0,0,0,2.12.84,5.72,5.72,0,0,0,2.22-.47A9.86,9.86,0,0,0,324.24,120.38Z" transform="translate(0 -96.3)"/><path d="M334.42,124.6V97.4h3.39v27.2h-3.39Z" transform="translate(0 -96.3)"/><path d="M353,124.6a10.52,10.52,0,0,1-2.72.43,5.46,5.46,0,0,1-4-1.45,5.55,5.55,0,0,1-1.48-4.14v-11h-2.34v-2.55h2.34V102.5l3.39-.33v3.72H353v2.55h-4.89v10.37a4.2,4.2,0,0,0,.76,2.82,3.07,3.07,0,0,0,2.41.85,7.45,7.45,0,0,0,1.64-.23v2.35Z" transform="translate(0 -96.3)"/><path d="M357.81,124.6V97.4h3.39v12a9.75,9.75,0,0,1,3-2.9,6.84,6.84,0,0,1,3.55-1,5.17,5.17,0,0,1,3.86,1.51,5.71,5.71,0,0,1,1.48,4.18V124.6h-3.39V112.25a6.18,6.18,0,0,0-.34-2.57,2.4,2.4,0,0,0-1-1,2.73,2.73,0,0,0-1.33-.34,5.82,5.82,0,0,0-2.71.77,10,10,0,0,0-3.16,3.31V124.6h-3.39Z" transform="translate(0 -96.3)"/></svg>