<svg data-name="Layer 1" xmlns="http://www.w3.org/2000/svg" viewBox="0 0 400 82.05" width="400" height="250"><title>bowen</title><path class="cls-1" d="M313.85 13.08V2.05h-42.82v77.44h42.82V68.46h-31.03v-25.9h30V31.54h-30V13.08h31.03zM32.31 37.7A18 18 0 0 0 39 23.85C39 9.24 29.49 2.03 10.26 2.03H0v77.44h18.72c13.08 0 27.18-5.9 27.18-22.31a20.52 20.52 0 0 0-13.59-19.49m-19.23-2.31h-1.29V13.08h1.28c9 0 14.62 1.79 14.62 11s-5.64 11.28-14.62 11.28m-1.28 10h4.62c8.21 0 17.69 2.05 17.69 11.54 0 7.95-5.64 12.05-16.41 12.05h-5.9V45.39zM183.33 78.72c2.82-7.18 16.92-44.1 19-49 1.79 4.87 16.15 41.79 19 49h4.62l30.46-76.69h-12.82s-17.95 46.15-20 51.54c-1.79-5.13-17.44-45.64-19.74-51.28h-3.08c-2.31 5.9-17.69 46.41-19.74 51.28C179 48.21 161 2.03 161 2.03h-12.79l30.51 76.67h4.62zM343.85 78.72V25.65c3.59 3.59 42.05 43.85 50.77 53.08H400V2.03h-11.79v53.59c-3.59-3.85-45.13-47.44-51-53.33h-5.13v76.67h11.79v-.26zM67.69 15.39a40.48 40.48 0 0 0-9 25.64 40.92 40.92 0 0 0 20 35.38C94.33 59.49 96.9 43.85 96.9 43.85 90.49 31.8 72.03 18.47 67.67 15.39M110.77 57.18C102.82 67.95 90 75.13 83.33 78.47a41.09 41.09 0 0 0 40-3.59 47.24 47.24 0 0 0-12.56-17.69M135.9 21.29A41.21 41.21 0 0 0 100 .03 41.78 41.78 0 0 0 71 11.8a122.53 122.53 0 0 0 24.87 11c13.08 4.1 28.46 6.15 40-1.54m-29-14.1a11.89 11.89 0 0 1 8.72 5.9c2.56 4.62 1 9.49-4.36 9-5.38-.26-9.74-5.38-10-9.74 0-3.33 2.31-5.38 5.64-5.13M141 41.03a36.84 36.84 0 0 0-3.33-15.9c-4.87 7.95-13.08 19.74-13.08 19.74s2.82 14.1 1.79 27.44A40.89 40.89 0 0 0 141 41.03"/></svg>