<svg data-name="Layer 1" xmlns="http://www.w3.org/2000/svg" viewBox="0 0 400 60.66" width="400" height="250"><title>construction_execs.color-primary-white-font</title><path class="cls-1" d="M24.62 53.33l41 2.75 1.24 4.4h-41l-1.24-7.15zM22 38.93l41 8.4.83 2.75-5.64.83-34.94-4.68-1.25-7.3zm-2.48-14l1.24 6.88 34.54 9.32 2.89.83 2.89-.83-.83-2.48L19.53 24.9zM17.18 12l40 17.88 1.38 4-.41.14-.55-.28-39.31-15.41-1.1-6.33zM15.12 0l38.93 21 1.65 4.4L16.09 5.91z"/><path class="cls-1" d="M19.53 24.9L1.38 38.65l.41 4.4 18.84-11.28-1.1-6.88zM15.13 0l1 5.91L.28 25.45 0 21.05l15.13-21zm2.06 12l1.1 6.33L1 34.25l-.41-4.4 16.64-17.88zm7.43 41.33L3.44 56.12l.56 4.4h21.86l-1.24-7.19zM22 38.93l1.24 7.15-20.35 5.78-.55-4.4zM96.84 24.9L115 38.65l-.41 4.4-18.85-11.28 1.1-6.88zm4.4-24.9l-1 5.91 15.82 19.53.28-4.4-15.13-21zm-2.06 12l-1.11 6.33 17.33 16 .41-4.4-16.64-17.96zm-7.43 41.33l21.18 2.75-.41 4.4h-22l1.23-7.15zm2.61-14.44l-1.24 7.15 20.5 5.64.55-4.4z"/><path class="cls-1" d="M96.84 24.9L56 38.65l-.83 2.48 2.83.82 2.89-.83 34.53-9.35 1.38-6.88zm4.4-24.9l-1 5.91-39.58 19.54 1.65-4.4 38.93-21zm-2.06 12l-1.11 6.33L58.6 33.7l-.41.14-.55-.14 1.38-4 40.17-17.74zm-7.43 41.33l-41 2.75-1.1 4.4h40.86l1.24-7.15zm2.61-14.44l-1.24 7.15-34.94 4.81-5.64-.83.83-2.69z"/><path class="cls-1" d="M58.18 37.83l-2.06.83-.82 2.47 2.89.83 2.89-.83-.83-2.48-2.06-.83zm0 17.88c2.48.14 5 .41 7.29.55.41 1.51.83 2.89 1.24 4.4H49.66c.41-1.51.83-2.89 1.24-4.4 2.34-.28 4.81-.41 7.29-.55zm0-9.35c1.65.41 3.3.69 4.81 1.1.28 1 .55 1.79.83 2.75-1.93.28-3.85.55-5.64.83-1.93-.28-3.85-.55-5.64-.83.28-1 .55-1.79.83-2.75 1.51-.41 3.16-.69 4.81-1.1zm0-14c.14.41.28 1 .41 1.38a.51.51 0 0 1-.41.14 3.12 3.12 0 0 0-.55-.14 4.12 4.12 0 0 0 .55-1.41zM145.25 50.76a6.61 6.61 0 0 1-6.88 6.74c-4.54 0-7.7-3.85-7.7-9.77 0-6.33 2.89-9.9 7.7-9.9 3.71 0 6.05 1.79 6.74 5h3.3c-.55-4.81-4.26-8-9.77-8-6.88 0-11.28 4.81-11.28 12.38 0 8.39 4.13 13.2 10.87 13.2 5.91 0 10-3.71 10.32-9.63h-3.3zM149.52 50.89c0 5.91 3.16 9.35 8.53 9.35s8.39-3.44 8.39-9.35-3.16-9.35-8.53-9.35-8.39 3.44-8.39 9.35zm3 0c0-4.4 1.93-6.74 5.36-6.74s5.36 2.34 5.36 6.74-1.93 6.74-5.36 6.74-5.34-2.3-5.34-6.74zM180.19 59.7h3V48.33c0-1.79 0-3.16-.83-4.26-1-1.65-2.75-2.34-5.5-2.34a6.28 6.28 0 0 0-5.64 3v-2.61h-2.89v17.61h3v-10c0-3.44 1.93-5.36 5.23-5.36 2.89 0 3.58 1.51 3.58 4.54v10.87zM184.87 54.06c0 4 2.61 6.33 7.15 6.33s7.29-2.2 7.29-5.78c0-3.16-1.79-4.26-5.36-5.09l-2.89-.69c-1.93-.41-2.75-1-2.75-2.2 0-1.65 1.24-2.48 3.58-2.48s3.85 1.1 4 2.89h2.89c0-3.3-2.61-5.36-6.88-5.36s-6.6 2.06-6.6 5.09 1.51 4.13 5 5l3.3.83c1.79.41 2.75 1 2.75 2.34 0 1.65-1.51 2.75-4.13 2.75s-4.26-1.24-4.54-3.58h-2.75zM204.68 55.33v-10.9h3.16v-2.34h-3.16v-5h-3v5H199v2.34h2.61v11.83c0 2.75 1 3.71 3.71 3.71a15.32 15.32 0 0 0 2.34-.28v-2.48c-.69 0-1.24.14-1.65.14-1.01-.13-1.33-.68-1.33-2.02zM209.08 59.7h3v-9.77c0-3.3 1.65-5.09 4.81-5.09h.69v-3.16h-.83a4.94 4.94 0 0 0-5 3.58V42.1h-2.89v17.61h.14zM221.73 42.09h-3v11.42c0 1.79 0 3.16.83 4.26 1 1.51 2.75 2.34 5.36 2.34a6.33 6.33 0 0 0 5.78-3v2.61h2.89V42.09h-3v9.49c0 3.85-1.79 5.91-5.23 5.91-2.89 0-3.58-1.51-3.58-4.68V42.09zM248.14 48.01H251c-.14-3.85-3-6.46-7.43-6.46-5 0-8.12 3.58-8.12 9.49s3 9.35 7.7 9.35 7.57-2.61 7.84-6.88h-2.89a4.39 4.39 0 0 1-4.81 4.13c-3 0-4.81-2.34-4.81-6.74s1.79-6.74 5.09-6.74c2.78-.01 4.3 1.37 4.57 3.85z"/><path class="cls-1" d="M256 55.33v-10.9h3.16v-2.34H256v-5h-3v5h-2.61v2.34H253v11.83c0 2.75 1 3.71 3.71 3.71a15.32 15.32 0 0 0 2.34-.28v-2.48c-.69 0-1.24.14-1.65.14-1.14-.13-1.4-.68-1.4-2.02zM260.52 59.7h3V42.09h-3V59.7zm0-20.91h3v-3.46h-3v3.44zM265.47 50.89c0 5.91 3.16 9.35 8.53 9.35s8.39-3.44 8.39-9.35-3.16-9.35-8.53-9.35-8.39 3.44-8.39 9.35zm3 0c0-4.4 1.93-6.74 5.36-6.74s5.36 2.34 5.36 6.74-1.93 6.74-5.36 6.74-5.33-2.3-5.33-6.74zM296.15 59.7h3V48.33c0-1.79 0-3.16-.83-4.26-1-1.65-2.75-2.34-5.5-2.34a6.28 6.28 0 0 0-5.64 3v-2.61h-2.89v17.61h3v-10c0-3.44 1.93-5.36 5.23-5.36 2.89 0 3.58 1.51 3.58 4.54v10.87zM302.06 59.7h19.95v-5.92H309.9v-3.71h9.77v-5.5h-9.77v-3.3h11.56v-5.78h-19.4V59.7z"/><path class="cls-1" d="M321.05 59.7h7.84l2.47-4.95 2.62 4.95h7.97l-6.19-9.49 5.92-8.39h-7.7l-2.34 4.26-2.34-4.26h-7.7l5.77 8.52-6.32 9.36z"/><path class="cls-1" d="M353.78 54.47c-.28 1-1.24 1.51-2.61 1.51-2.06 0-3.3-1.24-3.3-3.58h13.34v-.41c0-6.74-3.85-10.73-10.18-10.73s-10.32 3.71-10.32 9.77c0 5.64 3.85 9.49 10 9.49 5.5 0 8.94-2.06 9.9-5.91h-6.88v-.14zm-6.05-5.78c.14-2.06 1.24-3.3 3.16-3.3s3.16 1.1 3.3 3.3h-6.46zM374.14 52.68a2.49 2.49 0 0 1-2.75 2.61c-2.06 0-2.89-1.51-2.89-4.68s1-4.68 3-4.68a2.35 2.35 0 0 1 2.61 2.48h7.15c-.14-4.54-3.85-7.43-9.77-7.43-6.33 0-10.18 3.58-10.18 9.63s3.85 9.63 10.32 9.63c5.78 0 9.35-2.89 9.77-7.57h-7.29zM381.43 54.06c.28 4.13 3.3 6.33 9.08 6.33q9.49 0 9.49-6.19c0-3.85-2.48-4.81-7.84-6.05-2.2-.55-3.44-.55-3.44-1.79 0-.83.69-1.24 1.93-1.24a1.94 1.94 0 0 1 2.2 1.79h6.46c-.41-3.71-3.44-5.64-8.8-5.64-5.78 0-8.8 2.06-8.8 5.91s2.61 4.81 8.12 5.91c1.93.41 3 .55 3 1.79 0 1-.83 1.51-2.34 1.51s-2.34-.69-2.34-2.2h-6.74v-.14z"/></svg>