<svg id="flux-logo" xmlns="http://www.w3.org/2000/svg" xmlns:xlink="http://www.w3.org/1999/xlink" viewBox="0 0 400 134.03" width="400" height="250"><defs><style>.cls-1{fill:url(#linear-gradient)}.cls-2{fill:url(#linear-gradient-2)}.cls-3{fill:url(#linear-gradient-3)}.cls-4{fill:url(#linear-gradient-4)}.cls-5{fill:#febc11}.cls-6{fill:#968c83}</style><linearGradient id="linear-gradient" x1="306.65" y1="107" x2="345.58" y2="107" gradientTransform="matrix(1 0 0 -1 0 241)" gradientUnits="userSpaceOnUse"><stop offset="0" stop-color="#f9dc9b"/><stop offset="1" stop-color="#febc11"/></linearGradient><linearGradient id="linear-gradient-2" x1="306.65" y1="130.68" x2="399.87" y2="130.68" xlink:href="#linear-gradient"/><linearGradient id="linear-gradient-3" x1="306.64" y1="148.85" x2="381.63" y2="148.85" xlink:href="#linear-gradient"/><linearGradient id="linear-gradient-4" x1="264.07" y1="148.1" x2="345.58" y2="148.1" xlink:href="#linear-gradient"/></defs><title>flux.colors-white-black</title><path class="cls-1" d="M345.5 105.41L306.78 81v106l21.15-55.7z" transform="translate(0 -52.99)" id="flux-logo_bot-left" data-name="flux-logo bot-left"/><path class="cls-2" d="M400 139.66l-54.5-34.25L306.78 81v25l21.15 25.32z" transform="translate(0 -52.99)" id="flux-logo_bot-right" data-name="flux-logo bot-right"/><path class="cls-3" d="M306.78 106l21.15 25.32 17.57-25.91 36-52.42L306.78 81v25z" transform="translate(0 -52.99)" id="flux-logo_top-right" data-name="flux-logo top-right"/><path class="cls-4" d="M264.18 54.48l42.6 51.52 21.15 25.32 17.57-25.91L306.78 81z" transform="translate(0 -52.99)" id="flux-logo_top-left" data-name="flux-logo top-left"/><path class="cls-5" d="M327.92 131.32l17.57-25.91L306.78 81v25l21.15 25.32z" transform="translate(0 -52.99)" id="flux-logo_center" data-name="flux-logo center"/><g id="flux-logo-text"><path id="flux-logo-text-path" class="cls-6" d="M13.1 165.87v-61.66H0V85.75h13.1v-4.17c0-17.27 11.32-27.7 27.1-27.7 6 0 11.32 1.19 15.19 3.28L51.23 72a12.34 12.34 0 0 0-6.85-1.79c-6 0-9.83 3.87-9.83 11.62v3.87h16.08v18.47H34.55v61.65H13.1zm49.44 0V55.37h21.15v110.5H62.55zm89.35 0v-10.13C146.54 162 136.71 168 123.9 168c-17.57 0-25.91-9.53-25.91-25V86h21.15v48.55c0 11 5.66 14.59 14.89 14.59A23.16 23.16 0 0 0 152.2 140V85.75h21.15v80.12H151.9zm89.05 0l-18.17-27.1-18.47 27.1h-23.21l28.29-41.1-26.81-39h23.53l16.68 24.72 16.38-24.72h23.54l-26.81 39 28.59 41.1H241z" transform="translate(0 -52.99)"/><g id="TM"><path id="TM-path" class="cls-5" d="M267.46 160.51v-.89h5.36v.89h-2.08v5.06h-1.19v-5.06h-2.08zm8-.89l1.49 4.47 1.49-4.47h1.79v6.25h-1.19v-5.07l-1.79 5.06h-.85l-1.79-5.06v5.06h-1.19v-6.25h2.08z" transform="translate(0 -52.99)"/></g></g></svg>