<svg xmlns="http://www.w3.org/2000/svg" viewBox="0 0 400 134.03" width="400" height="250"><defs><linearGradient id="a" x1="306.65" y1="107" x2="345.58" y2="107" gradientTransform="matrix(1 0 0 -1 0 241)" gradientUnits="userSpaceOnUse"><stop offset="0" stop-color="#f9dc9b"/><stop offset="1" stop-color="#febc11"/></linearGradient></defs><title>flux.colors-white-black</title><path class="cls-1" d="M345.5 52.42l-38.72-24.41v106l21.15-55.7z" data-name="flux-logo bot-left"/><path class="cls-2" d="M400 86.67l-54.5-34.25-38.72-24.41v25l21.15 25.32z" data-name="flux-logo bot-right"/><path class="cls-3" d="M306.78 53.01l21.15 25.32 17.57-25.91L381.5 0l-74.72 28.01v25z" data-name="flux-logo top-right"/><path class="cls-4" d="M264.18 1.49l42.6 51.52 21.15 25.32 17.57-25.91-38.72-24.41z" data-name="flux-logo top-left"/><path class="cls-5" d="M327.92 78.33l17.57-25.91-38.71-24.41v25l21.15 25.32z" data-name="flux-logo center"/><path class="cls-6" d="M13.1 112.88V51.22H0V32.76h13.1v-4.17C13.1 11.32 24.42.89 40.2.89c6 0 11.32 1.19 15.19 3.28l-4.16 14.84a12.34 12.34 0 0 0-6.85-1.79c-6 0-9.83 3.87-9.83 11.62v3.87h16.08v18.47H34.55v61.65H13.1zm49.44 0V2.38h21.15v110.5H62.55zm89.35 0v-10.13c-5.35 6.26-15.18 12.26-27.99 12.26-17.57 0-25.91-9.53-25.91-25v-57h21.15v48.55c0 11 5.66 14.59 14.89 14.59a23.16 23.16 0 0 0 18.17-9.14V32.76h21.15v80.12H151.9zm89.05 0l-18.17-27.1-18.47 27.1h-23.21l28.29-41.1-26.81-39h23.53l16.68 24.72 16.38-24.72h23.54l-26.81 39 28.59 41.1H241z"/><path class="cls-5" d="M267.46 107.52v-.89h5.36v.89h-2.08v5.06h-1.19v-5.06h-2.08zm8-.89l1.49 4.47 1.49-4.47h1.79v6.25h-1.19v-5.07l-1.79 5.06h-.85l-1.79-5.06v5.06h-1.19v-6.25h2.08z"/></svg>