<svg data-name="Capa 1" xmlns="http://www.w3.org/2000/svg" viewBox="0 0 438.53 438.54" height="24"><title>font-twitter-sign.colors-primary-font</title><path class="primary" d="M414.41 24.12Q390.29 0 356.32 0H82.23q-34 0-58.1 24.12T0 82.22v274.09q0 34 24.12 58.1t58.1 24.13h274.09q34 0 58.1-24.13t24.13-58.1V82.22q-.01-33.97-24.13-58.1zm-78.94 144.62a75.7 75.7 0 0 1 .29 7.71 172.76 172.76 0 0 1-28.41 94.36A180 180 0 0 1 273 309.92q-20 17-48 27.12a174.55 174.55 0 0 1-60 10.14 168.26 168.26 0 0 1-91.9-26.84 115.7 115.7 0 0 0 14.28.86q41.4 0 74.52-25.7a56.89 56.89 0 0 1-34.69-12 60.93 60.93 0 0 1-21.27-29.69 80.39 80.39 0 0 0 11.13 1.19 55.81 55.81 0 0 0 14.56-2.28A60 60 0 0 1 96.51 232a57 57 0 0 1-14.28-38.11v-.57q15.13 7.13 28.55 7.42-26-17.42-26-50a59.38 59.38 0 0 1 8.28-30.26 169.94 169.94 0 0 0 54.82 44.25A169.74 169.74 0 0 0 217 183.3a55.11 55.11 0 0 1-1.43-13.7 60 60 0 0 1 60-60q26.27 0 43.69 18.85a119.26 119.26 0 0 0 38.26-14.56q-7.14 22-26.55 33.4a127.1 127.1 0 0 0 34.54-9.71 116.6 116.6 0 0 1-30.04 31.16z"/></svg>