<svg id="Layer_1" data-name="Layer 1" xmlns="http://www.w3.org/2000/svg" viewBox="0 0 80 80" width="80" height="80"><defs><style>.cls-1{fill:#f80}</style></defs><title>logo_for_new_site</title><path class="cls-1" d="M63.26 73.18a13.51 13.51 0 0 1 1 4.17 1.67 1.67 0 0 1-.25.81c-.54.5-3.2 1.66-9.76-.8-4.77-1.79-11.49-5.66-20.6-13.63a3.73 3.73 0 0 1-1.33-2.58 4.91 4.91 0 0 1 1.83-3.49 2.25 2.25 0 0 0 .28-.33l.57-.59 1.53-1.39A182.83 182.83 0 0 1 52 42.37c1.09 2.8 3.81 9.87 6.47 17.15-1.64.13-3.42.23-5.36.31a10.43 10.43 0 0 1-2.29-.51A2.23 2.23 0 0 0 49 63.37a14.79 14.79 0 0 0 3.81.91h.32q3.72-.13 6.94-.42c1.18 3.32 2.28 6.52 3.13 9.19a.76.76 0 0 0 .06.13zM55.75 39.6l1.2-.88q6.32 5.83 17.84 12.45a8 8 0 0 1 2 1.38 1.74 1.74 0 0 1-.15 1.45c-.51 1-2.89 3.65-13.56 5.07-3.33-9.21-6.88-18.32-7.33-19.47z"/><path class="cls-1" d="M30.18 55.31a8.66 8.66 0 0 0-2.38 6 8.12 8.12 0 0 0 2.86 5.83 101.88 101.88 0 0 0 13.65 10.21A38.8 38.8 0 0 0 49.12 80H0V0h43v.18c.11.62 2.35 15.61 2.35 15.65 1.27 6.37 2.73 14.57 5 22.1A186.14 186.14 0 0 0 33.49 52L32 53.43c-.57.52-.91.85-1.13 1l-.27.27a2.48 2.48 0 0 0-.42.61zM79 17.32C69.62 24 62.7 29 57.4 32.86c-2.54-2.86-3.35-4.93-3.53-6.27a3.26 3.26 0 0 1 .8-2.86c5.15-5.27 16.63-7.24 20.71-7.24a6.74 6.74 0 0 1 1 .06 11.15 11.15 0 0 1 2.62.77zM80 0v12.16c-1.73-.15-3.59-.09-3.59-.09C70.88 12 58 13.9 51.47 20.6c-.13.13-.27.29-.42.47C49.93 15.13 49.24 9.92 48.88 7l-1-6.32s0-.26-.1-.64H80zM60.61 36c5.2-3.74 10.58-7.61 19.39-13.9v27.33a12.33 12.33 0 0 0-3-2.14A99.6 99.6 0 0 1 60.61 36zM80 57v23H67.95a8.88 8.88 0 0 0 .63-2.63 16.48 16.48 0 0 0-1.12-5.72c-.78-2.44-1.76-5.31-2.82-8.31 8-1.14 13.07-3.25 15.36-6.34z"/></svg>