<svg id="Horizontal_Logo_Green_Blue" xmlns="http://www.w3.org/2000/svg" xmlns:xlink="http://www.w3.org/1999/xlink" viewBox="0 0 136 27" width="136" height="27"><style>.st0{fill:#FFF}.st1{fill:#95d7e3}.st1,.st2{clip-path:url(#SVGID_2_)}.st2{fill:#92d6e3}.st3{fill:#8fd6e4}.st3,.st4{clip-path:url(#SVGID_2_)}.st4{fill:#8cd5e4}.st5{fill:#89d4e4}.st5,.st6{clip-path:url(#SVGID_2_)}.st6{fill:#86d3e4}.st7{fill:#83d2e4}.st7,.st8{clip-path:url(#SVGID_2_)}.st8{fill:#80d1e4}.st9{fill:#7cd1e5}.st9,.st10{clip-path:url(#SVGID_2_)}.st10{fill:#79d0e5}.st11{fill:#76cfe5}.st11,.st12{clip-path:url(#SVGID_2_)}.st12{fill:#72cee5}.st13{fill:#6fcde5}.st13,.st14{clip-path:url(#SVGID_2_)}.st14{fill:#6bcde5}.st15{fill:#68cce5}.st15,.st16{clip-path:url(#SVGID_2_)}.st16{fill:#64cbe6}.st17{fill:#60cae6}.st17,.st18{clip-path:url(#SVGID_2_)}.st18{fill:#5cc9e6}.st19{fill:#58c9e6}.st19,.st20{clip-path:url(#SVGID_2_)}.st20{fill:#54c8e6}.st21{fill:#4fc7e6}.st21,.st22{clip-path:url(#SVGID_2_)}.st22{fill:#4ac6e6}.st23{fill:#45c6e7}.st23,.st24{clip-path:url(#SVGID_2_)}.st24{fill:#3fc5e7}.st25{fill:#39c4e7}.st25,.st26{clip-path:url(#SVGID_2_)}.st26{fill:#32c4e7}.st27{fill:#2ac3e7}.st27,.st28{clip-path:url(#SVGID_2_)}.st28{fill:#20c2e7}.st29{fill:#12c1e8}.st29,.st30{clip-path:url(#SVGID_2_)}.st30{fill:#00c1e8}.st31{fill:#00c0e8}.st31,.st32{clip-path:url(#SVGID_2_)}.st32{fill:#00bfe8}.st33{fill:#00bee8}.st33,.st34{clip-path:url(#SVGID_2_)}.st34{fill:#00bde9}.st35{fill:#00bce9}.st35,.st36{clip-path:url(#SVGID_2_)}.st36{fill:#00bbe9}.st37{fill:#00bae9}.st37,.st38{clip-path:url(#SVGID_2_)}.st38{fill:#00b9ea}.st39{fill:#00b8ea}.st39,.st40{clip-path:url(#SVGID_2_)}.st40{fill:#00b7ea}.st41{fill:#00b6ea}.st41,.st42{clip-path:url(#SVGID_2_)}.st42{fill:#00b5eb}.st43{fill:#00b4eb}.st43,.st44{clip-path:url(#SVGID_2_)}.st44{fill:#00b3ec}.st45{fill:#00b2ec}.st45,.st46{clip-path:url(#SVGID_2_)}.st46{fill:#00b1ec}.st47{fill:#00b1ed}.st47,.st48{clip-path:url(#SVGID_2_)}.st48{fill:#00b0ed}.st49{fill:#00afee}.st49,.st50{clip-path:url(#SVGID_2_)}.st50{fill:#00aeef}.st51{opacity:.75}.st52{clip-path:url(#SVGID_4_);fill:#cbdb2a}.st53{fill:#c8da2b}.st53,.st54{clip-path:url(#SVGID_4_)}.st54{fill:#c6d92d}.st55{fill:#c3d82e}.st55,.st56{clip-path:url(#SVGID_4_)}.st56{fill:#c1d82f}.st57{fill:#bed730}.st57,.st58{clip-path:url(#SVGID_4_)}.st58{fill:#bcd631}.st59{fill:#bad532}.st59,.st60{clip-path:url(#SVGID_4_)}.st60{fill:#b7d433}.st61{fill:#b5d334}.st61,.st62{clip-path:url(#SVGID_4_)}.st62{fill:#b2d235}.st63{fill:#afd136}.st63,.st64{clip-path:url(#SVGID_4_)}.st64{fill:#add136}.st65{fill:#aad037}.st65,.st66{clip-path:url(#SVGID_4_)}.st66{fill:#a8cf38}.st67{fill:#a5ce39}.st67,.st68{clip-path:url(#SVGID_4_)}.st68{fill:#a3cd3a}.st69{fill:#a0cc3a}.st69,.st70{clip-path:url(#SVGID_4_)}.st70{fill:#9ecc3b}.st71{fill:#9bcb3c}.st71,.st72{clip-path:url(#SVGID_4_)}.st72{fill:#99ca3c}.st73{fill:#96c93d}.st73,.st74{clip-path:url(#SVGID_4_)}.st74{fill:#93c83e}.st75{fill:#91c83e}.st75,.st76{clip-path:url(#SVGID_4_)}.st76{fill:#8ec73f}.st77{fill:#8bc63f}.st77,.st78{clip-path:url(#SVGID_4_)}.st78{fill:#89c540}.st79{fill:#86c440}.st79,.st80{clip-path:url(#SVGID_4_)}.st80{fill:#83c441}.st81{fill:#81c341}.st81,.st82{clip-path:url(#SVGID_4_)}.st82{fill:#7ec242}.st83{fill:#7bc142}.st83,.st84{clip-path:url(#SVGID_4_)}.st84{fill:#78c143}.st85{fill:#76c043}.st85,.st86{clip-path:url(#SVGID_4_)}.st86{fill:#72bf44}.st87{fill:#6fbe44}.st87,.st88{clip-path:url(#SVGID_4_)}.st88{fill:#6cbe45}.st89{fill:#69bd45}.st89,.st90{clip-path:url(#SVGID_4_)}.st90{fill:#66bc46}.st91{fill:#63bc46}.st91,.st92{clip-path:url(#SVGID_4_)}.st92{fill:#5fbb46}.st93{fill:#5cba47}.st93,.st94{clip-path:url(#SVGID_4_)}.st94{fill:#58b947}.st95{fill:#54b948}.st95,.st96{clip-path:url(#SVGID_4_)}.st96{fill:#51b848}.st97{fill:#4db748}.st97,.st98{clip-path:url(#SVGID_4_)}.st98{fill:#48b749}.st99{fill:#43b649}.st99,.st100{clip-path:url(#SVGID_4_)}.st100{fill:#3eb549}.st101{opacity:.95}.st102{clip-path:url(#SVGID_6_);fill:#d7df23}.st103{fill:#d4de25}.st103,.st104{clip-path:url(#SVGID_6_)}.st104{fill:#d1dd26}.st105{fill:#cedb27}.st105,.st106{clip-path:url(#SVGID_6_)}.st106{fill:#cbda29}.st107{fill:#c8d92a}.st107,.st108{clip-path:url(#SVGID_6_)}.st108{fill:#c6d82b}.st109{fill:#c3d62c}.st109,.st110{clip-path:url(#SVGID_6_)}.st110{fill:#c0d52d}.st111{fill:#bdd42e}.st111,.st112{clip-path:url(#SVGID_6_)}.st112{fill:#bbd32f}.st113{fill:#b8d230}.st113,.st114{clip-path:url(#SVGID_6_)}.st114{fill:#b5d131}.st115{fill:#b3cf32}.st115,.st116{clip-path:url(#SVGID_6_)}.st116{fill:#b0ce33}.st117{fill:#adcd34}.st117,.st118{clip-path:url(#SVGID_6_)}.st118{fill:#abcc34}.st119{fill:#a8cb35}.st119,.st120{clip-path:url(#SVGID_6_)}.st120{fill:#a5ca36}.st121{fill:#a3c936}.st121,.st122{clip-path:url(#SVGID_6_)}.st122{fill:#a0c837}.st123{fill:#9dc738}.st123,.st124{clip-path:url(#SVGID_6_)}.st124{fill:#9bc638}.st125{fill:#98c539}.st125,.st126{clip-path:url(#SVGID_6_)}.st126{fill:#95c43a}.st127{fill:#93c33a}.st127,.st128{clip-path:url(#SVGID_6_)}.st128{fill:#90c23b}.st129{fill:#8dc13b}.st129,.st130{clip-path:url(#SVGID_6_)}.st130{fill:#8bc03c}.st131{fill:#88bf3c}.st131,.st132{clip-path:url(#SVGID_6_)}.st132{fill:#85be3d}.st133{fill:#83bd3d}.st133,.st134{clip-path:url(#SVGID_6_)}.st134{fill:#80bc3e}.st135{fill:#7dbb3e}.st135,.st136{clip-path:url(#SVGID_6_)}.st136{fill:#7abb3f}.st137{fill:#78ba3f}.st137,.st138{clip-path:url(#SVGID_6_)}.st138{fill:#75b93f}.st139{fill:#72b840}.st139,.st140{clip-path:url(#SVGID_6_)}.st140{fill:#6fb740}.st141{fill:#6cb641}.st141,.st142{clip-path:url(#SVGID_6_)}.st142{fill:#69b541}.st143{fill:#66b441}.st143,.st144{clip-path:url(#SVGID_6_)}.st144{fill:#63b442}.st145{fill:#4196b4}</style><path class="st0" d="M29.5 4.9c-.3-3.1-1.5-4.4-5-4.4H10.2c-.5 0-.7.4-.8.9l-.6 1.8H5.1C1.6 3.2.5 4.5.1 7.6c-.1.9-.1 2.7-.1 3.6 0 .7 0 2.7.1 3.4.2 3.5 1.2 5.2 5 5.2h2.5v5.7c0 1.8 1.2 1.1 2.5-.4l4.8-5.4h4.2l2.7 3c1.2 1.4 2.5 2.2 2.5.4v-5.7h.4c3.8 0 4.8-1.7 5-5.2 0-.7.1-2.6.1-3.4-.2-.8-.2-3.1-.3-3.9z"/><defs><path id="SVGID_1_" d="M16.9 17.5h-6.3c-.6 0-.9-.3-.9-.8v-5.4l-2.4-.2c-.7-.1-.6-.5-.5-.9l.4-1.3 1.6-5.6H5.1C1.6 3.3.5 4.6.1 7.7c-.1.8-.1 2.6-.1 3.5 0 .7 0 2.7.1 3.4.2 3.5 1.2 5.2 5 5.2h2.5v5.7c0 1.8 1.2 1.1 2.5-.4l4.8-5.4h4.2l-2.2-2.2z"/></defs><clipPath id="SVGID_2_"><use xlink:href="#SVGID_1_" overflow="visible"/></clipPath><path class="st1" d="M0 12.2l8.9 15.1H0z"/><path class="st1" d="M0 11.8l9.1 15.5h-.2L0 12.2z"/><path class="st2" d="M0 11.3l9.3 15.9-.2.1L0 11.8z"/><path class="st3" d="M0 10.9l9.5 16.2-.2.1L0 11.3z"/><path class="st4" d="M0 10.5L9.7 27l-.2.1L0 10.9z"/><path class="st5" d="M0 10.1l9.8 16.7-.1.2L0 10.5z"/><path class="st6" d="M0 9.7l10 17-.2.1L0 10.1z"/><path class="st7" d="M0 9.3l10.2 17.3-.2.1-10-17z"/><path class="st8" d="M0 8.9l10.4 17.6-.2.1L0 9.3z"/><path class="st9" d="M0 8.4l10.6 18-.2.1L0 8.9z"/><path class="st10" d="M0 8l10.7 18.3-.1.1L0 8.4z"/><path class="st11" d="M0 7.6l10.9 18.6-.2.1L0 8z"/><path class="st12" d="M0 7.2l11.1 18.9-.2.1L0 7.6z"/><path class="st13" d="M0 6.8L11.3 26l-.2.1L0 7.2z"/><path class="st14" d="M0 6.4l11.5 19.5-.2.1L0 6.8z"/><path class="st15" d="M0 6l11.6 19.8-.1.1L0 6.4z"/><path class="st16" d="M0 5.5l11.8 20.2-.2.1L0 6z"/><path class="st17" d="M0 5.1l12 20.5-.2.1L0 5.5z"/><path class="st18" d="M0 4.7l12.2 20.8-.2.1L0 5.1z"/><path class="st19" d="M0 4.3l12.4 21.1-.2.1L0 4.7z"/><path class="st20" d="M0 3.9l12.6 21.3-.2.2L0 4.3z"/><path class="st21" d="M0 3.5l12.7 21.6-.1.1L0 3.9z"/><path class="st22" d="M0 3.3l.1-.1L12.9 25l-.2.1L0 3.5z"/><path class="st23" d="M.1 3.2h.2l12.8 21.7-.2.1z"/><path class="st24" d="M.6 3.2l12.7 21.6-.2.1L.3 3.2z"/><path class="st25" d="M.8 3.2l12.7 21.5-.2.1L.6 3.2z"/><path class="st26" d="M1.1 3.2l12.5 21.4-.1.1L.8 3.2z"/><path class="st27" d="M1.3 3.2l12.5 21.3-.2.1L1.1 3.2z"/><path class="st28" d="M1.6 3.2L14 24.4l-.2.1L1.3 3.2z"/><path class="st29" d="M1.8 3.2l12.4 21.1-.2.1L1.6 3.2z"/><path class="st30" d="M2 3.2l12.4 21-.2.1L1.8 3.2z"/><path class="st31" d="M2.3 3.2l12.2 20.9-.1.1L2 3.2z"/><path class="st32" d="M2.5 3.2L14.7 24l-.2.1L2.3 3.2z"/><path class="st33" d="M2.8 3.2l12.1 20.7-.2.1L2.5 3.2z"/><path class="st33" d="M3 3.2l12.1 20.6-.2.1L2.8 3.2z"/><path class="st34" d="M3.3 3.2l12 20.5-.2.1L3 3.2z"/><path class="st35" d="M3.5 3.2l12 20.3-.2.2-12-20.5zM3.8 3.2l11.8 20.2-.1.1-12-20.3z"/><path class="st36" d="M4 3.2l11.8 20.1-.2.1L3.8 3.2z"/><path class="st37" d="M4.2 3.2l11.8 20-.2.1L4 3.2z"/><path class="st37" d="M4.5 3.2l11.7 19.9-.2.1-11.8-20z"/><path class="st38" d="M4.7 3.2L16.4 23l-.2.1L4.5 3.2z"/><path class="st39" d="M5 3.2l11.5 19.7-.1.1L4.7 3.2z"/><path class="st39" d="M5.2 3.2l11.5 19.6-.2.1L5 3.2z"/><path class="st40" d="M5.5 3.2l11.4 19.5-.2.1L5.2 3.2zM5.7 3.2l11.4 19.4-.2.1L5.5 3.2z"/><path class="st41" d="M5.9 3.2l11.4 19.3-.2.1L5.7 3.2z"/><path class="st42" d="M6.2 3.2l11.2 19.2-.1.1L5.9 3.2zM6.4 3.2l11.2 19.1-.2.1L6.2 3.2z"/><path class="st43" d="M6.7 3.2l11.1 19-.2.1L6.4 3.2z"/><path class="st43" d="M6.9 3.2L18 22.1l-.2.1-11.1-19z"/><path class="st44" d="M7.2 3.2l11 18.7-.2.2L6.9 3.2z"/><path class="st45" d="M7.4 3.2l11 18.6-.2.1-11-18.7z"/><path class="st45" d="M7.7 3.2l10.8 18.5-.1.1-11-18.6z"/><path class="st46" d="M7.9 3.2l10.8 18.4-.2.1L7.7 3.2z"/><path class="st47" d="M8.1 3.2l10.8 18.3-.2.1L7.9 3.2z"/><path class="st48" d="M8.4 3.2l10.5 18v.3L8.1 3.2z"/><path class="st48" d="M8.6 3.2l10.3 17.6v.4L8.4 3.2z"/><path class="st49" d="M8.9 3.2l10 17.1v.5L8.6 3.2z"/><path class="st49" d="M9.1 3.2l9.8 16.7v.4L8.9 3.2z"/><path class="st50" d="M9.4 3.2l9.5 16.3v.4L9.1 3.2z"/><path class="st50" d="M9.6 3.2l9.3 15.9v.4L9.4 3.2z"/><path class="st50" d="M18.9 19.1L9.6 3.2h9.3z"/><g class="st51"><defs><path id="SVGID_3_" d="M29.5 4.9c-.3-3.1-1.5-4.4-5-4.4H10.2c-.5 0-.7.4-.8.9l-.6 1.8h12.3c.5 0 .7.4.8.9l2.2 7 .4 1.3c.1.4.2.8-.5.9l-2.4.2v5.4c0 .5-.3.8-.9.8h-1.8l2.7 3c1.2 1.4 2.5 2.2 2.5.4v-5.7h.4c3.8 0 4.8-1.7 5-5.2 0-.7.1-2.6.1-3.4 0-.8 0-3.1-.1-3.9z"/></defs><clipPath id="SVGID_4_"><use xlink:href="#SVGID_3_" overflow="visible"/></clipPath><path class="st52" d="M12 .4l14 24.4-.4.2H8.8V.4z"/><path class="st52" d="M12.3.4l14 24.3-.3.1L12 .4z"/><path class="st53" d="M12.6.4l13.9 24.1-.2.2L12.3.4z"/><path class="st54" d="M12.9.4l13.8 24-.2.1L12.6.4z"/><path class="st55" d="M13.2.4L27 24.3l-.3.1L12.9.4z"/><path class="st56" d="M13.5.4l13.7 23.7-.2.2L13.2.4z"/><path class="st57" d="M13.8.4L27.4 24l-.2.1L13.5.4z"/><path class="st58" d="M14.1.4l13.5 23.5-.2.1L13.8.4z"/><path class="st59" d="M14.4.4l13.5 23.3-.3.2L14.1.4z"/><path class="st60" d="M14.7.4l13.4 23.2-.2.1L14.4.4z"/><path class="st61" d="M15 .4l13.3 23.1-.2.1L14.7.4z"/><path class="st62" d="M15.3.4l13.3 22.9-.3.2L15 .4z"/><path class="st63" d="M15.6.4l13.2 22.8-.2.1L15.3.4z"/><path class="st64" d="M15.9.4L29 23.1l-.2.1L15.6.4z"/><path class="st65" d="M16.3.4l13 22.5-.3.2L15.9.4z"/><path class="st66" d="M16.6.4l12.9 22.4-.2.1L16.3.4z"/><path class="st67" d="M16.9.4l12.7 22.1v.2l-.1.1L16.6.4z"/><path class="st68" d="M17.2.4L29.6 22v.5L16.9.4z"/><path class="st69" d="M17.5.4l12.1 21v.6L17.2.4z"/><path class="st70" d="M17.8.4l11.8 20.5v.5L17.5.4z"/><path class="st71" d="M18.1.4l11.5 20v.5L17.8.4z"/><path class="st72" d="M18.4.4l11.2 19.4v.6L18.1.4z"/><path class="st73" d="M18.7.4l10.9 18.9v.5L18.4.4z"/><path class="st74" d="M19 .4l10.6 18.4v.5L18.7.4z"/><path class="st75" d="M19.3.4l10.3 17.8v.6L19 .4z"/><path class="st76" d="M19.6.4l10 17.3v.5L19.3.4z"/><path class="st77" d="M19.9.4l9.7 16.8v.5L19.6.4z"/><path class="st78" d="M20.2.4l9.4 16.2v.6L19.9.4z"/><path class="st79" d="M20.6.4l9 15.7v.5L20.2.4z"/><path class="st80" d="M20.9.4l8.7 15.2v.5L20.6.4z"/><path class="st81" d="M21.2.4L29.6 15v.6L20.9.4z"/><path class="st82" d="M21.5.4l8.1 14.1v.5L21.2.4z"/><path class="st83" d="M21.8.4L29.6 14v.5L21.5.4z"/><path class="st84" d="M22.1.4l7.5 13v.6L21.8.4z"/><path class="st85" d="M22.4.4l7.2 12.5v.5L22.1.4z"/><path class="st86" d="M22.7.4l6.9 12v.5L22.4.4z"/><path class="st87" d="M23 .4l6.6 11.4v.6L22.7.4z"/><path class="st88" d="M23.3.4l6.3 10.9v.5L23 .4z"/><path class="st89" d="M23.6.4l6 10.4v.5L23.3.4z"/><path class="st90" d="M23.9.4l5.7 9.8v.6L23.6.4z"/><path class="st91" d="M24.2.4l5.4 9.3v.5L23.9.4z"/><path class="st92" d="M24.6.4l5 8.8v.5L24.2.4z"/><path class="st93" d="M24.9.4l4.7 8.3v.5l-5-8.8z"/><path class="st94" d="M25.2.4l4.4 7.7v.6L24.9.4z"/><path class="st95" d="M25.5.4l4.1 7.2v.5L25.2.4z"/><path class="st96" d="M25.8.4l3.8 6.7v.5L25.5.4z"/><path class="st97" d="M26.1.4l3.5 6.1v.6L25.8.4z"/><path class="st98" d="M26.4.4L29.6 6v.5L26.1.4z"/><path class="st99" d="M26.7.4l2.9 5.1V6L26.4.4z"/><path class="st100" d="M27 .4l2.6 4.5v.6L26.7.4z"/><path class="st100" d="M29.6 4.9L27 .4h2.6z"/></g><g class="st101"><defs><path id="SVGID_5_" d="M21.6 19v-5.4l2.4-.2c.7-.1.6-.5.5-.9l-.4-1.3-2.2-7c-.2-.5-.3-.9-.8-.9H8.8L7.2 8.8l-.4 1.3c-.1.4-.2.8.5.9l2.4.2v5.4c0 .5.3.8.9.8h6.3l2.1 2.3h1.8c.5 0 .8-.2.8-.7z"/></defs><clipPath id="SVGID_6_"><use xlink:href="#SVGID_5_" overflow="visible"/></clipPath><path class="st102" d="M6.5 3.2h3.7v16.6H6.5zM10.2 3.2h.3v16.6h-.3z"/><path class="st103" d="M10.5 3.2h.3v16.6h-.3z"/><path class="st104" d="M10.8 3.2h.3v16.6h-.3z"/><path class="st105" d="M11.1 3.2h.3v16.6h-.3z"/><path class="st106" d="M11.4 3.2h.3v16.6h-.3z"/><path class="st107" d="M11.7 3.2h.3v16.6h-.3z"/><path class="st108" d="M12 3.2h.3v16.6H12z"/><path class="st109" d="M12.3 3.2h.3v16.6h-.3z"/><path class="st110" d="M12.6 3.2h.3v16.6h-.3z"/><path class="st111" d="M12.9 3.2h.3v16.6h-.3z"/><path class="st112" d="M13.2 3.2h.3v16.6h-.3z"/><path class="st113" d="M13.6 3.2h.3v16.6h-.3z"/><path class="st114" d="M13.9 3.2h.3v16.6h-.3z"/><path class="st115" d="M14.2 3.2h.3v16.6h-.3z"/><path class="st116" d="M14.5 3.2h.3v16.6h-.3z"/><path class="st117" d="M14.8 3.2h.3v16.6h-.3z"/><path class="st118" d="M15.1 3.2h.3v16.6h-.3z"/><path class="st119" d="M15.4 3.2h.3v16.6h-.3z"/><path class="st120" d="M15.7 3.2h.3v16.6h-.3z"/><path class="st121" d="M16 3.2h.3v16.6H16z"/><path class="st122" d="M16.3 3.2h.3v16.6h-.3z"/><path class="st123" d="M16.6 3.2h.3v16.6h-.3z"/><path class="st124" d="M16.9 3.2h.3v16.6h-.3z"/><path class="st125" d="M17.2 3.2h.3v16.6h-.3z"/><path class="st126" d="M17.5 3.2h.3v16.6h-.3z"/><path class="st127" d="M17.9 3.2h.3v16.6h-.3z"/><path class="st128" d="M18.2 3.2h.3v16.6h-.3z"/><path class="st129" d="M18.5 3.2h.3v16.6h-.3z"/><path class="st130" d="M18.8 3.2h.3v16.6h-.3z"/><path class="st131" d="M19.1 3.2h.3v16.6h-.3z"/><path class="st132" d="M19.4 3.2h.3v16.6h-.3z"/><path class="st133" d="M19.7 3.2h.3v16.6h-.3z"/><path class="st134" d="M20 3.2h.3v16.6H20z"/><path class="st135" d="M20.3 3.2h.3v16.6h-.3z"/><path class="st136" d="M20.6 3.2h.3v16.6h-.3z"/><path class="st137" d="M20.9 3.2h.3v16.6h-.3z"/><path class="st138" d="M21.2 3.2h.3v16.6h-.3z"/><path class="st139" d="M21.5 3.2h.3v16.6h-.3z"/><path class="st140" d="M21.9 3.2h.3v16.6h-.3z"/><path class="st141" d="M22.2 3.2h.3v16.6h-.3z"/><path class="st142" d="M22.5 3.2h.3v16.6h-.3z"/><path class="st143" d="M22.8 3.2h.3v16.6h-.3z"/><path class="st144" d="M23.1 3.2h.3v16.6h-.3z"/><path class="st144" d="M23.4 3.2h1.4v16.6h-1.4z"/></g><g><path class="st145" d="M39.7 24c-.9 0-1.8-.1-2.6-.4-.9-.3-1.7-.7-2.4-1.3-.7-.6-1.3-1.5-1.8-2.6-.4-1.1-.7-2.5-.7-4.1v-2.1c0-2.2.4-3.9 1.1-5.2.7-1.4 1.6-2.2 2.7-2.7s2.3-.7 3.6-.7c.7 0 1.3.1 2 .2.6.1 1.2.3 1.6.5.5.2.8.3.9.4.4.2.6.5.6.7v1.9c0 .4-.2.6-.7.4-.3-.1-.7-.2-1.2-.4l-1.5-.3c-.5-.1-1-.1-1.4-.1-.9 0-1.6.2-2.2.5-.6.3-1 .9-1.3 1.6-.3.8-.4 1.8-.4 3.1v2.1c0 1.3.1 2.3.4 3 .3.8.7 1.3 1.3 1.6.6.3 1.3.5 2.2.5.7 0 1.4-.1 2.2-.3.7-.2 1.4-.4 2-.6.4-.2.7 0 .7.4V22c0 .3-.2.5-.6.8-.4.2-1 .4-1.8.7-.9.3-1.8.5-2.7.5z"/></g><g><path class="st145" d="M50.8 23.2c0 .2 0 .3-.1.4-.1.1-.2.2-.4.2h-2.5c-.2 0-.3-.1-.4-.2-.1-.1-.2-.3-.2-.4V3.3c0-.1.1-.3.2-.4.1-.1.2-.2.4-.2h2.5c.1 0 .3.1.4.2.1.1.2.2.2.4v19.9z"/></g><g><path class="st145" d="M57.3 23.2c0 .2 0 .3-.2.4-.1.1-.2.2-.4.2h-2.5c-.2 0-.3-.1-.4-.2-.1-.1-.2-.3-.2-.4V8.7c0-.2.1-.3.2-.4.1-.1.2-.2.4-.2h2.5c.2 0 .3.1.4.2.1.1.1.2.1.4v14.5z"/></g><g><path class="st145" d="M72.6 23.2c0 .1-.1.3-.2.4-.1.1-.2.2-.4.2h-2.5c-.1 0-.3-.1-.4-.2-.1-.1-.2-.3-.2-.4V14c0-.7-.1-1.3-.3-1.7-.2-.4-.4-.7-.8-.9-.4-.2-.9-.3-1.6-.3-.8 0-1.7.1-2.7.3v11.8c0 .2-.1.3-.2.4-.1.1-.2.2-.4.2h-2.5c-.2 0-.3-.1-.4-.2-.1-.1-.2-.3-.2-.4V9.3c0-.3.2-.5.5-.6.9-.3 1.9-.5 2.9-.6 1-.1 2-.2 2.9-.2 2.1 0 3.7.5 4.7 1.4 1 1 1.5 2.5 1.5 4.6v9.3z"/></g><g><path class="st145" d="M78.9 23.2c0 .2 0 .3-.1.4-.1.1-.2.2-.4.2h-2.5c-.2 0-.3-.1-.4-.2-.1-.1-.2-.3-.2-.4V8.7c0-.2.1-.3.2-.4.1-.1.2-.2.4-.2h2.5c.2 0 .3.1.4.2.1.1.1.2.1.4v14.5z"/></g><g><path class="st145" d="M87.1 20.9c1 0 2.2-.2 3.5-.6.4-.1.6 0 .6.4v1.8c0 .2 0 .3-.1.4-.1.1-.2.2-.4.3-.9.5-2.1.8-3.5.8-1.2 0-2.3-.2-3.2-.7-.9-.5-1.7-1.2-2.2-2.2-.5-1-.8-2.3-.8-3.8v-2.6c0-1.5.3-2.8.8-3.8s1.3-1.7 2.2-2.2c.9-.5 2-.7 3.2-.7 1.4 0 2.6.3 3.5.8l.3.3c.1.1.1.2.1.4v1.8c0 .4-.2.6-.6.4-.6-.2-1.1-.4-1.6-.5-.5-.1-1.1-.2-1.7-.2-1.8 0-2.7 1.2-2.7 3.6v2.6c0 1.3.2 2.2.7 2.8.5.6 1.1.9 1.9.9z"/></g><g><path class="st145" d="M97.1 23.2c0 .2 0 .3-.2.4-.1.1-.2.2-.4.2H94c-.2 0-.3-.1-.4-.2-.1-.1-.2-.3-.2-.4V8.7c0-.2.1-.3.2-.4.1-.1.2-.2.4-.2h2.5c.2 0 .3.1.4.2.1.1.1.2.1.4v14.5z"/></g><g><path class="st145" d="M126.5 23.2c0 .1-.1.3-.2.4-.1.1-.2.2-.4.2h-2.5c-.1 0-.3-.1-.4-.2-.1-.1-.2-.3-.2-.4V14c0-.7-.1-1.3-.3-1.7-.2-.4-.4-.7-.8-.9-.4-.2-.9-.3-1.6-.3-.8 0-1.7.1-2.7.3v11.8c0 .2-.1.3-.2.4-.1.1-.2.2-.4.2h-2.5c-.2 0-.3-.1-.4-.2-.1-.1-.2-.3-.2-.4V9.3c0-.3.2-.5.5-.6.9-.3 1.9-.5 2.9-.6 1-.1 2-.2 2.9-.2 2.1 0 3.7.5 4.7 1.4 1 1 1.5 2.5 1.5 4.6v9.3z"/></g><g><path class="st145" d="M57.2 5.3c0 .1 0 .3-.1.3-.1.1-.2.1-.3.1h-2.5c-.1 0-.2 0-.4-.1-.1-.1-.2-.2-.2-.3V3.2c0-.1.1-.2.2-.3.1-.1.2-.1.4-.1h2.5c.1 0 .2 0 .3.1.1.1.1.2.1.3v2.1z"/></g><g><path class="st145" d="M78.9 5.3c0 .1 0 .3-.1.3-.1.1-.2.1-.3.1H76c-.1 0-.2 0-.4-.1-.1-.1-.2-.2-.2-.3V3.2c0-.1.1-.2.2-.3.1-.1.2-.1.4-.1h2.5c.1 0 .2 0 .3.1.1.1.1.2.1.3v2.1z"/></g><g><path class="st145" d="M97.1 5.3c0 .1 0 .3-.1.3-.1.1-.2.1-.3.1h-2.5c-.1 0-.2 0-.4-.1-.1-.1-.2-.2-.2-.3V3.2c0-.1.1-.2.2-.3.1-.1.2-.1.4-.1h2.5c.1 0 .2 0 .3.1.1.1.1.2.1.3v2.1z"/></g><g><path class="st145" d="M112 15.1c0-1.4-.2-2.7-.7-3.8-.5-1.1-1.2-1.9-2.2-2.5-1-.6-2-.9-3.3-.9-1.4 0-2.5.3-3.5.8-1 .6-1.7 1.4-2.2 2.4-.5 1.1-.8 2.3-.8 3.7v2c0 1.7.3 3.1 1 4.1.7 1 1.6 1.8 2.6 2.2 1 .4 2.1.6 3.3.6.9 0 1.8-.1 2.7-.3.9-.2 1.6-.5 2.2-.8.2-.1.3-.2.4-.3.1-.1.1-.2.1-.4v-1.6c0-.4-.2-.5-.6-.4-.6.2-1.3.3-2.2.5-.9.2-1.7.2-2.5.2-1.4 0-2.3-.3-2.8-1-.5-.6-.8-1.5-.8-2.5 0 0 4.7.1 5.8 0 1.1-.1 2-.2 2.9-.4.4-.1.5-.3.5-.6l.1-1zm-9.2-.6c0-.8.1-1.4.4-1.9.2-.5.6-.9 1-1.1.4-.2.9-.4 1.5-.4.9 0 1.4.3 1.9.9.5.5.7 1.5.8 2.5-1.3.1-5.6 0-5.6 0z"/></g><g><path class="st145" d="M135.9 23.3c0 .3-.2.4-.5.5-.8.1-1.5.2-2.1.2-1.1 0-1.9-.1-2.5-.3-.6-.2-1.1-.6-1.3-1.3-.3-.6-.4-1.6-.4-2.8V5.9c0-.3.2-.5.5-.6l2.5-.4h.1c.3 0 .4.1.4.4v14.2c0 .7.1 1.1.2 1.3.1.2.4.3.9.3h1.7c.4 0 .6.1.6.4v1.8z"/><path class="st145" d="M129.9 11.7c.9.2 1.8.2 2.8.2.9-.1 1.7-.2 2.3-.4.2-.1.4-.1.5-.2.1-.1.2-.2.2-.4L136 9c.1-.4-.1-.6-.5-.5-.6.1-1.3.1-2.2.1-.9 0-1.7-.1-2.5-.2"/></g></svg>