<svg id="Layer_1" data-name="Layer 1" xmlns="http://www.w3.org/2000/svg" viewBox="0 0 400 214.42" width="400" height="250"><defs><style>.cls-1{fill:#e5e5e5}.cls-2{fill:#d0d1d1}.cls-3{fill:#d25352}</style></defs><title>valley</title><path class="cls-1" d="M188.94 93.88l122.64-23.27-21.19-16.47-3.66-7.32-14.64-12.56s-1.83 1.31-3.92 2.88l-1-1.31L246.2 19.1l-14.9 16.21S216.92 48.38 202 61.72c-11-10.2-27.46-25.63-27.46-25.63l-13.86-18.3-37.38 29.29-5.23-.26-37.13 25.1z" transform="translate(0 -17.79)"/><path class="cls-2" d="M103.17 62.5l17-11.77 2.35 2.88L147.62 35s3.66 9.15 3.14 9.15c-.78 0 6.8-11.77 6.8-11.77l6.8 12.81s-7.32 9.41-7.58 9.68 2.88 11.51 2.88 11.51-11-9.94-11.51-9.68-14.64 8.37-14.91 8.63S127.22 56 127 56c-.82 0-23.83 6.5-23.83 6.5zM200.44 63c-.78 0-13.86 9.15-13.86 9.15s-3.92 4.18-3.92 5 .52-6.54.52-6.54l2.88-3.4-2.61-5.75 6 3.92 2.61-3.66zM242.28 58.58l1.83-6.8 2.09 2.09 4.18-14.12-3.14-8.89-3.66 6.28-.26-9.41-5 9.94-7.58 6.54-11.47 15.42s-25.1 15.69-25.89 15.69 20.92 2.61 20.92 2.61 12.29-10.2 12.81-9.94L241 72.7l.78-3.4z" transform="translate(0 -17.79)"/><path class="cls-1" d="M160.43 101.2v72.7l34 1.31a2 2 0 0 1 1.83 1.83v15.16a1.79 1.79 0 0 1-1.83 1.83H144a1.79 1.79 0 0 1-1.83-1.83V98.07c0-.78.78-1.31 1.83-1.31l14.91 2.61a1.91 1.91 0 0 1 1.52 1.83zM48.25 77.67c-1-.26-1.57.52-1.83 2.09l-13.34 63-1.31 9.94-1-10.2-11.51-68c-.26-1.5-.82-2.58-1.86-2.84L1.71 68.52c-1-.26-2.09 1.57-1.57 2.88l22 119.24c.26 1.31 1.31 2.61 2.35 2.61h16.7c1 0 2.09-1 2.35-2.61l22-107.21c.26-1-.52-2.88-1.57-3.14zm59.88 14.64q12.55 51.38 25.1 99.63a1.85 1.85 0 0 1-1.83 2.09H117c-1 0-1.83-1-2.35-2.09l-3.14-12-25.36-.78L83 191.68a2.78 2.78 0 0 1-2.35 2.09H66.3a2 2 0 0 1-1.83-2.35l25.1-102.5v-.27c.52-1.31.78-2.09 1.83-1.83l5.49 1 3.92.78 5.49 1c1.05.4 1.57 1.4 1.84 2.71zm-1.57 66.94L99 127.88l-7.6 30.33zm118.72-56.48l-14.91 2.61a3.68 3.68 0 0 0-1.83 1.57v84.72a1.79 1.79 0 0 0 1.83 1.83h50.47a1.87 1.87 0 0 0 1.83-2.09v-16.73a1.79 1.79 0 0 0-1.83-1.83l-34 1.31v-70.08a1.46 1.46 0 0 0-1.56-1.31zm134.15 90.74h15.17a2.11 2.11 0 0 0 1.83-2.35V138.6l23-64.59a16.66 16.66 0 0 0 .52-1.83 1.65 1.65 0 0 0-1.83-2.09l-16.21 3.4c-1 .26-1.83 1.57-2.35 2.88l-12.29 35.56L355 81.33c-.26-1-1.31-2.09-2.35-1.83l-16.21 3.14a2.52 2.52 0 0 0-1.83 2.61 2 2 0 0 0 .52 1.31l23 53.87v51a1.43 1.43 0 0 0 1.3 2.08zm-36.87-86a2.9 2.9 0 0 0 1.83-2.35v-18.6c0-1.31-.78-2.09-1.83-1.83l-46 8.63a2.51 2.51 0 0 0-1.83 2.35v96.23a2 2 0 0 0 1.83 2.09h46a2.24 2.24 0 0 0 1.83-2.09v-18.56a1.87 1.87 0 0 0-1.83-2.09l-29 .78V153l22.44-1.59a2.11 2.11 0 0 0 1.83-2.35v-18.83a1.87 1.87 0 0 0-1.83-2.09l-22.49 2.61v-18.82z" transform="translate(0 -17.79)"/><path class="cls-2" d="M267.12 27.98l3.14-4.45.26 4.71 1.83 2.88-.52 6.27-3.66-4.44-5.49 8.63 1.83-12.29 2.61-1.31z"/><path class="cls-1" d="M38.32 212.86h2.61v7.84h9.68v-7.84h2.61v18.83h-2.61v-8.89h-9.68v8.89h-2.61v-18.83zM58.45 212.86H72v2.35H60.81V221H71v2.09H60.81v6.28H72v2.35H58.19l.26-18.83zM82.25 212.86h2.88l6.8 18.83H89l-1.83-5.49h-7.28l-2.09 5.49h-2.61zm4.18 11l-2.88-8.11-2.88 8.37 5.75-.26zM95.06 212.86h2.61v16.47h9.41v2.35h-12v-18.82zM122.52 212.86v2.35h-6.28v16.47h-2.61v-16.47h-6.28v-2.35h15.17zM125.92 212.86h2.61v7.84h9.68v-7.84h2.61v18.83h-2.61v-8.89h-9.68v8.89h-2.61v-18.83zM159.13 214.17a5.89 5.89 0 0 1 2.09 4.18h-2.35a5.17 5.17 0 0 0-1.57-2.88 4.82 4.82 0 0 0-3.4-1 5.39 5.39 0 0 0-4.45 1.83c-1 1.31-1.57 3.4-1.57 6a8.3 8.3 0 0 0 1.57 5.23 5.59 5.59 0 0 0 4.45 2.09 5.08 5.08 0 0 0 4.18-2.09 9.37 9.37 0 0 0 1-2.88h2.35a9.59 9.59 0 0 1-2.09 5 7.88 7.88 0 0 1-6 2.35 8.44 8.44 0 0 1-5.49-2.09c-1.83-1.83-2.88-4.45-2.88-8.11a11.08 11.08 0 0 1 2.09-6.8 8.12 8.12 0 0 1 6.54-2.88c2.4.22 4.22.74 5.53 2.05zM170.89 212.86h2.88l6.8 18.83h-2.88l-1.83-5.49h-7.32l-2.09 5.49h-2.61zm4.18 11l-2.88-8.11-2.88 8.37 5.75-.26zM184.23 212.86h8.63a11.61 11.61 0 0 1 3.4.52c1.83.78 2.61 2.35 2.61 4.45a5.27 5.27 0 0 1-.78 2.88 6.11 6.11 0 0 1-1.83 1.83 4 4 0 0 1 1.57 1 5.22 5.22 0 0 1 .52 2.35v2.61a2.4 2.4 0 0 0 .26 1.57 1.78 1.78 0 0 0 .78 1v.52h-3.14c0-.26-.26-.26-.26-.52v-1.47l-.26-3.14a2.21 2.21 0 0 0-1.31-2.35 5.1 5.1 0 0 0-2.09-.26h-5.49v8.11h-2.61v-19.1zm8.37 8.63a5.27 5.27 0 0 0 2.88-.78c.78-.52 1-1.31 1-2.61s-.52-2.35-1.31-2.61a5.1 5.1 0 0 0-2.09-.26h-6v6.28h5.49zM204.1 212.86h13.6v2.35h-11.24V221h10.2v2.09h-10.2v6.28h11.24v2.35h-13.86l.26-18.83zM232.34 225.67a4.42 4.42 0 0 0 .78 2.61c.78 1.31 2.35 1.83 4.18 1.83a7.74 7.74 0 0 0 2.61-.52 2.75 2.75 0 0 0 2.09-2.88c0-1-.26-1.83-1-2.09a6 6 0 0 0-2.88-1l-2.35-.52a7 7 0 0 1-3.4-1.31 4.08 4.08 0 0 1-1.83-3.4 5.2 5.2 0 0 1 1.83-4.18 6.39 6.39 0 0 1 4.71-1.57 10 10 0 0 1 5 1.31 5.23 5.23 0 0 1 2.09 4.45h-2.35a3.2 3.2 0 0 0-.82-2.4 4.39 4.39 0 0 0-3.66-1.57 4.17 4.17 0 0 0-3.14 1 3.23 3.23 0 0 0-1 2.09 2.12 2.12 0 0 0 1 2.09 28.91 28.91 0 0 0 3.4 1l2.61.52a7.35 7.35 0 0 1 2.88 1.31 4.72 4.72 0 0 1 1.83 3.92 4.91 4.91 0 0 1-2.09 4.45 11.06 11.06 0 0 1-5.23 1.31c-2.35 0-4.18-.52-5.23-1.83a6.3 6.3 0 0 1-1.83-4.71h1.83zM262.94 212.86v2.35h-6.28v16.47H254v-16.47h-6.28v-2.35h15.17zM269.74 212.86h2.88l6.8 18.83h-2.88l-1.83-5.49h-7.32l-2.09 5.49h-2.61zm4.18 11l-2.92-8.38-2.88 8.37h5.75zM283.07 212.86h13.07v2.35h-10.45V221h9.15v2.35h-9.15v8.63h-2.61v-19.12zM300.07 212.86h13.07v2.35h-10.46V221h9.15v2.35h-9.15v8.63h-2.61v-19.12zM317.33 212.86h2.61v18.83h-2.61v-18.83zM325.17 212.86H328l9.46 15.14v-15.14h2.35v18.83h-2.88l-9.41-15.17v15.17h-2.35v-18.83zM357.6 213.38c1.83 1 2.88 2.61 3.4 5.23h-2.61a4.63 4.63 0 0 0-1.83-2.88 7.56 7.56 0 0 0-3.66-1 4.88 4.88 0 0 0-4.18 1.83 8.87 8.87 0 0 0-1.83 5.75 11.35 11.35 0 0 0 1.31 5.49 5.75 5.75 0 0 0 4.71 2.09 5.94 5.94 0 0 0 4.18-1.57 6.39 6.39 0 0 0 1.57-4.71h-5.75v-2.09h8.37v9.94h-1.57l-.52-2.35a8.47 8.47 0 0 1-2.35 2.09 9.85 9.85 0 0 1-4.18 1 9.14 9.14 0 0 1-5.75-2.09c-1.83-1.83-2.61-4.18-2.61-7.32s.78-5.75 2.61-7.58a7.75 7.75 0 0 1 6.28-2.61 6.52 6.52 0 0 1 4.41.78z" transform="translate(0 -17.79)"/></svg>